<mxfile host="Electron" modified="2023-04-30T05:29:10.487Z" agent="Mozilla/5.0 (X11; Linux x86_64) AppleWebKit/537.36 (KHTML, like Gecko) draw.io/21.2.1 Chrome/112.0.5615.87 Electron/24.1.2 Safari/537.36" etag="GCQukpzUQxG8h0_AwePh" version="21.2.1" type="device">
  <diagram name="Page-1" id="e7e014a7-5840-1c2e-5031-d8a46d1fe8dd">
    <mxGraphModel dx="3218" dy="2069" grid="1" gridSize="10" guides="1" tooltips="1" connect="1" arrows="1" fold="1" page="1" pageScale="1" pageWidth="1169" pageHeight="826" background="none" math="0" shadow="0">
      <root>
        <mxCell id="0" />
        <mxCell id="1" parent="0" />
        <mxCell id="SuEEhrRADwr3MYmqWTas-42" value="" style="endArrow=none;html=1;rounded=0;" parent="1" edge="1">
          <mxGeometry width="50" height="50" relative="1" as="geometry">
            <mxPoint x="670" y="2720" as="sourcePoint" />
            <mxPoint x="670" y="-290" as="targetPoint" />
          </mxGeometry>
        </mxCell>
        <mxCell id="SuEEhrRADwr3MYmqWTas-43" value="Бизнес-логика" style="text;align=center;fontStyle=1;verticalAlign=middle;spacingLeft=3;spacingRight=3;strokeColor=none;rotatable=0;points=[[0,0.5],[1,0.5]];portConstraint=eastwest;fontSize=17;" parent="1" vertex="1">
          <mxGeometry x="540" y="-285" width="100" height="40" as="geometry" />
        </mxCell>
        <mxCell id="SuEEhrRADwr3MYmqWTas-44" value="Доступ к данным" style="text;align=center;fontStyle=1;verticalAlign=middle;spacingLeft=3;spacingRight=3;strokeColor=none;rotatable=0;points=[[0,0.5],[1,0.5]];portConstraint=eastwest;fontSize=17;" parent="1" vertex="1">
          <mxGeometry x="710" y="-290" width="110" height="50" as="geometry" />
        </mxCell>
        <mxCell id="SuEEhrRADwr3MYmqWTas-57" value="FilmRepository" style="swimlane;fontStyle=1;align=center;verticalAlign=top;childLayout=stackLayout;horizontal=1;startSize=26;horizontalStack=0;resizeParent=1;resizeParentMax=0;resizeLast=0;collapsible=1;marginBottom=0;strokeColor=rgb(0, 0, 0);fontFamily=Helvetica;fontSize=15;fontColor=rgb(0, 0, 0);fillColor=rgb(255, 255, 255);html=1;swimlaneLine=0;" parent="1" vertex="1">
          <mxGeometry x="744" y="2219" width="260" height="190" as="geometry" />
        </mxCell>
        <mxCell id="SuEEhrRADwr3MYmqWTas-59" value="" style="line;strokeWidth=1;fillColor=none;align=left;verticalAlign=middle;spacingTop=-1;spacingLeft=3;spacingRight=3;rotatable=0;labelPosition=right;points=[];portConstraint=eastwest;strokeColor=inherit;fontFamily=Helvetica;fontSize=15;fontColor=rgb(0, 0, 0);html=1;" parent="SuEEhrRADwr3MYmqWTas-57" vertex="1">
          <mxGeometry y="26" width="260" height="8" as="geometry" />
        </mxCell>
        <mxCell id="E0hOvBcrMat7tSrnWXjG-9" value="+ update(dto: UpdateFilmDto): &#xa;Promise&lt;Film&gt;" style="text;strokeColor=none;fillColor=none;align=left;verticalAlign=top;spacingLeft=4;spacingRight=4;overflow=hidden;rotatable=0;points=[[0,0.5],[1,0.5]];portConstraint=eastwest;fontSize=15;fontFamily=Helvetica;fontColor=rgb(0, 0, 0);" parent="SuEEhrRADwr3MYmqWTas-57" vertex="1">
          <mxGeometry y="34" width="260" height="40" as="geometry" />
        </mxCell>
        <mxCell id="gNh8933dBvDf4b6JsseC-89" value="+ getOneWithDetails(uuid: string): &#xa;Promise&lt;Film&gt;" style="text;strokeColor=none;fillColor=none;align=left;verticalAlign=top;spacingLeft=4;spacingRight=4;overflow=hidden;rotatable=0;points=[[0,0.5],[1,0.5]];portConstraint=eastwest;fontSize=15;fontFamily=Helvetica;fontColor=rgb(0, 0, 0);" parent="SuEEhrRADwr3MYmqWTas-57" vertex="1">
          <mxGeometry y="74" width="260" height="46" as="geometry" />
        </mxCell>
        <mxCell id="9V3V3k4leA-K9inNkyVy-24" value="+ findMany(skip?: number,&#xa;    take?: number&#xa;): Promise&lt;Film[]&gt;" style="text;strokeColor=none;fillColor=none;align=left;verticalAlign=top;spacingLeft=4;spacingRight=4;overflow=hidden;rotatable=0;points=[[0,0.5],[1,0.5]];portConstraint=eastwest;fontSize=15;fontFamily=Helvetica;fontColor=rgb(0, 0, 0);" parent="SuEEhrRADwr3MYmqWTas-57" vertex="1">
          <mxGeometry y="120" width="260" height="70" as="geometry" />
        </mxCell>
        <mxCell id="SuEEhrRADwr3MYmqWTas-61" value="" style="endArrow=block;dashed=1;endFill=0;endSize=12;html=1;rounded=0;fontFamily=Helvetica;fontSize=15;fontColor=rgb(0, 0, 0);" parent="1" source="SuEEhrRADwr3MYmqWTas-57" target="4RHJqd0osJH49P0sFGW8-24" edge="1">
          <mxGeometry width="160" relative="1" as="geometry">
            <mxPoint x="504" y="2709" as="sourcePoint" />
            <mxPoint x="664" y="2479" as="targetPoint" />
          </mxGeometry>
        </mxCell>
        <mxCell id="SuEEhrRADwr3MYmqWTas-66" value="ReportRepository" style="swimlane;fontStyle=1;align=center;verticalAlign=top;childLayout=stackLayout;horizontal=1;startSize=26;horizontalStack=0;resizeParent=1;resizeParentMax=0;resizeLast=0;collapsible=1;marginBottom=0;strokeColor=rgb(0, 0, 0);fontFamily=Helvetica;fontSize=15;fontColor=rgb(0, 0, 0);fillColor=rgb(255, 255, 255);html=1;swimlaneLine=0;" parent="1" vertex="1">
          <mxGeometry x="740" y="788" width="360" height="150" as="geometry" />
        </mxCell>
        <mxCell id="SuEEhrRADwr3MYmqWTas-68" value="" style="line;strokeWidth=1;fillColor=none;align=left;verticalAlign=middle;spacingTop=-1;spacingLeft=3;spacingRight=3;rotatable=0;labelPosition=right;points=[];portConstraint=eastwest;strokeColor=inherit;fontFamily=Helvetica;fontSize=15;fontColor=rgb(0, 0, 0);html=1;" parent="SuEEhrRADwr3MYmqWTas-66" vertex="1">
          <mxGeometry y="26" width="360" height="8" as="geometry" />
        </mxCell>
        <mxCell id="SuEEhrRADwr3MYmqWTas-69" value="+ save(report: Report): Promise&lt;Report&gt;" style="text;strokeColor=none;fillColor=none;align=left;verticalAlign=top;spacingLeft=4;spacingRight=4;overflow=hidden;rotatable=0;points=[[0,0.5],[1,0.5]];portConstraint=eastwest;fontSize=15;fontFamily=Helvetica;fontColor=rgb(0, 0, 0);" parent="SuEEhrRADwr3MYmqWTas-66" vertex="1">
          <mxGeometry y="34" width="360" height="26" as="geometry" />
        </mxCell>
        <mxCell id="E0hOvBcrMat7tSrnWXjG-12" value="+ update(dto: UpdateReportDto): Promise&lt;Report&gt;" style="text;strokeColor=none;fillColor=none;align=left;verticalAlign=top;spacingLeft=4;spacingRight=4;overflow=hidden;rotatable=0;points=[[0,0.5],[1,0.5]];portConstraint=eastwest;fontSize=15;fontFamily=Helvetica;fontColor=rgb(0, 0, 0);" parent="SuEEhrRADwr3MYmqWTas-66" vertex="1">
          <mxGeometry y="60" width="360" height="30" as="geometry" />
        </mxCell>
        <mxCell id="1P7DDNBLp40ltK4kkGiz-3" value="+ findOneByUserAndFilm(userUuid: string,&#xa;    filmUuid: string&#xa;): Promise&lt;Report&gt;" style="text;strokeColor=none;fillColor=none;align=left;verticalAlign=top;spacingLeft=4;spacingRight=4;overflow=hidden;rotatable=0;points=[[0,0.5],[1,0.5]];portConstraint=eastwest;fontSize=15;fontFamily=Helvetica;fontColor=rgb(0, 0, 0);" parent="SuEEhrRADwr3MYmqWTas-66" vertex="1">
          <mxGeometry y="90" width="360" height="60" as="geometry" />
        </mxCell>
        <mxCell id="SuEEhrRADwr3MYmqWTas-70" value="" style="endArrow=block;dashed=1;endFill=0;endSize=12;html=1;rounded=0;fontFamily=Helvetica;fontSize=15;fontColor=rgb(0, 0, 0);" parent="1" source="SuEEhrRADwr3MYmqWTas-66" target="4RHJqd0osJH49P0sFGW8-28" edge="1">
          <mxGeometry width="160" relative="1" as="geometry">
            <mxPoint x="530" y="568" as="sourcePoint" />
            <mxPoint x="660" y="333" as="targetPoint" />
          </mxGeometry>
        </mxCell>
        <mxCell id="SuEEhrRADwr3MYmqWTas-89" style="edgeStyle=orthogonalEdgeStyle;rounded=0;orthogonalLoop=1;jettySize=auto;html=1;exitX=0.5;exitY=1;exitDx=0;exitDy=0;fontFamily=Helvetica;fontSize=15;fontColor=rgb(0, 0, 0);" parent="1" edge="1">
          <mxGeometry relative="1" as="geometry">
            <mxPoint x="355" y="320" as="sourcePoint" />
            <mxPoint x="355" y="320" as="targetPoint" />
          </mxGeometry>
        </mxCell>
        <mxCell id="SuEEhrRADwr3MYmqWTas-138" value="FilmEntityMapper" style="swimlane;fontStyle=1;align=center;verticalAlign=top;childLayout=stackLayout;horizontal=1;startSize=26;horizontalStack=0;resizeParent=1;resizeParentMax=0;resizeLast=0;collapsible=1;marginBottom=0;strokeColor=rgb(0, 0, 0);fontFamily=Helvetica;fontSize=15;fontColor=rgb(0, 0, 0);fillColor=rgb(255, 255, 255);html=1;swimlaneLine=0;" parent="1" vertex="1">
          <mxGeometry x="1074" y="2372" width="230" height="86" as="geometry" />
        </mxCell>
        <mxCell id="SuEEhrRADwr3MYmqWTas-140" value="" style="line;strokeWidth=1;fillColor=none;align=left;verticalAlign=middle;spacingTop=-1;spacingLeft=3;spacingRight=3;rotatable=0;labelPosition=right;points=[];portConstraint=eastwest;strokeColor=inherit;fontFamily=Helvetica;fontSize=15;fontColor=rgb(0, 0, 0);html=1;" parent="SuEEhrRADwr3MYmqWTas-138" vertex="1">
          <mxGeometry y="26" width="230" height="8" as="geometry" />
        </mxCell>
        <mxCell id="SuEEhrRADwr3MYmqWTas-141" value="+ toEntity(m: Film): FilmEntity" style="text;strokeColor=none;fillColor=none;align=left;verticalAlign=top;spacingLeft=4;spacingRight=4;overflow=hidden;rotatable=0;points=[[0,0.5],[1,0.5]];portConstraint=eastwest;fontSize=15;fontFamily=Helvetica;fontColor=rgb(0, 0, 0);" parent="SuEEhrRADwr3MYmqWTas-138" vertex="1">
          <mxGeometry y="34" width="230" height="26" as="geometry" />
        </mxCell>
        <mxCell id="gNh8933dBvDf4b6JsseC-120" value="+ toModel(e: FilmEntity): Film" style="text;strokeColor=none;fillColor=none;align=left;verticalAlign=top;spacingLeft=4;spacingRight=4;overflow=hidden;rotatable=0;points=[[0,0.5],[1,0.5]];portConstraint=eastwest;fontSize=15;fontFamily=Helvetica;fontColor=rgb(0, 0, 0);" parent="SuEEhrRADwr3MYmqWTas-138" vertex="1">
          <mxGeometry y="60" width="230" height="26" as="geometry" />
        </mxCell>
        <mxCell id="gNh8933dBvDf4b6JsseC-6" value="" style="endArrow=block;dashed=1;endFill=0;endSize=12;html=1;rounded=0;fontFamily=Helvetica;fontSize=15;fontColor=rgb(0, 0, 0);edgeStyle=orthogonalEdgeStyle;" parent="1" source="SuEEhrRADwr3MYmqWTas-138" target="4RHJqd0osJH49P0sFGW8-77" edge="1">
          <mxGeometry width="160" relative="1" as="geometry">
            <mxPoint x="663" y="2539.304347826087" as="sourcePoint" />
            <mxPoint x="1158" y="2415" as="targetPoint" />
            <Array as="points">
              <mxPoint x="1498" y="2415" />
            </Array>
          </mxGeometry>
        </mxCell>
        <mxCell id="gNh8933dBvDf4b6JsseC-7" value="ReportEntityMapper" style="swimlane;fontStyle=1;align=center;verticalAlign=top;childLayout=stackLayout;horizontal=1;startSize=26;horizontalStack=0;resizeParent=1;resizeParentMax=0;resizeLast=0;collapsible=1;marginBottom=0;strokeColor=rgb(0, 0, 0);fontFamily=Helvetica;fontSize=15;fontColor=rgb(0, 0, 0);fillColor=rgb(255, 255, 255);html=1;swimlaneLine=0;" parent="1" vertex="1">
          <mxGeometry x="1160" y="832" width="280" height="86" as="geometry" />
        </mxCell>
        <mxCell id="gNh8933dBvDf4b6JsseC-9" value="" style="line;strokeWidth=1;fillColor=none;align=left;verticalAlign=middle;spacingTop=-1;spacingLeft=3;spacingRight=3;rotatable=0;labelPosition=right;points=[];portConstraint=eastwest;strokeColor=inherit;fontFamily=Helvetica;fontSize=15;fontColor=rgb(0, 0, 0);html=1;" parent="gNh8933dBvDf4b6JsseC-7" vertex="1">
          <mxGeometry y="26" width="280" height="8" as="geometry" />
        </mxCell>
        <mxCell id="gNh8933dBvDf4b6JsseC-10" value="+ toEntity(m: Report): ReportEntity" style="text;strokeColor=none;fillColor=none;align=left;verticalAlign=top;spacingLeft=4;spacingRight=4;overflow=hidden;rotatable=0;points=[[0,0.5],[1,0.5]];portConstraint=eastwest;fontSize=15;fontFamily=Helvetica;fontColor=rgb(0, 0, 0);" parent="gNh8933dBvDf4b6JsseC-7" vertex="1">
          <mxGeometry y="34" width="280" height="26" as="geometry" />
        </mxCell>
        <mxCell id="9V3V3k4leA-K9inNkyVy-6" value="+ toModel(e: ReportEntity): Report" style="text;strokeColor=none;fillColor=none;align=left;verticalAlign=top;spacingLeft=4;spacingRight=4;overflow=hidden;rotatable=0;points=[[0,0.5],[1,0.5]];portConstraint=eastwest;fontSize=15;fontFamily=Helvetica;fontColor=rgb(0, 0, 0);" parent="gNh8933dBvDf4b6JsseC-7" vertex="1">
          <mxGeometry y="60" width="280" height="26" as="geometry" />
        </mxCell>
        <mxCell id="gNh8933dBvDf4b6JsseC-19" value="Use" style="endArrow=open;endSize=12;dashed=1;html=1;rounded=0;" parent="1" source="SuEEhrRADwr3MYmqWTas-57" target="SuEEhrRADwr3MYmqWTas-138" edge="1">
          <mxGeometry width="160" relative="1" as="geometry">
            <mxPoint x="564" y="2450" as="sourcePoint" />
            <mxPoint x="724" y="2450" as="targetPoint" />
          </mxGeometry>
        </mxCell>
        <mxCell id="gNh8933dBvDf4b6JsseC-20" value="Use" style="endArrow=open;endSize=12;dashed=1;html=1;rounded=0;" parent="1" source="SuEEhrRADwr3MYmqWTas-66" target="gNh8933dBvDf4b6JsseC-7" edge="1">
          <mxGeometry width="160" relative="1" as="geometry">
            <mxPoint x="980" y="636" as="sourcePoint" />
            <mxPoint x="1050" y="636" as="targetPoint" />
          </mxGeometry>
        </mxCell>
        <mxCell id="gNh8933dBvDf4b6JsseC-25" value="Use" style="endArrow=open;endSize=12;dashed=1;html=1;rounded=0;" parent="1" source="4RHJqd0osJH49P0sFGW8-12" target="2iII4kuZC04SP8r0jxeM-19" edge="1">
          <mxGeometry width="160" relative="1" as="geometry">
            <mxPoint x="351.27192982456154" y="178" as="sourcePoint" />
            <mxPoint x="315.3448275862065" y="320" as="targetPoint" />
            <Array as="points" />
          </mxGeometry>
        </mxCell>
        <mxCell id="gNh8933dBvDf4b6JsseC-27" value="Use" style="endArrow=open;endSize=12;dashed=1;html=1;rounded=0;" parent="1" source="4RHJqd0osJH49P0sFGW8-24" target="2iII4kuZC04SP8r0jxeM-33" edge="1">
          <mxGeometry width="160" relative="1" as="geometry">
            <mxPoint x="344" y="2456.978723404255" as="sourcePoint" />
            <mxPoint x="394.9259259259261" y="2309" as="targetPoint" />
          </mxGeometry>
        </mxCell>
        <mxCell id="gNh8933dBvDf4b6JsseC-28" value="Use" style="endArrow=open;endSize=12;dashed=1;html=1;rounded=0;" parent="1" source="4RHJqd0osJH49P0sFGW8-28" target="2iII4kuZC04SP8r0jxeM-19" edge="1">
          <mxGeometry width="160" relative="1" as="geometry">
            <mxPoint x="450" y="206.33333333333326" as="sourcePoint" />
            <mxPoint x="370.5" y="320" as="targetPoint" />
          </mxGeometry>
        </mxCell>
        <mxCell id="gNh8933dBvDf4b6JsseC-95" value="" style="endArrow=block;dashed=1;endFill=0;endSize=12;html=1;rounded=0;fontFamily=Helvetica;fontSize=15;fontColor=rgb(0, 0, 0);edgeStyle=orthogonalEdgeStyle;" parent="1" source="_5MGRQRnhBBebKLjUCit-11" target="4RHJqd0osJH49P0sFGW8-77" edge="1">
          <mxGeometry width="160" relative="1" as="geometry">
            <mxPoint x="1393" y="2237.7142857142853" as="sourcePoint" />
            <mxPoint x="1423" y="2016" as="targetPoint" />
            <Array as="points">
              <mxPoint x="1498" y="2170" />
            </Array>
          </mxGeometry>
        </mxCell>
        <mxCell id="9V3V3k4leA-K9inNkyVy-15" value="Use" style="endArrow=open;endSize=12;dashed=1;html=1;rounded=0;" parent="1" source="4RHJqd0osJH49P0sFGW8-9" target="4RHJqd0osJH49P0sFGW8-24" edge="1">
          <mxGeometry width="160" relative="1" as="geometry">
            <mxPoint x="264" y="2387" as="sourcePoint" />
            <mxPoint x="509" y="2387" as="targetPoint" />
            <Array as="points" />
          </mxGeometry>
        </mxCell>
        <mxCell id="9V3V3k4leA-K9inNkyVy-16" value="Use" style="endArrow=open;endSize=12;dashed=1;html=1;rounded=0;" parent="1" source="4RHJqd0osJH49P0sFGW8-12" target="4RHJqd0osJH49P0sFGW8-28" edge="1">
          <mxGeometry width="160" relative="1" as="geometry">
            <mxPoint x="280" y="389.6833333333334" as="sourcePoint" />
            <mxPoint x="380" y="406.0166666666669" as="targetPoint" />
            <Array as="points" />
          </mxGeometry>
        </mxCell>
        <mxCell id="4RHJqd0osJH49P0sFGW8-9" value="FIlmService" style="swimlane;fontStyle=1;align=center;verticalAlign=top;childLayout=stackLayout;horizontal=1;startSize=26;horizontalStack=0;resizeParent=1;resizeParentMax=0;resizeLast=0;collapsible=1;marginBottom=0;strokeColor=rgb(0, 0, 0);fontFamily=Helvetica;fontSize=15;fontColor=rgb(0, 0, 0);fillColor=rgb(255, 255, 255);html=1;swimlaneLine=0;" parent="1" vertex="1">
          <mxGeometry x="-26" y="2309" width="350" height="240" as="geometry" />
        </mxCell>
        <mxCell id="4RHJqd0osJH49P0sFGW8-10" value="" style="line;strokeWidth=1;fillColor=none;align=left;verticalAlign=middle;spacingTop=-1;spacingLeft=3;spacingRight=3;rotatable=0;labelPosition=right;points=[];portConstraint=eastwest;strokeColor=inherit;fontFamily=Helvetica;fontSize=15;fontColor=rgb(0, 0, 0);html=1;" parent="4RHJqd0osJH49P0sFGW8-9" vertex="1">
          <mxGeometry y="26" width="350" height="8" as="geometry" />
        </mxCell>
        <mxCell id="4RHJqd0osJH49P0sFGW8-19" value="+ getMany(&#xa;    skip?: number, &#xa;    take?: number&#xa;): Promise&lt;Film[]&gt;" style="text;strokeColor=none;fillColor=none;align=left;verticalAlign=top;spacingLeft=4;spacingRight=4;overflow=hidden;rotatable=0;points=[[0,0.5],[1,0.5]];portConstraint=eastwest;fontSize=15;fontFamily=Helvetica;fontColor=rgb(0, 0, 0);" parent="4RHJqd0osJH49P0sFGW8-9" vertex="1">
          <mxGeometry y="34" width="350" height="76" as="geometry" />
        </mxCell>
        <mxCell id="gNh8933dBvDf4b6JsseC-100" value="+ getOneWithDetails(uuid: string): Promise&lt;Film&gt;" style="text;strokeColor=none;fillColor=none;align=left;verticalAlign=top;spacingLeft=4;spacingRight=4;overflow=hidden;rotatable=0;points=[[0,0.5],[1,0.5]];portConstraint=eastwest;fontSize=15;fontFamily=Helvetica;fontColor=rgb(0, 0, 0);" parent="4RHJqd0osJH49P0sFGW8-9" vertex="1">
          <mxGeometry y="110" width="350" height="26" as="geometry" />
        </mxCell>
        <mxCell id="_5MGRQRnhBBebKLjUCit-32" value="+ update(&#xa;    dto: UpdateFilmDto,&#xa;    login: string,&#xa;    password: string&#xa;): Promise&lt;Film&gt;" style="text;strokeColor=none;fillColor=none;align=left;verticalAlign=top;spacingLeft=4;spacingRight=4;overflow=hidden;rotatable=0;points=[[0,0.5],[1,0.5]];portConstraint=eastwest;fontSize=15;fontFamily=Helvetica;fontColor=rgb(0, 0, 0);" parent="4RHJqd0osJH49P0sFGW8-9" vertex="1">
          <mxGeometry y="136" width="350" height="104" as="geometry" />
        </mxCell>
        <mxCell id="4RHJqd0osJH49P0sFGW8-12" value="ReportService" style="swimlane;fontStyle=1;align=center;verticalAlign=top;childLayout=stackLayout;horizontal=1;startSize=26;horizontalStack=0;resizeParent=1;resizeParentMax=0;resizeLast=0;collapsible=1;marginBottom=0;strokeColor=rgb(0, 0, 0);fontFamily=Helvetica;fontSize=15;fontColor=rgb(0, 0, 0);fillColor=rgb(255, 255, 255);html=1;swimlaneLine=0;" parent="1" vertex="1">
          <mxGeometry x="-55" y="850" width="290" height="140" as="geometry" />
        </mxCell>
        <mxCell id="4RHJqd0osJH49P0sFGW8-13" value="" style="line;strokeWidth=1;fillColor=none;align=left;verticalAlign=middle;spacingTop=-1;spacingLeft=3;spacingRight=3;rotatable=0;labelPosition=right;points=[];portConstraint=eastwest;strokeColor=inherit;fontFamily=Helvetica;fontSize=15;fontColor=rgb(0, 0, 0);html=1;" parent="4RHJqd0osJH49P0sFGW8-12" vertex="1">
          <mxGeometry y="26" width="290" height="8" as="geometry" />
        </mxCell>
        <mxCell id="rz-6T8RquUPtFqDJdESo-3" value="+ put(&#xa;    dto: PutReportDto,&#xa;    login: string,&#xa;    password: string,&#xa;): Report" style="text;strokeColor=none;fillColor=none;align=left;verticalAlign=top;spacingLeft=4;spacingRight=4;overflow=hidden;rotatable=0;points=[[0,0.5],[1,0.5]];portConstraint=eastwest;fontSize=15;fontFamily=Helvetica;fontColor=rgb(0, 0, 0);" parent="4RHJqd0osJH49P0sFGW8-12" vertex="1">
          <mxGeometry y="34" width="290" height="106" as="geometry" />
        </mxCell>
        <mxCell id="4RHJqd0osJH49P0sFGW8-24" value="&lt;i&gt;IFilmRepository&lt;/i&gt;" style="swimlane;fontStyle=1;align=center;verticalAlign=top;childLayout=stackLayout;horizontal=1;startSize=26;horizontalStack=0;resizeParent=1;resizeParentMax=0;resizeLast=0;collapsible=1;marginBottom=0;strokeColor=rgb(0, 0, 0);fontFamily=Helvetica;fontSize=15;fontColor=rgb(0, 0, 0);fillColor=rgb(255, 255, 255);html=1;swimlaneLine=0;" parent="1" vertex="1">
          <mxGeometry x="371" y="2219" width="260" height="186" as="geometry" />
        </mxCell>
        <mxCell id="4RHJqd0osJH49P0sFGW8-25" value="" style="line;strokeWidth=1;fillColor=none;align=left;verticalAlign=middle;spacingTop=-1;spacingLeft=3;spacingRight=3;rotatable=0;labelPosition=right;points=[];portConstraint=eastwest;strokeColor=inherit;fontFamily=Helvetica;fontSize=15;fontColor=rgb(0, 0, 0);html=1;" parent="4RHJqd0osJH49P0sFGW8-24" vertex="1">
          <mxGeometry y="26" width="260" height="8" as="geometry" />
        </mxCell>
        <mxCell id="1P7DDNBLp40ltK4kkGiz-6" value="+ update(dto: UpdateFilmDto): &#xa;Promise&lt;Film&gt;" style="text;strokeColor=none;fillColor=none;align=left;verticalAlign=top;spacingLeft=4;spacingRight=4;overflow=hidden;rotatable=0;points=[[0,0.5],[1,0.5]];portConstraint=eastwest;fontSize=15;fontFamily=Helvetica;fontColor=rgb(0, 0, 0);" parent="4RHJqd0osJH49P0sFGW8-24" vertex="1">
          <mxGeometry y="34" width="260" height="40" as="geometry" />
        </mxCell>
        <mxCell id="1P7DDNBLp40ltK4kkGiz-8" value="+ findMany(skip?: number,&#xa;    take?: number&#xa;): Promise&lt;Film[]&gt;" style="text;strokeColor=none;fillColor=none;align=left;verticalAlign=top;spacingLeft=4;spacingRight=4;overflow=hidden;rotatable=0;points=[[0,0.5],[1,0.5]];portConstraint=eastwest;fontSize=15;fontFamily=Helvetica;fontColor=rgb(0, 0, 0);" parent="4RHJqd0osJH49P0sFGW8-24" vertex="1">
          <mxGeometry y="74" width="260" height="66" as="geometry" />
        </mxCell>
        <mxCell id="1P7DDNBLp40ltK4kkGiz-7" value="+ getOneWithDetails(uuid: string): &#xa;Promise&lt;Film&gt;" style="text;strokeColor=none;fillColor=none;align=left;verticalAlign=top;spacingLeft=4;spacingRight=4;overflow=hidden;rotatable=0;points=[[0,0.5],[1,0.5]];portConstraint=eastwest;fontSize=15;fontFamily=Helvetica;fontColor=rgb(0, 0, 0);" parent="4RHJqd0osJH49P0sFGW8-24" vertex="1">
          <mxGeometry y="140" width="260" height="46" as="geometry" />
        </mxCell>
        <mxCell id="4RHJqd0osJH49P0sFGW8-28" value="&lt;i&gt;IReportRepository&lt;/i&gt;" style="swimlane;fontStyle=1;align=center;verticalAlign=top;childLayout=stackLayout;horizontal=1;startSize=26;horizontalStack=0;resizeParent=1;resizeParentMax=0;resizeLast=0;collapsible=1;marginBottom=0;strokeColor=rgb(0, 0, 0);fontFamily=Helvetica;fontSize=15;fontColor=rgb(0, 0, 0);fillColor=rgb(255, 255, 255);html=1;swimlaneLine=0;" parent="1" vertex="1">
          <mxGeometry x="285" y="815" width="355" height="150" as="geometry" />
        </mxCell>
        <mxCell id="4RHJqd0osJH49P0sFGW8-29" value="" style="line;strokeWidth=1;fillColor=none;align=left;verticalAlign=middle;spacingTop=-1;spacingLeft=3;spacingRight=3;rotatable=0;labelPosition=right;points=[];portConstraint=eastwest;strokeColor=inherit;fontFamily=Helvetica;fontSize=15;fontColor=rgb(0, 0, 0);html=1;" parent="4RHJqd0osJH49P0sFGW8-28" vertex="1">
          <mxGeometry y="26" width="355" height="8" as="geometry" />
        </mxCell>
        <mxCell id="1P7DDNBLp40ltK4kkGiz-9" value="+ save(report: Report): Promise&lt;Report&gt;" style="text;strokeColor=none;fillColor=none;align=left;verticalAlign=top;spacingLeft=4;spacingRight=4;overflow=hidden;rotatable=0;points=[[0,0.5],[1,0.5]];portConstraint=eastwest;fontSize=15;fontFamily=Helvetica;fontColor=rgb(0, 0, 0);" parent="4RHJqd0osJH49P0sFGW8-28" vertex="1">
          <mxGeometry y="34" width="355" height="26" as="geometry" />
        </mxCell>
        <mxCell id="1P7DDNBLp40ltK4kkGiz-10" value="+ update(dto: UpdateReportDto): Promise&lt;Report&gt;" style="text;strokeColor=none;fillColor=none;align=left;verticalAlign=top;spacingLeft=4;spacingRight=4;overflow=hidden;rotatable=0;points=[[0,0.5],[1,0.5]];portConstraint=eastwest;fontSize=15;fontFamily=Helvetica;fontColor=rgb(0, 0, 0);" parent="4RHJqd0osJH49P0sFGW8-28" vertex="1">
          <mxGeometry y="60" width="355" height="30" as="geometry" />
        </mxCell>
        <mxCell id="1P7DDNBLp40ltK4kkGiz-11" value="+ findOneByUserAndFilm(userUuid: string,&#xa;    filmUuid: string&#xa;): Promise&lt;Report&gt;" style="text;strokeColor=none;fillColor=none;align=left;verticalAlign=top;spacingLeft=4;spacingRight=4;overflow=hidden;rotatable=0;points=[[0,0.5],[1,0.5]];portConstraint=eastwest;fontSize=15;fontFamily=Helvetica;fontColor=rgb(0, 0, 0);" parent="4RHJqd0osJH49P0sFGW8-28" vertex="1">
          <mxGeometry y="90" width="355" height="60" as="geometry" />
        </mxCell>
        <mxCell id="4RHJqd0osJH49P0sFGW8-48" value="CreateReportDto" style="swimlane;fontStyle=1;align=center;verticalAlign=top;childLayout=stackLayout;horizontal=1;startSize=26;horizontalStack=0;resizeParent=1;resizeParentMax=0;resizeLast=0;collapsible=1;marginBottom=0;strokeColor=rgb(0, 0, 0);fontFamily=Helvetica;fontSize=15;fontColor=rgb(0, 0, 0);fillColor=rgb(255, 255, 255);html=1;swimlaneLine=0;" parent="1" vertex="1">
          <mxGeometry x="-1060" y="253" width="290" height="164" as="geometry" />
        </mxCell>
        <mxCell id="4RHJqd0osJH49P0sFGW8-49" value="" style="line;strokeWidth=1;fillColor=none;align=left;verticalAlign=middle;spacingTop=-1;spacingLeft=3;spacingRight=3;rotatable=0;labelPosition=right;points=[];portConstraint=eastwest;strokeColor=inherit;fontFamily=Helvetica;fontSize=15;fontColor=rgb(0, 0, 0);html=1;" parent="4RHJqd0osJH49P0sFGW8-48" vertex="1">
          <mxGeometry y="26" width="290" height="8" as="geometry" />
        </mxCell>
        <mxCell id="4RHJqd0osJH49P0sFGW8-50" value="+ content: string" style="text;strokeColor=none;fillColor=none;align=left;verticalAlign=top;spacingLeft=4;spacingRight=4;overflow=hidden;rotatable=0;points=[[0,0.5],[1,0.5]];portConstraint=eastwest;fontSize=15;fontFamily=Helvetica;fontColor=rgb(0, 0, 0);" parent="4RHJqd0osJH49P0sFGW8-48" vertex="1">
          <mxGeometry y="34" width="290" height="26" as="geometry" />
        </mxCell>
        <mxCell id="4RHJqd0osJH49P0sFGW8-51" value="+ userUuid: number" style="text;strokeColor=none;fillColor=none;align=left;verticalAlign=top;spacingLeft=4;spacingRight=4;overflow=hidden;rotatable=0;points=[[0,0.5],[1,0.5]];portConstraint=eastwest;fontSize=15;fontFamily=Helvetica;fontColor=rgb(0, 0, 0);" parent="4RHJqd0osJH49P0sFGW8-48" vertex="1">
          <mxGeometry y="60" width="290" height="26" as="geometry" />
        </mxCell>
        <mxCell id="4RHJqd0osJH49P0sFGW8-60" value="+ filmUuid: number" style="text;strokeColor=none;fillColor=none;align=left;verticalAlign=top;spacingLeft=4;spacingRight=4;overflow=hidden;rotatable=0;points=[[0,0.5],[1,0.5]];portConstraint=eastwest;fontSize=15;fontFamily=Helvetica;fontColor=rgb(0, 0, 0);" parent="4RHJqd0osJH49P0sFGW8-48" vertex="1">
          <mxGeometry y="86" width="290" height="26" as="geometry" />
        </mxCell>
        <mxCell id="rz-6T8RquUPtFqDJdESo-6" value="+ plotRate?: number" style="text;strokeColor=none;fillColor=none;align=left;verticalAlign=top;spacingLeft=4;spacingRight=4;overflow=hidden;rotatable=0;points=[[0,0.5],[1,0.5]];portConstraint=eastwest;fontSize=15;fontFamily=Helvetica;fontColor=rgb(0, 0, 0);" parent="4RHJqd0osJH49P0sFGW8-48" vertex="1">
          <mxGeometry y="112" width="290" height="26" as="geometry" />
        </mxCell>
        <mxCell id="rz-6T8RquUPtFqDJdESo-7" value="+ actorPlayRate?: number" style="text;strokeColor=none;fillColor=none;align=left;verticalAlign=top;spacingLeft=4;spacingRight=4;overflow=hidden;rotatable=0;points=[[0,0.5],[1,0.5]];portConstraint=eastwest;fontSize=15;fontFamily=Helvetica;fontColor=rgb(0, 0, 0);" parent="4RHJqd0osJH49P0sFGW8-48" vertex="1">
          <mxGeometry y="138" width="290" height="26" as="geometry" />
        </mxCell>
        <mxCell id="4RHJqd0osJH49P0sFGW8-52" value="Use" style="endArrow=open;endSize=12;dashed=1;html=1;rounded=0;" parent="1" source="4RHJqd0osJH49P0sFGW8-12" target="4RHJqd0osJH49P0sFGW8-48" edge="1">
          <mxGeometry width="160" relative="1" as="geometry">
            <mxPoint y="173.58571428571418" as="sourcePoint" />
            <mxPoint x="-60" y="173.4142857142856" as="targetPoint" />
            <Array as="points">
              <mxPoint x="-390" y="890" />
              <mxPoint x="-390" y="340" />
            </Array>
          </mxGeometry>
        </mxCell>
        <mxCell id="4RHJqd0osJH49P0sFGW8-61" value="UpdateReportDto" style="swimlane;fontStyle=1;align=center;verticalAlign=top;childLayout=stackLayout;horizontal=1;startSize=26;horizontalStack=0;resizeParent=1;resizeParentMax=0;resizeLast=0;collapsible=1;marginBottom=0;strokeColor=rgb(0, 0, 0);fontFamily=Helvetica;fontSize=15;fontColor=rgb(0, 0, 0);fillColor=rgb(255, 255, 255);html=1;swimlaneLine=0;" parent="1" vertex="1">
          <mxGeometry x="-1060" y="440" width="290" height="216" as="geometry" />
        </mxCell>
        <mxCell id="4RHJqd0osJH49P0sFGW8-62" value="" style="line;strokeWidth=1;fillColor=none;align=left;verticalAlign=middle;spacingTop=-1;spacingLeft=3;spacingRight=3;rotatable=0;labelPosition=right;points=[];portConstraint=eastwest;strokeColor=inherit;fontFamily=Helvetica;fontSize=15;fontColor=rgb(0, 0, 0);html=1;" parent="4RHJqd0osJH49P0sFGW8-61" vertex="1">
          <mxGeometry y="26" width="290" height="8" as="geometry" />
        </mxCell>
        <mxCell id="1P7DDNBLp40ltK4kkGiz-13" value="+ uuid: string" style="text;strokeColor=none;fillColor=none;align=left;verticalAlign=top;spacingLeft=4;spacingRight=4;overflow=hidden;rotatable=0;points=[[0,0.5],[1,0.5]];portConstraint=eastwest;fontSize=15;fontFamily=Helvetica;fontColor=rgb(0, 0, 0);" parent="4RHJqd0osJH49P0sFGW8-61" vertex="1">
          <mxGeometry y="34" width="290" height="26" as="geometry" />
        </mxCell>
        <mxCell id="4RHJqd0osJH49P0sFGW8-63" value="+ content?: string" style="text;strokeColor=none;fillColor=none;align=left;verticalAlign=top;spacingLeft=4;spacingRight=4;overflow=hidden;rotatable=0;points=[[0,0.5],[1,0.5]];portConstraint=eastwest;fontSize=15;fontFamily=Helvetica;fontColor=rgb(0, 0, 0);" parent="4RHJqd0osJH49P0sFGW8-61" vertex="1">
          <mxGeometry y="60" width="290" height="26" as="geometry" />
        </mxCell>
        <mxCell id="4RHJqd0osJH49P0sFGW8-64" value="+ userUuid: string" style="text;strokeColor=none;fillColor=none;align=left;verticalAlign=top;spacingLeft=4;spacingRight=4;overflow=hidden;rotatable=0;points=[[0,0.5],[1,0.5]];portConstraint=eastwest;fontSize=15;fontFamily=Helvetica;fontColor=rgb(0, 0, 0);" parent="4RHJqd0osJH49P0sFGW8-61" vertex="1">
          <mxGeometry y="86" width="290" height="26" as="geometry" />
        </mxCell>
        <mxCell id="4RHJqd0osJH49P0sFGW8-65" value="+ filmUuid: number" style="text;strokeColor=none;fillColor=none;align=left;verticalAlign=top;spacingLeft=4;spacingRight=4;overflow=hidden;rotatable=0;points=[[0,0.5],[1,0.5]];portConstraint=eastwest;fontSize=15;fontFamily=Helvetica;fontColor=rgb(0, 0, 0);" parent="4RHJqd0osJH49P0sFGW8-61" vertex="1">
          <mxGeometry y="112" width="290" height="26" as="geometry" />
        </mxCell>
        <mxCell id="rz-6T8RquUPtFqDJdESo-5" value="+ actorPlayRate?: number" style="text;strokeColor=none;fillColor=none;align=left;verticalAlign=top;spacingLeft=4;spacingRight=4;overflow=hidden;rotatable=0;points=[[0,0.5],[1,0.5]];portConstraint=eastwest;fontSize=15;fontFamily=Helvetica;fontColor=rgb(0, 0, 0);" parent="4RHJqd0osJH49P0sFGW8-61" vertex="1">
          <mxGeometry y="138" width="290" height="26" as="geometry" />
        </mxCell>
        <mxCell id="rz-6T8RquUPtFqDJdESo-4" value="+ plotRate?: number" style="text;strokeColor=none;fillColor=none;align=left;verticalAlign=top;spacingLeft=4;spacingRight=4;overflow=hidden;rotatable=0;points=[[0,0.5],[1,0.5]];portConstraint=eastwest;fontSize=15;fontFamily=Helvetica;fontColor=rgb(0, 0, 0);" parent="4RHJqd0osJH49P0sFGW8-61" vertex="1">
          <mxGeometry y="164" width="290" height="26" as="geometry" />
        </mxCell>
        <mxCell id="1P7DDNBLp40ltK4kkGiz-12" value="+ rate?: number" style="text;strokeColor=none;fillColor=none;align=left;verticalAlign=top;spacingLeft=4;spacingRight=4;overflow=hidden;rotatable=0;points=[[0,0.5],[1,0.5]];portConstraint=eastwest;fontSize=15;fontFamily=Helvetica;fontColor=rgb(0, 0, 0);" parent="4RHJqd0osJH49P0sFGW8-61" vertex="1">
          <mxGeometry y="190" width="290" height="26" as="geometry" />
        </mxCell>
        <mxCell id="4RHJqd0osJH49P0sFGW8-66" value="Use" style="endArrow=open;endSize=12;dashed=1;html=1;rounded=0;" parent="1" source="4RHJqd0osJH49P0sFGW8-12" target="4RHJqd0osJH49P0sFGW8-61" edge="1">
          <mxGeometry width="160" relative="1" as="geometry">
            <mxPoint x="20" y="366.75675675675666" as="sourcePoint" />
            <mxPoint x="-60" y="357.24324324324334" as="targetPoint" />
            <Array as="points">
              <mxPoint x="-390" y="890" />
              <mxPoint x="-390" y="548" />
            </Array>
          </mxGeometry>
        </mxCell>
        <mxCell id="4RHJqd0osJH49P0sFGW8-77" value="&lt;i&gt;IEntityMapper&amp;lt;TM, TE&amp;gt;&lt;/i&gt;" style="swimlane;fontStyle=1;align=center;verticalAlign=top;childLayout=stackLayout;horizontal=1;startSize=26;horizontalStack=0;resizeParent=1;resizeParentMax=0;resizeLast=0;collapsible=1;marginBottom=0;strokeColor=rgb(0, 0, 0);fontFamily=Helvetica;fontSize=15;fontColor=rgb(0, 0, 0);fillColor=rgb(255, 255, 255);html=1;swimlaneLine=0;" parent="1" vertex="1">
          <mxGeometry x="1370" y="480" width="230" height="86" as="geometry" />
        </mxCell>
        <mxCell id="4RHJqd0osJH49P0sFGW8-78" value="" style="line;strokeWidth=1;fillColor=none;align=left;verticalAlign=middle;spacingTop=-1;spacingLeft=3;spacingRight=3;rotatable=0;labelPosition=right;points=[];portConstraint=eastwest;strokeColor=inherit;fontFamily=Helvetica;fontSize=15;fontColor=rgb(0, 0, 0);html=1;" parent="4RHJqd0osJH49P0sFGW8-77" vertex="1">
          <mxGeometry y="26" width="230" height="8" as="geometry" />
        </mxCell>
        <mxCell id="4RHJqd0osJH49P0sFGW8-79" value="+ toEntity(m: TM): TE" style="text;strokeColor=none;fillColor=none;align=left;verticalAlign=top;spacingLeft=4;spacingRight=4;overflow=hidden;rotatable=0;points=[[0,0.5],[1,0.5]];portConstraint=eastwest;fontSize=15;fontFamily=Helvetica;fontColor=rgb(0, 0, 0);" parent="4RHJqd0osJH49P0sFGW8-77" vertex="1">
          <mxGeometry y="34" width="230" height="26" as="geometry" />
        </mxCell>
        <mxCell id="4RHJqd0osJH49P0sFGW8-80" value="+ toModel(e: TE): TM" style="text;strokeColor=none;fillColor=none;align=left;verticalAlign=top;spacingLeft=4;spacingRight=4;overflow=hidden;rotatable=0;points=[[0,0.5],[1,0.5]];portConstraint=eastwest;fontSize=15;fontFamily=Helvetica;fontColor=rgb(0, 0, 0);" parent="4RHJqd0osJH49P0sFGW8-77" vertex="1">
          <mxGeometry y="60" width="230" height="26" as="geometry" />
        </mxCell>
        <mxCell id="_5MGRQRnhBBebKLjUCit-1" value="ActorEntityMapper" style="swimlane;fontStyle=1;align=center;verticalAlign=top;childLayout=stackLayout;horizontal=1;startSize=26;horizontalStack=0;resizeParent=1;resizeParentMax=0;resizeLast=0;collapsible=1;marginBottom=0;strokeColor=rgb(0, 0, 0);fontFamily=Helvetica;fontSize=15;fontColor=rgb(0, 0, 0);fillColor=rgb(255, 255, 255);html=1;swimlaneLine=0;" parent="1" vertex="1">
          <mxGeometry x="1074" y="2263" width="350" height="86" as="geometry" />
        </mxCell>
        <mxCell id="_5MGRQRnhBBebKLjUCit-2" value="" style="line;strokeWidth=1;fillColor=none;align=left;verticalAlign=middle;spacingTop=-1;spacingLeft=3;spacingRight=3;rotatable=0;labelPosition=right;points=[];portConstraint=eastwest;strokeColor=inherit;fontFamily=Helvetica;fontSize=15;fontColor=rgb(0, 0, 0);html=1;" parent="_5MGRQRnhBBebKLjUCit-1" vertex="1">
          <mxGeometry y="26" width="350" height="8" as="geometry" />
        </mxCell>
        <mxCell id="_5MGRQRnhBBebKLjUCit-3" value="+ toEntity(m: Actor): ActorEntity" style="text;strokeColor=none;fillColor=none;align=left;verticalAlign=top;spacingLeft=4;spacingRight=4;overflow=hidden;rotatable=0;points=[[0,0.5],[1,0.5]];portConstraint=eastwest;fontSize=15;fontFamily=Helvetica;fontColor=rgb(0, 0, 0);" parent="_5MGRQRnhBBebKLjUCit-1" vertex="1">
          <mxGeometry y="34" width="350" height="26" as="geometry" />
        </mxCell>
        <mxCell id="_5MGRQRnhBBebKLjUCit-4" value="+ toModel(e: ActorEntity): Actor" style="text;strokeColor=none;fillColor=none;align=left;verticalAlign=top;spacingLeft=4;spacingRight=4;overflow=hidden;rotatable=0;points=[[0,0.5],[1,0.5]];portConstraint=eastwest;fontSize=15;fontFamily=Helvetica;fontColor=rgb(0, 0, 0);" parent="_5MGRQRnhBBebKLjUCit-1" vertex="1">
          <mxGeometry y="60" width="350" height="26" as="geometry" />
        </mxCell>
        <mxCell id="_5MGRQRnhBBebKLjUCit-9" value="" style="endArrow=block;dashed=1;endFill=0;endSize=12;html=1;rounded=0;fontFamily=Helvetica;fontSize=15;fontColor=rgb(0, 0, 0);edgeStyle=orthogonalEdgeStyle;" parent="1" source="_5MGRQRnhBBebKLjUCit-1" target="4RHJqd0osJH49P0sFGW8-77" edge="1">
          <mxGeometry width="160" relative="1" as="geometry">
            <mxPoint x="1237.8611111111113" y="1982.9999999999998" as="sourcePoint" />
            <mxPoint x="1278.1388888888887" y="1925" as="targetPoint" />
            <Array as="points">
              <mxPoint x="1498" y="2306" />
            </Array>
          </mxGeometry>
        </mxCell>
        <mxCell id="_5MGRQRnhBBebKLjUCit-11" value="CompanyEntityMapper" style="swimlane;fontStyle=1;align=center;verticalAlign=top;childLayout=stackLayout;horizontal=1;startSize=26;horizontalStack=0;resizeParent=1;resizeParentMax=0;resizeLast=0;collapsible=1;marginBottom=0;strokeColor=rgb(0, 0, 0);fontFamily=Helvetica;fontSize=15;fontColor=rgb(0, 0, 0);fillColor=rgb(255, 255, 255);html=1;swimlaneLine=0;" parent="1" vertex="1">
          <mxGeometry x="1044" y="2127" width="350" height="86" as="geometry" />
        </mxCell>
        <mxCell id="_5MGRQRnhBBebKLjUCit-12" value="" style="line;strokeWidth=1;fillColor=none;align=left;verticalAlign=middle;spacingTop=-1;spacingLeft=3;spacingRight=3;rotatable=0;labelPosition=right;points=[];portConstraint=eastwest;strokeColor=inherit;fontFamily=Helvetica;fontSize=15;fontColor=rgb(0, 0, 0);html=1;" parent="_5MGRQRnhBBebKLjUCit-11" vertex="1">
          <mxGeometry y="26" width="350" height="8" as="geometry" />
        </mxCell>
        <mxCell id="_5MGRQRnhBBebKLjUCit-13" value="+ toEntity(m: Company): CompanyEntity" style="text;strokeColor=none;fillColor=none;align=left;verticalAlign=top;spacingLeft=4;spacingRight=4;overflow=hidden;rotatable=0;points=[[0,0.5],[1,0.5]];portConstraint=eastwest;fontSize=15;fontFamily=Helvetica;fontColor=rgb(0, 0, 0);" parent="_5MGRQRnhBBebKLjUCit-11" vertex="1">
          <mxGeometry y="34" width="350" height="26" as="geometry" />
        </mxCell>
        <mxCell id="_5MGRQRnhBBebKLjUCit-14" value="+ toModel(e: CompanyEntity): Company" style="text;strokeColor=none;fillColor=none;align=left;verticalAlign=top;spacingLeft=4;spacingRight=4;overflow=hidden;rotatable=0;points=[[0,0.5],[1,0.5]];portConstraint=eastwest;fontSize=15;fontFamily=Helvetica;fontColor=rgb(0, 0, 0);" parent="_5MGRQRnhBBebKLjUCit-11" vertex="1">
          <mxGeometry y="60" width="350" height="26" as="geometry" />
        </mxCell>
        <mxCell id="_5MGRQRnhBBebKLjUCit-20" value="Use" style="endArrow=open;endSize=12;dashed=1;html=1;rounded=0;" parent="1" source="SuEEhrRADwr3MYmqWTas-57" target="_5MGRQRnhBBebKLjUCit-1" edge="1">
          <mxGeometry width="160" relative="1" as="geometry">
            <mxPoint x="954" y="1794.8333333333333" as="sourcePoint" />
            <mxPoint x="1034" y="1838.7575757575755" as="targetPoint" />
          </mxGeometry>
        </mxCell>
        <mxCell id="_5MGRQRnhBBebKLjUCit-21" value="Use" style="endArrow=open;endSize=12;dashed=1;html=1;rounded=0;edgeStyle=orthogonalEdgeStyle;" parent="1" source="SuEEhrRADwr3MYmqWTas-57" target="_5MGRQRnhBBebKLjUCit-11" edge="1">
          <mxGeometry width="160" relative="1" as="geometry">
            <mxPoint x="860.9626168224304" y="1893" as="sourcePoint" />
            <mxPoint x="1099.070422535211" y="1856" as="targetPoint" />
            <Array as="points">
              <mxPoint x="884" y="2170" />
            </Array>
          </mxGeometry>
        </mxCell>
        <mxCell id="_5MGRQRnhBBebKLjUCit-24" value="UpdateFilmDto" style="swimlane;fontStyle=1;align=center;verticalAlign=top;childLayout=stackLayout;horizontal=1;startSize=26;horizontalStack=0;resizeParent=1;resizeParentMax=0;resizeLast=0;collapsible=1;marginBottom=0;strokeColor=rgb(0, 0, 0);fontFamily=Helvetica;fontSize=15;fontColor=rgb(0, 0, 0);fillColor=rgb(255, 255, 255);html=1;swimlaneLine=0;" parent="1" vertex="1">
          <mxGeometry x="4" y="2587" width="290" height="86" as="geometry" />
        </mxCell>
        <mxCell id="_5MGRQRnhBBebKLjUCit-25" value="" style="line;strokeWidth=1;fillColor=none;align=left;verticalAlign=middle;spacingTop=-1;spacingLeft=3;spacingRight=3;rotatable=0;labelPosition=right;points=[];portConstraint=eastwest;strokeColor=inherit;fontFamily=Helvetica;fontSize=15;fontColor=rgb(0, 0, 0);html=1;" parent="_5MGRQRnhBBebKLjUCit-24" vertex="1">
          <mxGeometry y="26" width="290" height="8" as="geometry" />
        </mxCell>
        <mxCell id="_5MGRQRnhBBebKLjUCit-29" value="+ uuid: string;" style="text;strokeColor=none;fillColor=none;align=left;verticalAlign=top;spacingLeft=4;spacingRight=4;overflow=hidden;rotatable=0;points=[[0,0.5],[1,0.5]];portConstraint=eastwest;fontSize=15;fontFamily=Helvetica;fontColor=rgb(0, 0, 0);" parent="_5MGRQRnhBBebKLjUCit-24" vertex="1">
          <mxGeometry y="34" width="290" height="26" as="geometry" />
        </mxCell>
        <mxCell id="2iII4kuZC04SP8r0jxeM-51" value="+ description?: string" style="text;strokeColor=none;fillColor=none;align=left;verticalAlign=top;spacingLeft=4;spacingRight=4;overflow=hidden;rotatable=0;points=[[0,0.5],[1,0.5]];portConstraint=eastwest;fontSize=15;fontFamily=Helvetica;fontColor=rgb(0, 0, 0);" parent="_5MGRQRnhBBebKLjUCit-24" vertex="1">
          <mxGeometry y="60" width="290" height="26" as="geometry" />
        </mxCell>
        <mxCell id="_5MGRQRnhBBebKLjUCit-30" value="Use" style="endArrow=open;endSize=12;dashed=1;html=1;rounded=0;" parent="1" source="4RHJqd0osJH49P0sFGW8-9" target="_5MGRQRnhBBebKLjUCit-24" edge="1">
          <mxGeometry width="160" relative="1" as="geometry">
            <mxPoint x="-196" y="2396.162162162162" as="sourcePoint" />
            <mxPoint x="-161.85714285714266" y="2515" as="targetPoint" />
            <Array as="points" />
          </mxGeometry>
        </mxCell>
        <mxCell id="_5MGRQRnhBBebKLjUCit-37" value="Use" style="endArrow=open;endSize=12;dashed=1;html=1;rounded=0;" parent="1" source="SuEEhrRADwr3MYmqWTas-138" target="2iII4kuZC04SP8r0jxeM-76" edge="1">
          <mxGeometry width="160" relative="1" as="geometry">
            <mxPoint x="994" y="2174.8181818181815" as="sourcePoint" />
            <mxPoint x="1574" y="2290" as="targetPoint" />
          </mxGeometry>
        </mxCell>
        <mxCell id="_5MGRQRnhBBebKLjUCit-40" value="Use" style="endArrow=open;endSize=12;dashed=1;html=1;rounded=0;" parent="1" source="gNh8933dBvDf4b6JsseC-7" target="2iII4kuZC04SP8r0jxeM-59" edge="1">
          <mxGeometry width="160" relative="1" as="geometry">
            <mxPoint x="1310" y="562.1851851851848" as="sourcePoint" />
            <mxPoint x="1410" y="576.2592592592591" as="targetPoint" />
          </mxGeometry>
        </mxCell>
        <mxCell id="_5MGRQRnhBBebKLjUCit-45" value="Use" style="endArrow=open;endSize=12;dashed=1;html=1;rounded=0;" parent="1" source="_5MGRQRnhBBebKLjUCit-11" target="2iII4kuZC04SP8r0jxeM-85" edge="1">
          <mxGeometry width="160" relative="1" as="geometry">
            <mxPoint x="1294" y="2154.9166666666665" as="sourcePoint" />
            <mxPoint x="1364" y="2156.0833333333335" as="targetPoint" />
          </mxGeometry>
        </mxCell>
        <mxCell id="_5MGRQRnhBBebKLjUCit-46" value="Use" style="endArrow=open;endSize=12;dashed=1;html=1;rounded=0;" parent="1" source="_5MGRQRnhBBebKLjUCit-1" target="2iII4kuZC04SP8r0jxeM-69" edge="1">
          <mxGeometry width="160" relative="1" as="geometry">
            <mxPoint x="1384" y="1655.8124999999998" as="sourcePoint" />
            <mxPoint x="1574" y="2154.475" as="targetPoint" />
          </mxGeometry>
        </mxCell>
        <mxCell id="E0hOvBcrMat7tSrnWXjG-10" value="Use" style="endArrow=open;endSize=12;dashed=1;html=1;rounded=0;" parent="1" source="4RHJqd0osJH49P0sFGW8-9" target="2iII4kuZC04SP8r0jxeM-33" edge="1">
          <mxGeometry width="160" relative="1" as="geometry">
            <mxPoint x="263.00000000000045" y="2394.128760529483" as="sourcePoint" />
            <mxPoint x="330.8055555555552" y="2309" as="targetPoint" />
            <Array as="points" />
          </mxGeometry>
        </mxCell>
        <mxCell id="rz-6T8RquUPtFqDJdESo-2" value="" style="endArrow=block;dashed=1;endFill=0;endSize=12;html=1;rounded=0;fontFamily=Helvetica;fontSize=15;fontColor=rgb(0, 0, 0);edgeStyle=orthogonalEdgeStyle;" parent="1" source="gNh8933dBvDf4b6JsseC-7" target="4RHJqd0osJH49P0sFGW8-77" edge="1">
          <mxGeometry width="160" relative="1" as="geometry">
            <mxPoint x="1239.4295302013425" y="237" as="sourcePoint" />
            <mxPoint x="1360.5704697986575" y="-124" as="targetPoint" />
            <Array as="points">
              <mxPoint x="1500" y="875" />
            </Array>
          </mxGeometry>
        </mxCell>
        <mxCell id="rz-6T8RquUPtFqDJdESo-9" value="" style="endArrow=diamondThin;endFill=0;endSize=24;html=1;rounded=0;" parent="1" source="2iII4kuZC04SP8r0jxeM-33" target="2iII4kuZC04SP8r0jxeM-25" edge="1">
          <mxGeometry width="160" relative="1" as="geometry">
            <mxPoint x="374" y="2529" as="sourcePoint" />
            <mxPoint x="534" y="2529" as="targetPoint" />
          </mxGeometry>
        </mxCell>
        <mxCell id="rz-6T8RquUPtFqDJdESo-10" value="" style="endArrow=diamondThin;endFill=0;endSize=24;html=1;rounded=0;" parent="1" source="2iII4kuZC04SP8r0jxeM-33" target="2iII4kuZC04SP8r0jxeM-40" edge="1">
          <mxGeometry width="160" relative="1" as="geometry">
            <mxPoint x="446.29166666666697" y="2199" as="sourcePoint" />
            <mxPoint x="311" y="2057" as="targetPoint" />
          </mxGeometry>
        </mxCell>
        <mxCell id="rz-6T8RquUPtFqDJdESo-23" value="UserEntityMapper" style="swimlane;fontStyle=1;align=center;verticalAlign=top;childLayout=stackLayout;horizontal=1;startSize=26;horizontalStack=0;resizeParent=1;resizeParentMax=0;resizeLast=0;collapsible=1;marginBottom=0;strokeColor=rgb(0, 0, 0);fontFamily=Helvetica;fontSize=15;fontColor=rgb(0, 0, 0);fillColor=rgb(255, 255, 255);html=1;swimlaneLine=0;" parent="1" vertex="1">
          <mxGeometry x="1090" y="1295" width="280" height="86" as="geometry" />
        </mxCell>
        <mxCell id="rz-6T8RquUPtFqDJdESo-24" value="" style="line;strokeWidth=1;fillColor=none;align=left;verticalAlign=middle;spacingTop=-1;spacingLeft=3;spacingRight=3;rotatable=0;labelPosition=right;points=[];portConstraint=eastwest;strokeColor=inherit;fontFamily=Helvetica;fontSize=15;fontColor=rgb(0, 0, 0);html=1;" parent="rz-6T8RquUPtFqDJdESo-23" vertex="1">
          <mxGeometry y="26" width="280" height="8" as="geometry" />
        </mxCell>
        <mxCell id="rz-6T8RquUPtFqDJdESo-25" value="+ toEntity(m: User): UserEntity" style="text;strokeColor=none;fillColor=none;align=left;verticalAlign=top;spacingLeft=4;spacingRight=4;overflow=hidden;rotatable=0;points=[[0,0.5],[1,0.5]];portConstraint=eastwest;fontSize=15;fontFamily=Helvetica;fontColor=rgb(0, 0, 0);" parent="rz-6T8RquUPtFqDJdESo-23" vertex="1">
          <mxGeometry y="34" width="280" height="26" as="geometry" />
        </mxCell>
        <mxCell id="rz-6T8RquUPtFqDJdESo-26" value="+ toModel(e: UserEntity): User" style="text;strokeColor=none;fillColor=none;align=left;verticalAlign=top;spacingLeft=4;spacingRight=4;overflow=hidden;rotatable=0;points=[[0,0.5],[1,0.5]];portConstraint=eastwest;fontSize=15;fontFamily=Helvetica;fontColor=rgb(0, 0, 0);" parent="rz-6T8RquUPtFqDJdESo-23" vertex="1">
          <mxGeometry y="60" width="280" height="26" as="geometry" />
        </mxCell>
        <mxCell id="rz-6T8RquUPtFqDJdESo-27" value="Use" style="endArrow=open;endSize=12;dashed=1;html=1;rounded=0;" parent="1" source="rz-6T8RquUPtFqDJdESo-23" target="2iII4kuZC04SP8r0jxeM-54" edge="1">
          <mxGeometry width="160" relative="1" as="geometry">
            <mxPoint x="1220" y="876" as="sourcePoint" />
            <mxPoint x="1620" y="1094.7471264367819" as="targetPoint" />
          </mxGeometry>
        </mxCell>
        <mxCell id="rz-6T8RquUPtFqDJdESo-28" value="" style="endArrow=block;dashed=1;endFill=0;endSize=12;html=1;rounded=0;fontFamily=Helvetica;fontSize=15;fontColor=rgb(0, 0, 0);edgeStyle=orthogonalEdgeStyle;" parent="1" source="rz-6T8RquUPtFqDJdESo-23" target="4RHJqd0osJH49P0sFGW8-77" edge="1">
          <mxGeometry width="160" relative="1" as="geometry">
            <mxPoint x="1360" y="392.99999999999955" as="sourcePoint" />
            <mxPoint x="1555" y="-84" as="targetPoint" />
            <Array as="points">
              <mxPoint x="1500" y="1130" />
            </Array>
          </mxGeometry>
        </mxCell>
        <mxCell id="rz-6T8RquUPtFqDJdESo-29" value="UserRepository" style="swimlane;fontStyle=1;align=center;verticalAlign=top;childLayout=stackLayout;horizontal=1;startSize=26;horizontalStack=0;resizeParent=1;resizeParentMax=0;resizeLast=0;collapsible=1;marginBottom=0;strokeColor=rgb(0, 0, 0);fontFamily=Helvetica;fontSize=15;fontColor=rgb(0, 0, 0);fillColor=rgb(255, 255, 255);html=1;swimlaneLine=0;" parent="1" vertex="1">
          <mxGeometry x="710" y="1290" width="310" height="120" as="geometry" />
        </mxCell>
        <mxCell id="rz-6T8RquUPtFqDJdESo-30" value="" style="line;strokeWidth=1;fillColor=none;align=left;verticalAlign=middle;spacingTop=-1;spacingLeft=3;spacingRight=3;rotatable=0;labelPosition=right;points=[];portConstraint=eastwest;strokeColor=inherit;fontFamily=Helvetica;fontSize=15;fontColor=rgb(0, 0, 0);html=1;" parent="rz-6T8RquUPtFqDJdESo-29" vertex="1">
          <mxGeometry y="26" width="310" height="8" as="geometry" />
        </mxCell>
        <mxCell id="rz-6T8RquUPtFqDJdESo-31" value="+ save(user: User): Promise&lt;User&gt;" style="text;strokeColor=none;fillColor=none;align=left;verticalAlign=top;spacingLeft=4;spacingRight=4;overflow=hidden;rotatable=0;points=[[0,0.5],[1,0.5]];portConstraint=eastwest;fontSize=15;fontFamily=Helvetica;fontColor=rgb(0, 0, 0);" parent="rz-6T8RquUPtFqDJdESo-29" vertex="1">
          <mxGeometry y="34" width="310" height="36" as="geometry" />
        </mxCell>
        <mxCell id="2iII4kuZC04SP8r0jxeM-13" value="+ findOneByLogin(login: string): &#xa;Promise&lt;User&gt;" style="text;strokeColor=none;fillColor=none;align=left;verticalAlign=top;spacingLeft=4;spacingRight=4;overflow=hidden;rotatable=0;points=[[0,0.5],[1,0.5]];portConstraint=eastwest;fontSize=15;fontFamily=Helvetica;fontColor=rgb(0, 0, 0);" parent="rz-6T8RquUPtFqDJdESo-29" vertex="1">
          <mxGeometry y="70" width="310" height="50" as="geometry" />
        </mxCell>
        <mxCell id="rz-6T8RquUPtFqDJdESo-36" value="&lt;i&gt;IUserRepository&lt;/i&gt;" style="swimlane;fontStyle=1;align=center;verticalAlign=top;childLayout=stackLayout;horizontal=1;startSize=26;horizontalStack=0;resizeParent=1;resizeParentMax=0;resizeLast=0;collapsible=1;marginBottom=0;strokeColor=rgb(0, 0, 0);fontFamily=Helvetica;fontSize=15;fontColor=rgb(0, 0, 0);fillColor=rgb(255, 255, 255);html=1;swimlaneLine=0;" parent="1" vertex="1">
          <mxGeometry x="319" y="1230" width="265" height="120" as="geometry" />
        </mxCell>
        <mxCell id="rz-6T8RquUPtFqDJdESo-37" value="" style="line;strokeWidth=1;fillColor=none;align=left;verticalAlign=middle;spacingTop=-1;spacingLeft=3;spacingRight=3;rotatable=0;labelPosition=right;points=[];portConstraint=eastwest;strokeColor=inherit;fontFamily=Helvetica;fontSize=15;fontColor=rgb(0, 0, 0);html=1;" parent="rz-6T8RquUPtFqDJdESo-36" vertex="1">
          <mxGeometry y="26" width="265" height="8" as="geometry" />
        </mxCell>
        <mxCell id="1P7DDNBLp40ltK4kkGiz-4" value="+ save(user: User): Promise&lt;User&gt;" style="text;strokeColor=none;fillColor=none;align=left;verticalAlign=top;spacingLeft=4;spacingRight=4;overflow=hidden;rotatable=0;points=[[0,0.5],[1,0.5]];portConstraint=eastwest;fontSize=15;fontFamily=Helvetica;fontColor=rgb(0, 0, 0);" parent="rz-6T8RquUPtFqDJdESo-36" vertex="1">
          <mxGeometry y="34" width="265" height="36" as="geometry" />
        </mxCell>
        <mxCell id="1P7DDNBLp40ltK4kkGiz-5" value="+ findOneByLogin(login: string): &#xa;Promise&lt;User&gt;" style="text;strokeColor=none;fillColor=none;align=left;verticalAlign=top;spacingLeft=4;spacingRight=4;overflow=hidden;rotatable=0;points=[[0,0.5],[1,0.5]];portConstraint=eastwest;fontSize=15;fontFamily=Helvetica;fontColor=rgb(0, 0, 0);" parent="rz-6T8RquUPtFqDJdESo-36" vertex="1">
          <mxGeometry y="70" width="265" height="50" as="geometry" />
        </mxCell>
        <mxCell id="rz-6T8RquUPtFqDJdESo-42" value="" style="endArrow=block;dashed=1;endFill=0;endSize=12;html=1;rounded=0;fontFamily=Helvetica;fontSize=15;fontColor=rgb(0, 0, 0);" parent="1" source="rz-6T8RquUPtFqDJdESo-29" target="rz-6T8RquUPtFqDJdESo-36" edge="1">
          <mxGeometry width="160" relative="1" as="geometry">
            <mxPoint x="760.0000000000005" y="392.6708860759495" as="sourcePoint" />
            <mxPoint x="645.0000000000005" y="397.6202531645572" as="targetPoint" />
          </mxGeometry>
        </mxCell>
        <mxCell id="rz-6T8RquUPtFqDJdESo-43" value="UserService" style="swimlane;fontStyle=1;align=center;verticalAlign=top;childLayout=stackLayout;horizontal=1;startSize=26;horizontalStack=0;resizeParent=1;resizeParentMax=0;resizeLast=0;collapsible=1;marginBottom=0;strokeColor=rgb(0, 0, 0);fontFamily=Helvetica;fontSize=15;fontColor=rgb(0, 0, 0);fillColor=rgb(255, 255, 255);html=1;swimlaneLine=0;" parent="1" vertex="1">
          <mxGeometry x="-180" y="1530" width="290" height="90" as="geometry" />
        </mxCell>
        <mxCell id="rz-6T8RquUPtFqDJdESo-44" value="" style="line;strokeWidth=1;fillColor=none;align=left;verticalAlign=middle;spacingTop=-1;spacingLeft=3;spacingRight=3;rotatable=0;labelPosition=right;points=[];portConstraint=eastwest;strokeColor=inherit;fontFamily=Helvetica;fontSize=15;fontColor=rgb(0, 0, 0);html=1;" parent="rz-6T8RquUPtFqDJdESo-43" vertex="1">
          <mxGeometry y="26" width="290" height="8" as="geometry" />
        </mxCell>
        <mxCell id="rz-6T8RquUPtFqDJdESo-45" value="+ create(login: string,&#xa;password: string): User" style="text;strokeColor=none;fillColor=none;align=left;verticalAlign=top;spacingLeft=4;spacingRight=4;overflow=hidden;rotatable=0;points=[[0,0.5],[1,0.5]];portConstraint=eastwest;fontSize=15;fontFamily=Helvetica;fontColor=rgb(0, 0, 0);" parent="rz-6T8RquUPtFqDJdESo-43" vertex="1">
          <mxGeometry y="34" width="290" height="56" as="geometry" />
        </mxCell>
        <mxCell id="rz-6T8RquUPtFqDJdESo-50" value="AuthService" style="swimlane;fontStyle=1;align=center;verticalAlign=top;childLayout=stackLayout;horizontal=1;startSize=26;horizontalStack=0;resizeParent=1;resizeParentMax=0;resizeLast=0;collapsible=1;marginBottom=0;strokeColor=rgb(0, 0, 0);fontFamily=Helvetica;fontSize=15;fontColor=rgb(0, 0, 0);fillColor=rgb(255, 255, 255);html=1;swimlaneLine=0;" parent="1" vertex="1">
          <mxGeometry x="140" y="1400" width="290" height="190" as="geometry" />
        </mxCell>
        <mxCell id="rz-6T8RquUPtFqDJdESo-51" value="" style="line;strokeWidth=1;fillColor=none;align=left;verticalAlign=middle;spacingTop=-1;spacingLeft=3;spacingRight=3;rotatable=0;labelPosition=right;points=[];portConstraint=eastwest;strokeColor=inherit;fontFamily=Helvetica;fontSize=15;fontColor=rgb(0, 0, 0);html=1;" parent="rz-6T8RquUPtFqDJdESo-50" vertex="1">
          <mxGeometry y="26" width="290" height="8" as="geometry" />
        </mxCell>
        <mxCell id="2iII4kuZC04SP8r0jxeM-2" value="+ login(login: string, password: string):&#xa;string (token)" style="text;strokeColor=none;fillColor=none;align=left;verticalAlign=top;spacingLeft=4;spacingRight=4;overflow=hidden;rotatable=0;points=[[0,0.5],[1,0.5]];portConstraint=eastwest;fontSize=15;fontFamily=Helvetica;fontColor=rgb(0, 0, 0);" parent="rz-6T8RquUPtFqDJdESo-50" vertex="1">
          <mxGeometry y="34" width="290" height="46" as="geometry" />
        </mxCell>
        <mxCell id="rz-6T8RquUPtFqDJdESo-52" value="+ register(login: string, password: string):&#xa;string (token)" style="text;strokeColor=none;fillColor=none;align=left;verticalAlign=top;spacingLeft=4;spacingRight=4;overflow=hidden;rotatable=0;points=[[0,0.5],[1,0.5]];portConstraint=eastwest;fontSize=15;fontFamily=Helvetica;fontColor=rgb(0, 0, 0);" parent="rz-6T8RquUPtFqDJdESo-50" vertex="1">
          <mxGeometry y="80" width="290" height="50" as="geometry" />
        </mxCell>
        <mxCell id="2iII4kuZC04SP8r0jxeM-93" value="+ generateToken(user: User):string" style="text;strokeColor=none;fillColor=none;align=left;verticalAlign=top;spacingLeft=4;spacingRight=4;overflow=hidden;rotatable=0;points=[[0,0.5],[1,0.5]];portConstraint=eastwest;fontSize=15;fontFamily=Helvetica;fontColor=rgb(0, 0, 0);" parent="rz-6T8RquUPtFqDJdESo-50" vertex="1">
          <mxGeometry y="130" width="290" height="30" as="geometry" />
        </mxCell>
        <mxCell id="2iII4kuZC04SP8r0jxeM-92" value="+ isTokenExpired(t: string): boolean" style="text;strokeColor=none;fillColor=none;align=left;verticalAlign=top;spacingLeft=4;spacingRight=4;overflow=hidden;rotatable=0;points=[[0,0.5],[1,0.5]];portConstraint=eastwest;fontSize=15;fontFamily=Helvetica;fontColor=rgb(0, 0, 0);" parent="rz-6T8RquUPtFqDJdESo-50" vertex="1">
          <mxGeometry y="160" width="290" height="30" as="geometry" />
        </mxCell>
        <mxCell id="rz-6T8RquUPtFqDJdESo-53" value="Use" style="endArrow=open;endSize=12;dashed=1;html=1;rounded=0;" parent="1" source="rz-6T8RquUPtFqDJdESo-29" target="rz-6T8RquUPtFqDJdESo-23" edge="1">
          <mxGeometry width="160" relative="1" as="geometry">
            <mxPoint x="1070.0000000000005" y="829.2388059701493" as="sourcePoint" />
            <mxPoint x="1110.0000000000005" y="830.0746268656717" as="targetPoint" />
          </mxGeometry>
        </mxCell>
        <mxCell id="rz-6T8RquUPtFqDJdESo-54" value="Use" style="endArrow=open;endSize=12;dashed=1;html=1;rounded=0;" parent="1" source="1P7DDNBLp40ltK4kkGiz-67" target="rz-6T8RquUPtFqDJdESo-36" edge="1">
          <mxGeometry width="160" relative="1" as="geometry">
            <mxPoint x="454.4473684210525" y="1590" as="sourcePoint" />
            <mxPoint x="395.00000000000045" y="658.6493506493507" as="targetPoint" />
            <Array as="points" />
          </mxGeometry>
        </mxCell>
        <mxCell id="rz-6T8RquUPtFqDJdESo-55" value="Use" style="endArrow=open;endSize=12;dashed=1;html=1;rounded=0;" parent="1" source="rz-6T8RquUPtFqDJdESo-50" target="rz-6T8RquUPtFqDJdESo-36" edge="1">
          <mxGeometry width="160" relative="1" as="geometry">
            <mxPoint x="279.99999999999955" y="866.4805194805194" as="sourcePoint" />
            <mxPoint x="395.00000000000045" y="885.8961038961038" as="targetPoint" />
            <Array as="points" />
          </mxGeometry>
        </mxCell>
        <mxCell id="rz-6T8RquUPtFqDJdESo-57" value="Use" style="endArrow=open;endSize=12;dashed=1;html=1;rounded=0;" parent="1" source="1P7DDNBLp40ltK4kkGiz-67" target="2iII4kuZC04SP8r0jxeM-14" edge="1">
          <mxGeometry width="160" relative="1" as="geometry">
            <mxPoint x="499.65384615384664" y="1590" as="sourcePoint" />
            <mxPoint x="330" y="897.0576923076924" as="targetPoint" />
            <Array as="points" />
          </mxGeometry>
        </mxCell>
        <mxCell id="rz-6T8RquUPtFqDJdESo-58" value="Use" style="endArrow=open;endSize=12;dashed=1;html=1;rounded=0;" parent="1" source="rz-6T8RquUPtFqDJdESo-36" target="2iII4kuZC04SP8r0jxeM-14" edge="1">
          <mxGeometry width="160" relative="1" as="geometry">
            <mxPoint x="279.99999999999955" y="820.2115384615386" as="sourcePoint" />
            <mxPoint x="401.81034482758605" y="810" as="targetPoint" />
            <Array as="points" />
          </mxGeometry>
        </mxCell>
        <mxCell id="2iII4kuZC04SP8r0jxeM-14" value="User" style="swimlane;fontStyle=1;align=center;verticalAlign=top;childLayout=stackLayout;horizontal=1;startSize=26;horizontalStack=0;resizeParent=1;resizeParentMax=0;resizeLast=0;collapsible=1;marginBottom=0;strokeColor=rgb(0, 0, 0);fontFamily=Helvetica;fontSize=15;fontColor=rgb(0, 0, 0);fillColor=rgb(255, 255, 255);html=1;swimlaneLine=0;" parent="1" vertex="1">
          <mxGeometry x="509" y="1449" width="150" height="112" as="geometry" />
        </mxCell>
        <mxCell id="2iII4kuZC04SP8r0jxeM-15" value="" style="line;strokeWidth=1;fillColor=none;align=left;verticalAlign=middle;spacingTop=-1;spacingLeft=3;spacingRight=3;rotatable=0;labelPosition=right;points=[];portConstraint=eastwest;strokeColor=inherit;fontFamily=Helvetica;fontSize=15;fontColor=rgb(0, 0, 0);html=1;" parent="2iII4kuZC04SP8r0jxeM-14" vertex="1">
          <mxGeometry y="26" width="150" height="8" as="geometry" />
        </mxCell>
        <mxCell id="2iII4kuZC04SP8r0jxeM-18" value="+ uuid: string" style="text;strokeColor=none;fillColor=none;align=left;verticalAlign=top;spacingLeft=4;spacingRight=4;overflow=hidden;rotatable=0;points=[[0,0.5],[1,0.5]];portConstraint=eastwest;fontSize=15;fontFamily=Helvetica;fontColor=rgb(0, 0, 0);" parent="2iII4kuZC04SP8r0jxeM-14" vertex="1">
          <mxGeometry y="34" width="150" height="26" as="geometry" />
        </mxCell>
        <mxCell id="2iII4kuZC04SP8r0jxeM-16" value="+ login: string" style="text;strokeColor=none;fillColor=none;align=left;verticalAlign=top;spacingLeft=4;spacingRight=4;overflow=hidden;rotatable=0;points=[[0,0.5],[1,0.5]];portConstraint=eastwest;fontSize=15;fontFamily=Helvetica;fontColor=rgb(0, 0, 0);" parent="2iII4kuZC04SP8r0jxeM-14" vertex="1">
          <mxGeometry y="60" width="150" height="26" as="geometry" />
        </mxCell>
        <mxCell id="2iII4kuZC04SP8r0jxeM-17" value="+ password: string" style="text;strokeColor=none;fillColor=none;align=left;verticalAlign=top;spacingLeft=4;spacingRight=4;overflow=hidden;rotatable=0;points=[[0,0.5],[1,0.5]];portConstraint=eastwest;fontSize=15;fontFamily=Helvetica;fontColor=rgb(0, 0, 0);" parent="2iII4kuZC04SP8r0jxeM-14" vertex="1">
          <mxGeometry y="86" width="150" height="26" as="geometry" />
        </mxCell>
        <mxCell id="2iII4kuZC04SP8r0jxeM-19" value="Report" style="swimlane;fontStyle=1;align=center;verticalAlign=top;childLayout=stackLayout;horizontal=1;startSize=26;horizontalStack=0;resizeParent=1;resizeParentMax=0;resizeLast=0;collapsible=1;marginBottom=0;strokeColor=rgb(0, 0, 0);fontFamily=Helvetica;fontSize=15;fontColor=rgb(0, 0, 0);fillColor=rgb(255, 255, 255);html=1;swimlaneLine=0;" parent="1" vertex="1">
          <mxGeometry x="380" y="502" width="190" height="268" as="geometry" />
        </mxCell>
        <mxCell id="2iII4kuZC04SP8r0jxeM-20" value="" style="line;strokeWidth=1;fillColor=none;align=left;verticalAlign=middle;spacingTop=-1;spacingLeft=3;spacingRight=3;rotatable=0;labelPosition=right;points=[];portConstraint=eastwest;strokeColor=inherit;fontFamily=Helvetica;fontSize=15;fontColor=rgb(0, 0, 0);html=1;" parent="2iII4kuZC04SP8r0jxeM-19" vertex="1">
          <mxGeometry y="26" width="190" height="8" as="geometry" />
        </mxCell>
        <mxCell id="2iII4kuZC04SP8r0jxeM-21" value="+ uuid: string" style="text;strokeColor=none;fillColor=none;align=left;verticalAlign=top;spacingLeft=4;spacingRight=4;overflow=hidden;rotatable=0;points=[[0,0.5],[1,0.5]];portConstraint=eastwest;fontSize=15;fontFamily=Helvetica;fontColor=rgb(0, 0, 0);" parent="2iII4kuZC04SP8r0jxeM-19" vertex="1">
          <mxGeometry y="34" width="190" height="26" as="geometry" />
        </mxCell>
        <mxCell id="2iII4kuZC04SP8r0jxeM-22" value="+ content: string" style="text;strokeColor=none;fillColor=none;align=left;verticalAlign=top;spacingLeft=4;spacingRight=4;overflow=hidden;rotatable=0;points=[[0,0.5],[1,0.5]];portConstraint=eastwest;fontSize=15;fontFamily=Helvetica;fontColor=rgb(0, 0, 0);" parent="2iII4kuZC04SP8r0jxeM-19" vertex="1">
          <mxGeometry y="60" width="190" height="26" as="geometry" />
        </mxCell>
        <mxCell id="2iII4kuZC04SP8r0jxeM-24" value="+ plotRate?: number" style="text;strokeColor=none;fillColor=none;align=left;verticalAlign=top;spacingLeft=4;spacingRight=4;overflow=hidden;rotatable=0;points=[[0,0.5],[1,0.5]];portConstraint=eastwest;fontSize=15;fontFamily=Helvetica;fontColor=rgb(0, 0, 0);" parent="2iII4kuZC04SP8r0jxeM-19" vertex="1">
          <mxGeometry y="86" width="190" height="26" as="geometry" />
        </mxCell>
        <mxCell id="2iII4kuZC04SP8r0jxeM-53" value="+ actorPlayRate?: number" style="text;strokeColor=none;fillColor=none;align=left;verticalAlign=top;spacingLeft=4;spacingRight=4;overflow=hidden;rotatable=0;points=[[0,0.5],[1,0.5]];portConstraint=eastwest;fontSize=15;fontFamily=Helvetica;fontColor=rgb(0, 0, 0);" parent="2iII4kuZC04SP8r0jxeM-19" vertex="1">
          <mxGeometry y="112" width="190" height="26" as="geometry" />
        </mxCell>
        <mxCell id="rU2aiUpr3m-TPM3HvvIU-1" value="+ rate?: number" style="text;strokeColor=none;fillColor=none;align=left;verticalAlign=top;spacingLeft=4;spacingRight=4;overflow=hidden;rotatable=0;points=[[0,0.5],[1,0.5]];portConstraint=eastwest;fontSize=15;fontFamily=Helvetica;fontColor=rgb(0, 0, 0);" parent="2iII4kuZC04SP8r0jxeM-19" vertex="1">
          <mxGeometry y="138" width="190" height="26" as="geometry" />
        </mxCell>
        <mxCell id="2iII4kuZC04SP8r0jxeM-47" value="+ filmUuid?: string" style="text;strokeColor=none;fillColor=none;align=left;verticalAlign=top;spacingLeft=4;spacingRight=4;overflow=hidden;rotatable=0;points=[[0,0.5],[1,0.5]];portConstraint=eastwest;fontSize=15;fontFamily=Helvetica;fontColor=rgb(0, 0, 0);" parent="2iII4kuZC04SP8r0jxeM-19" vertex="1">
          <mxGeometry y="164" width="190" height="26" as="geometry" />
        </mxCell>
        <mxCell id="2iII4kuZC04SP8r0jxeM-23" value="+ film?: Film" style="text;strokeColor=none;fillColor=none;align=left;verticalAlign=top;spacingLeft=4;spacingRight=4;overflow=hidden;rotatable=0;points=[[0,0.5],[1,0.5]];portConstraint=eastwest;fontSize=15;fontFamily=Helvetica;fontColor=rgb(0, 0, 0);" parent="2iII4kuZC04SP8r0jxeM-19" vertex="1">
          <mxGeometry y="190" width="190" height="26" as="geometry" />
        </mxCell>
        <mxCell id="2iII4kuZC04SP8r0jxeM-48" value="+ userUuid?: string" style="text;strokeColor=none;fillColor=none;align=left;verticalAlign=top;spacingLeft=4;spacingRight=4;overflow=hidden;rotatable=0;points=[[0,0.5],[1,0.5]];portConstraint=eastwest;fontSize=15;fontFamily=Helvetica;fontColor=rgb(0, 0, 0);" parent="2iII4kuZC04SP8r0jxeM-19" vertex="1">
          <mxGeometry y="216" width="190" height="26" as="geometry" />
        </mxCell>
        <mxCell id="2iII4kuZC04SP8r0jxeM-52" value="+ user?: User" style="text;strokeColor=none;fillColor=none;align=left;verticalAlign=top;spacingLeft=4;spacingRight=4;overflow=hidden;rotatable=0;points=[[0,0.5],[1,0.5]];portConstraint=eastwest;fontSize=15;fontFamily=Helvetica;fontColor=rgb(0, 0, 0);" parent="2iII4kuZC04SP8r0jxeM-19" vertex="1">
          <mxGeometry y="242" width="190" height="26" as="geometry" />
        </mxCell>
        <mxCell id="2iII4kuZC04SP8r0jxeM-25" value="Actor" style="swimlane;fontStyle=1;align=center;verticalAlign=top;childLayout=stackLayout;horizontal=1;startSize=26;horizontalStack=0;resizeParent=1;resizeParentMax=0;resizeLast=0;collapsible=1;marginBottom=0;strokeColor=rgb(0, 0, 0);fontFamily=Helvetica;fontSize=15;fontColor=rgb(0, 0, 0);fillColor=rgb(255, 255, 255);html=1;swimlaneLine=0;" parent="1" vertex="1">
          <mxGeometry x="-179" y="2049" width="190" height="164" as="geometry" />
        </mxCell>
        <mxCell id="2iII4kuZC04SP8r0jxeM-26" value="" style="line;strokeWidth=1;fillColor=none;align=left;verticalAlign=middle;spacingTop=-1;spacingLeft=3;spacingRight=3;rotatable=0;labelPosition=right;points=[];portConstraint=eastwest;strokeColor=inherit;fontFamily=Helvetica;fontSize=15;fontColor=rgb(0, 0, 0);html=1;" parent="2iII4kuZC04SP8r0jxeM-25" vertex="1">
          <mxGeometry y="26" width="190" height="8" as="geometry" />
        </mxCell>
        <mxCell id="2iII4kuZC04SP8r0jxeM-27" value="+ uuid: string" style="text;strokeColor=none;fillColor=none;align=left;verticalAlign=top;spacingLeft=4;spacingRight=4;overflow=hidden;rotatable=0;points=[[0,0.5],[1,0.5]];portConstraint=eastwest;fontSize=15;fontFamily=Helvetica;fontColor=rgb(0, 0, 0);" parent="2iII4kuZC04SP8r0jxeM-25" vertex="1">
          <mxGeometry y="34" width="190" height="26" as="geometry" />
        </mxCell>
        <mxCell id="2iII4kuZC04SP8r0jxeM-28" value="+ firstName: string" style="text;strokeColor=none;fillColor=none;align=left;verticalAlign=top;spacingLeft=4;spacingRight=4;overflow=hidden;rotatable=0;points=[[0,0.5],[1,0.5]];portConstraint=eastwest;fontSize=15;fontFamily=Helvetica;fontColor=rgb(0, 0, 0);" parent="2iII4kuZC04SP8r0jxeM-25" vertex="1">
          <mxGeometry y="60" width="190" height="26" as="geometry" />
        </mxCell>
        <mxCell id="2iII4kuZC04SP8r0jxeM-31" value="+ lastName: string" style="text;strokeColor=none;fillColor=none;align=left;verticalAlign=top;spacingLeft=4;spacingRight=4;overflow=hidden;rotatable=0;points=[[0,0.5],[1,0.5]];portConstraint=eastwest;fontSize=15;fontFamily=Helvetica;fontColor=rgb(0, 0, 0);" parent="2iII4kuZC04SP8r0jxeM-25" vertex="1">
          <mxGeometry y="86" width="190" height="26" as="geometry" />
        </mxCell>
        <mxCell id="2iII4kuZC04SP8r0jxeM-32" value="+ middleName: string" style="text;strokeColor=none;fillColor=none;align=left;verticalAlign=top;spacingLeft=4;spacingRight=4;overflow=hidden;rotatable=0;points=[[0,0.5],[1,0.5]];portConstraint=eastwest;fontSize=15;fontFamily=Helvetica;fontColor=rgb(0, 0, 0);" parent="2iII4kuZC04SP8r0jxeM-25" vertex="1">
          <mxGeometry y="112" width="190" height="26" as="geometry" />
        </mxCell>
        <mxCell id="2iII4kuZC04SP8r0jxeM-30" value="+ country: string" style="text;strokeColor=none;fillColor=none;align=left;verticalAlign=top;spacingLeft=4;spacingRight=4;overflow=hidden;rotatable=0;points=[[0,0.5],[1,0.5]];portConstraint=eastwest;fontSize=15;fontFamily=Helvetica;fontColor=rgb(0, 0, 0);" parent="2iII4kuZC04SP8r0jxeM-25" vertex="1">
          <mxGeometry y="138" width="190" height="26" as="geometry" />
        </mxCell>
        <mxCell id="2iII4kuZC04SP8r0jxeM-33" value="Film" style="swimlane;fontStyle=1;align=center;verticalAlign=top;childLayout=stackLayout;horizontal=1;startSize=26;horizontalStack=0;resizeParent=1;resizeParentMax=0;resizeLast=0;collapsible=1;marginBottom=0;strokeColor=rgb(0, 0, 0);fontFamily=Helvetica;fontSize=15;fontColor=rgb(0, 0, 0);fillColor=rgb(255, 255, 255);html=1;swimlaneLine=0;" parent="1" vertex="1">
          <mxGeometry x="54" y="2093" width="190" height="164" as="geometry" />
        </mxCell>
        <mxCell id="2iII4kuZC04SP8r0jxeM-34" value="" style="line;strokeWidth=1;fillColor=none;align=left;verticalAlign=middle;spacingTop=-1;spacingLeft=3;spacingRight=3;rotatable=0;labelPosition=right;points=[];portConstraint=eastwest;strokeColor=inherit;fontFamily=Helvetica;fontSize=15;fontColor=rgb(0, 0, 0);html=1;" parent="2iII4kuZC04SP8r0jxeM-33" vertex="1">
          <mxGeometry y="26" width="190" height="8" as="geometry" />
        </mxCell>
        <mxCell id="2iII4kuZC04SP8r0jxeM-35" value="+ uuid: string" style="text;strokeColor=none;fillColor=none;align=left;verticalAlign=top;spacingLeft=4;spacingRight=4;overflow=hidden;rotatable=0;points=[[0,0.5],[1,0.5]];portConstraint=eastwest;fontSize=15;fontFamily=Helvetica;fontColor=rgb(0, 0, 0);" parent="2iII4kuZC04SP8r0jxeM-33" vertex="1">
          <mxGeometry y="34" width="190" height="26" as="geometry" />
        </mxCell>
        <mxCell id="2iII4kuZC04SP8r0jxeM-36" value="+ title: string" style="text;strokeColor=none;fillColor=none;align=left;verticalAlign=top;spacingLeft=4;spacingRight=4;overflow=hidden;rotatable=0;points=[[0,0.5],[1,0.5]];portConstraint=eastwest;fontSize=15;fontFamily=Helvetica;fontColor=rgb(0, 0, 0);" parent="2iII4kuZC04SP8r0jxeM-33" vertex="1">
          <mxGeometry y="60" width="190" height="26" as="geometry" />
        </mxCell>
        <mxCell id="2iII4kuZC04SP8r0jxeM-37" value="+ description: string" style="text;strokeColor=none;fillColor=none;align=left;verticalAlign=top;spacingLeft=4;spacingRight=4;overflow=hidden;rotatable=0;points=[[0,0.5],[1,0.5]];portConstraint=eastwest;fontSize=15;fontFamily=Helvetica;fontColor=rgb(0, 0, 0);" parent="2iII4kuZC04SP8r0jxeM-33" vertex="1">
          <mxGeometry y="86" width="190" height="26" as="geometry" />
        </mxCell>
        <mxCell id="2iII4kuZC04SP8r0jxeM-38" value="+ company?: Company" style="text;strokeColor=none;fillColor=none;align=left;verticalAlign=top;spacingLeft=4;spacingRight=4;overflow=hidden;rotatable=0;points=[[0,0.5],[1,0.5]];portConstraint=eastwest;fontSize=15;fontFamily=Helvetica;fontColor=rgb(0, 0, 0);" parent="2iII4kuZC04SP8r0jxeM-33" vertex="1">
          <mxGeometry y="112" width="190" height="26" as="geometry" />
        </mxCell>
        <mxCell id="2iII4kuZC04SP8r0jxeM-39" value="+ actors?: Actor[]" style="text;strokeColor=none;fillColor=none;align=left;verticalAlign=top;spacingLeft=4;spacingRight=4;overflow=hidden;rotatable=0;points=[[0,0.5],[1,0.5]];portConstraint=eastwest;fontSize=15;fontFamily=Helvetica;fontColor=rgb(0, 0, 0);" parent="2iII4kuZC04SP8r0jxeM-33" vertex="1">
          <mxGeometry y="138" width="190" height="26" as="geometry" />
        </mxCell>
        <mxCell id="2iII4kuZC04SP8r0jxeM-40" value="Company" style="swimlane;fontStyle=1;align=center;verticalAlign=top;childLayout=stackLayout;horizontal=1;startSize=26;horizontalStack=0;resizeParent=1;resizeParentMax=0;resizeLast=0;collapsible=1;marginBottom=0;strokeColor=rgb(0, 0, 0);fontFamily=Helvetica;fontSize=15;fontColor=rgb(0, 0, 0);fillColor=rgb(255, 255, 255);html=1;swimlaneLine=0;" parent="1" vertex="1">
          <mxGeometry x="300" y="2036" width="190" height="112" as="geometry" />
        </mxCell>
        <mxCell id="2iII4kuZC04SP8r0jxeM-41" value="" style="line;strokeWidth=1;fillColor=none;align=left;verticalAlign=middle;spacingTop=-1;spacingLeft=3;spacingRight=3;rotatable=0;labelPosition=right;points=[];portConstraint=eastwest;strokeColor=inherit;fontFamily=Helvetica;fontSize=15;fontColor=rgb(0, 0, 0);html=1;" parent="2iII4kuZC04SP8r0jxeM-40" vertex="1">
          <mxGeometry y="26" width="190" height="8" as="geometry" />
        </mxCell>
        <mxCell id="2iII4kuZC04SP8r0jxeM-42" value="+ uuid: string" style="text;strokeColor=none;fillColor=none;align=left;verticalAlign=top;spacingLeft=4;spacingRight=4;overflow=hidden;rotatable=0;points=[[0,0.5],[1,0.5]];portConstraint=eastwest;fontSize=15;fontFamily=Helvetica;fontColor=rgb(0, 0, 0);" parent="2iII4kuZC04SP8r0jxeM-40" vertex="1">
          <mxGeometry y="34" width="190" height="26" as="geometry" />
        </mxCell>
        <mxCell id="2iII4kuZC04SP8r0jxeM-43" value="+ title: string" style="text;strokeColor=none;fillColor=none;align=left;verticalAlign=top;spacingLeft=4;spacingRight=4;overflow=hidden;rotatable=0;points=[[0,0.5],[1,0.5]];portConstraint=eastwest;fontSize=15;fontFamily=Helvetica;fontColor=rgb(0, 0, 0);" parent="2iII4kuZC04SP8r0jxeM-40" vertex="1">
          <mxGeometry y="60" width="190" height="26" as="geometry" />
        </mxCell>
        <mxCell id="2iII4kuZC04SP8r0jxeM-46" value="+ country: string" style="text;strokeColor=none;fillColor=none;align=left;verticalAlign=top;spacingLeft=4;spacingRight=4;overflow=hidden;rotatable=0;points=[[0,0.5],[1,0.5]];portConstraint=eastwest;fontSize=15;fontFamily=Helvetica;fontColor=rgb(0, 0, 0);" parent="2iII4kuZC04SP8r0jxeM-40" vertex="1">
          <mxGeometry y="86" width="190" height="26" as="geometry" />
        </mxCell>
        <mxCell id="2iII4kuZC04SP8r0jxeM-54" value="UserEntity" style="swimlane;fontStyle=1;align=center;verticalAlign=top;childLayout=stackLayout;horizontal=1;startSize=26;horizontalStack=0;resizeParent=1;resizeParentMax=0;resizeLast=0;collapsible=1;marginBottom=0;strokeColor=rgb(0, 0, 0);fontFamily=Helvetica;fontSize=15;fontColor=rgb(0, 0, 0);fillColor=rgb(255, 255, 255);html=1;swimlaneLine=0;" parent="1" vertex="1">
          <mxGeometry x="1155" y="1431" width="150" height="112" as="geometry" />
        </mxCell>
        <mxCell id="2iII4kuZC04SP8r0jxeM-55" value="" style="line;strokeWidth=1;fillColor=none;align=left;verticalAlign=middle;spacingTop=-1;spacingLeft=3;spacingRight=3;rotatable=0;labelPosition=right;points=[];portConstraint=eastwest;strokeColor=inherit;fontFamily=Helvetica;fontSize=15;fontColor=rgb(0, 0, 0);html=1;" parent="2iII4kuZC04SP8r0jxeM-54" vertex="1">
          <mxGeometry y="26" width="150" height="8" as="geometry" />
        </mxCell>
        <mxCell id="2iII4kuZC04SP8r0jxeM-56" value="+ uuid: number" style="text;strokeColor=none;fillColor=none;align=left;verticalAlign=top;spacingLeft=4;spacingRight=4;overflow=hidden;rotatable=0;points=[[0,0.5],[1,0.5]];portConstraint=eastwest;fontSize=15;fontFamily=Helvetica;fontColor=rgb(0, 0, 0);" parent="2iII4kuZC04SP8r0jxeM-54" vertex="1">
          <mxGeometry y="34" width="150" height="26" as="geometry" />
        </mxCell>
        <mxCell id="2iII4kuZC04SP8r0jxeM-57" value="+ login: string" style="text;strokeColor=none;fillColor=none;align=left;verticalAlign=top;spacingLeft=4;spacingRight=4;overflow=hidden;rotatable=0;points=[[0,0.5],[1,0.5]];portConstraint=eastwest;fontSize=15;fontFamily=Helvetica;fontColor=rgb(0, 0, 0);" parent="2iII4kuZC04SP8r0jxeM-54" vertex="1">
          <mxGeometry y="60" width="150" height="26" as="geometry" />
        </mxCell>
        <mxCell id="2iII4kuZC04SP8r0jxeM-58" value="+ password: string" style="text;strokeColor=none;fillColor=none;align=left;verticalAlign=top;spacingLeft=4;spacingRight=4;overflow=hidden;rotatable=0;points=[[0,0.5],[1,0.5]];portConstraint=eastwest;fontSize=15;fontFamily=Helvetica;fontColor=rgb(0, 0, 0);" parent="2iII4kuZC04SP8r0jxeM-54" vertex="1">
          <mxGeometry y="86" width="150" height="26" as="geometry" />
        </mxCell>
        <mxCell id="2iII4kuZC04SP8r0jxeM-59" value="ReportEntity" style="swimlane;fontStyle=1;align=center;verticalAlign=top;childLayout=stackLayout;horizontal=1;startSize=26;horizontalStack=0;resizeParent=1;resizeParentMax=0;resizeLast=0;collapsible=1;marginBottom=0;strokeColor=rgb(0, 0, 0);fontFamily=Helvetica;fontSize=15;fontColor=rgb(0, 0, 0);fillColor=rgb(255, 255, 255);html=1;swimlaneLine=0;" parent="1" vertex="1">
          <mxGeometry x="1564" y="718" width="190" height="268" as="geometry" />
        </mxCell>
        <mxCell id="2iII4kuZC04SP8r0jxeM-60" value="" style="line;strokeWidth=1;fillColor=none;align=left;verticalAlign=middle;spacingTop=-1;spacingLeft=3;spacingRight=3;rotatable=0;labelPosition=right;points=[];portConstraint=eastwest;strokeColor=inherit;fontFamily=Helvetica;fontSize=15;fontColor=rgb(0, 0, 0);html=1;" parent="2iII4kuZC04SP8r0jxeM-59" vertex="1">
          <mxGeometry y="26" width="190" height="8" as="geometry" />
        </mxCell>
        <mxCell id="2iII4kuZC04SP8r0jxeM-61" value="+ uuid: string" style="text;strokeColor=none;fillColor=none;align=left;verticalAlign=top;spacingLeft=4;spacingRight=4;overflow=hidden;rotatable=0;points=[[0,0.5],[1,0.5]];portConstraint=eastwest;fontSize=15;fontFamily=Helvetica;fontColor=rgb(0, 0, 0);" parent="2iII4kuZC04SP8r0jxeM-59" vertex="1">
          <mxGeometry y="34" width="190" height="26" as="geometry" />
        </mxCell>
        <mxCell id="2iII4kuZC04SP8r0jxeM-62" value="+ content: string" style="text;strokeColor=none;fillColor=none;align=left;verticalAlign=top;spacingLeft=4;spacingRight=4;overflow=hidden;rotatable=0;points=[[0,0.5],[1,0.5]];portConstraint=eastwest;fontSize=15;fontFamily=Helvetica;fontColor=rgb(0, 0, 0);" parent="2iII4kuZC04SP8r0jxeM-59" vertex="1">
          <mxGeometry y="60" width="190" height="26" as="geometry" />
        </mxCell>
        <mxCell id="2iII4kuZC04SP8r0jxeM-63" value="+ plotRate?: number" style="text;strokeColor=none;fillColor=none;align=left;verticalAlign=top;spacingLeft=4;spacingRight=4;overflow=hidden;rotatable=0;points=[[0,0.5],[1,0.5]];portConstraint=eastwest;fontSize=15;fontFamily=Helvetica;fontColor=rgb(0, 0, 0);" parent="2iII4kuZC04SP8r0jxeM-59" vertex="1">
          <mxGeometry y="86" width="190" height="26" as="geometry" />
        </mxCell>
        <mxCell id="2iII4kuZC04SP8r0jxeM-64" value="+ actorPlayRate?: number" style="text;strokeColor=none;fillColor=none;align=left;verticalAlign=top;spacingLeft=4;spacingRight=4;overflow=hidden;rotatable=0;points=[[0,0.5],[1,0.5]];portConstraint=eastwest;fontSize=15;fontFamily=Helvetica;fontColor=rgb(0, 0, 0);" parent="2iII4kuZC04SP8r0jxeM-59" vertex="1">
          <mxGeometry y="112" width="190" height="26" as="geometry" />
        </mxCell>
        <mxCell id="rU2aiUpr3m-TPM3HvvIU-2" value="+ rate?: number" style="text;strokeColor=none;fillColor=none;align=left;verticalAlign=top;spacingLeft=4;spacingRight=4;overflow=hidden;rotatable=0;points=[[0,0.5],[1,0.5]];portConstraint=eastwest;fontSize=15;fontFamily=Helvetica;fontColor=rgb(0, 0, 0);" parent="2iII4kuZC04SP8r0jxeM-59" vertex="1">
          <mxGeometry y="138" width="190" height="26" as="geometry" />
        </mxCell>
        <mxCell id="2iII4kuZC04SP8r0jxeM-65" value="+ filmId?: number" style="text;strokeColor=none;fillColor=none;align=left;verticalAlign=top;spacingLeft=4;spacingRight=4;overflow=hidden;rotatable=0;points=[[0,0.5],[1,0.5]];portConstraint=eastwest;fontSize=15;fontFamily=Helvetica;fontColor=rgb(0, 0, 0);" parent="2iII4kuZC04SP8r0jxeM-59" vertex="1">
          <mxGeometry y="164" width="190" height="26" as="geometry" />
        </mxCell>
        <mxCell id="2iII4kuZC04SP8r0jxeM-66" value="+ film?: Film" style="text;strokeColor=none;fillColor=none;align=left;verticalAlign=top;spacingLeft=4;spacingRight=4;overflow=hidden;rotatable=0;points=[[0,0.5],[1,0.5]];portConstraint=eastwest;fontSize=15;fontFamily=Helvetica;fontColor=rgb(0, 0, 0);" parent="2iII4kuZC04SP8r0jxeM-59" vertex="1">
          <mxGeometry y="190" width="190" height="26" as="geometry" />
        </mxCell>
        <mxCell id="2iII4kuZC04SP8r0jxeM-67" value="+ userId?: number" style="text;strokeColor=none;fillColor=none;align=left;verticalAlign=top;spacingLeft=4;spacingRight=4;overflow=hidden;rotatable=0;points=[[0,0.5],[1,0.5]];portConstraint=eastwest;fontSize=15;fontFamily=Helvetica;fontColor=rgb(0, 0, 0);" parent="2iII4kuZC04SP8r0jxeM-59" vertex="1">
          <mxGeometry y="216" width="190" height="26" as="geometry" />
        </mxCell>
        <mxCell id="2iII4kuZC04SP8r0jxeM-68" value="+ user?: User" style="text;strokeColor=none;fillColor=none;align=left;verticalAlign=top;spacingLeft=4;spacingRight=4;overflow=hidden;rotatable=0;points=[[0,0.5],[1,0.5]];portConstraint=eastwest;fontSize=15;fontFamily=Helvetica;fontColor=rgb(0, 0, 0);" parent="2iII4kuZC04SP8r0jxeM-59" vertex="1">
          <mxGeometry y="242" width="190" height="26" as="geometry" />
        </mxCell>
        <mxCell id="2iII4kuZC04SP8r0jxeM-69" value="ActorEntity" style="swimlane;fontStyle=1;align=center;verticalAlign=top;childLayout=stackLayout;horizontal=1;startSize=26;horizontalStack=0;resizeParent=1;resizeParentMax=0;resizeLast=0;collapsible=1;marginBottom=0;strokeColor=rgb(0, 0, 0);fontFamily=Helvetica;fontSize=15;fontColor=rgb(0, 0, 0);fillColor=rgb(255, 255, 255);html=1;swimlaneLine=0;" parent="1" vertex="1">
          <mxGeometry x="1520" y="2185" width="190" height="164" as="geometry" />
        </mxCell>
        <mxCell id="2iII4kuZC04SP8r0jxeM-70" value="" style="line;strokeWidth=1;fillColor=none;align=left;verticalAlign=middle;spacingTop=-1;spacingLeft=3;spacingRight=3;rotatable=0;labelPosition=right;points=[];portConstraint=eastwest;strokeColor=inherit;fontFamily=Helvetica;fontSize=15;fontColor=rgb(0, 0, 0);html=1;" parent="2iII4kuZC04SP8r0jxeM-69" vertex="1">
          <mxGeometry y="26" width="190" height="8" as="geometry" />
        </mxCell>
        <mxCell id="2iII4kuZC04SP8r0jxeM-71" value="+ uuid: string" style="text;strokeColor=none;fillColor=none;align=left;verticalAlign=top;spacingLeft=4;spacingRight=4;overflow=hidden;rotatable=0;points=[[0,0.5],[1,0.5]];portConstraint=eastwest;fontSize=15;fontFamily=Helvetica;fontColor=rgb(0, 0, 0);" parent="2iII4kuZC04SP8r0jxeM-69" vertex="1">
          <mxGeometry y="34" width="190" height="26" as="geometry" />
        </mxCell>
        <mxCell id="2iII4kuZC04SP8r0jxeM-72" value="+ firstName: string" style="text;strokeColor=none;fillColor=none;align=left;verticalAlign=top;spacingLeft=4;spacingRight=4;overflow=hidden;rotatable=0;points=[[0,0.5],[1,0.5]];portConstraint=eastwest;fontSize=15;fontFamily=Helvetica;fontColor=rgb(0, 0, 0);" parent="2iII4kuZC04SP8r0jxeM-69" vertex="1">
          <mxGeometry y="60" width="190" height="26" as="geometry" />
        </mxCell>
        <mxCell id="2iII4kuZC04SP8r0jxeM-73" value="+ lastName: string" style="text;strokeColor=none;fillColor=none;align=left;verticalAlign=top;spacingLeft=4;spacingRight=4;overflow=hidden;rotatable=0;points=[[0,0.5],[1,0.5]];portConstraint=eastwest;fontSize=15;fontFamily=Helvetica;fontColor=rgb(0, 0, 0);" parent="2iII4kuZC04SP8r0jxeM-69" vertex="1">
          <mxGeometry y="86" width="190" height="26" as="geometry" />
        </mxCell>
        <mxCell id="2iII4kuZC04SP8r0jxeM-74" value="+ middleName: string" style="text;strokeColor=none;fillColor=none;align=left;verticalAlign=top;spacingLeft=4;spacingRight=4;overflow=hidden;rotatable=0;points=[[0,0.5],[1,0.5]];portConstraint=eastwest;fontSize=15;fontFamily=Helvetica;fontColor=rgb(0, 0, 0);" parent="2iII4kuZC04SP8r0jxeM-69" vertex="1">
          <mxGeometry y="112" width="190" height="26" as="geometry" />
        </mxCell>
        <mxCell id="2iII4kuZC04SP8r0jxeM-75" value="+ country: string" style="text;strokeColor=none;fillColor=none;align=left;verticalAlign=top;spacingLeft=4;spacingRight=4;overflow=hidden;rotatable=0;points=[[0,0.5],[1,0.5]];portConstraint=eastwest;fontSize=15;fontFamily=Helvetica;fontColor=rgb(0, 0, 0);" parent="2iII4kuZC04SP8r0jxeM-69" vertex="1">
          <mxGeometry y="138" width="190" height="26" as="geometry" />
        </mxCell>
        <mxCell id="2iII4kuZC04SP8r0jxeM-85" value="CompanyEntity" style="swimlane;fontStyle=1;align=center;verticalAlign=top;childLayout=stackLayout;horizontal=1;startSize=26;horizontalStack=0;resizeParent=1;resizeParentMax=0;resizeLast=0;collapsible=1;marginBottom=0;strokeColor=rgb(0, 0, 0);fontFamily=Helvetica;fontSize=15;fontColor=rgb(0, 0, 0);fillColor=rgb(255, 255, 255);html=1;swimlaneLine=0;" parent="1" vertex="1">
          <mxGeometry x="1115" y="1981" width="190" height="112" as="geometry" />
        </mxCell>
        <mxCell id="2iII4kuZC04SP8r0jxeM-86" value="" style="line;strokeWidth=1;fillColor=none;align=left;verticalAlign=middle;spacingTop=-1;spacingLeft=3;spacingRight=3;rotatable=0;labelPosition=right;points=[];portConstraint=eastwest;strokeColor=inherit;fontFamily=Helvetica;fontSize=15;fontColor=rgb(0, 0, 0);html=1;" parent="2iII4kuZC04SP8r0jxeM-85" vertex="1">
          <mxGeometry y="26" width="190" height="8" as="geometry" />
        </mxCell>
        <mxCell id="2iII4kuZC04SP8r0jxeM-87" value="+ uuid: string" style="text;strokeColor=none;fillColor=none;align=left;verticalAlign=top;spacingLeft=4;spacingRight=4;overflow=hidden;rotatable=0;points=[[0,0.5],[1,0.5]];portConstraint=eastwest;fontSize=15;fontFamily=Helvetica;fontColor=rgb(0, 0, 0);" parent="2iII4kuZC04SP8r0jxeM-85" vertex="1">
          <mxGeometry y="34" width="190" height="26" as="geometry" />
        </mxCell>
        <mxCell id="2iII4kuZC04SP8r0jxeM-88" value="+ title: string" style="text;strokeColor=none;fillColor=none;align=left;verticalAlign=top;spacingLeft=4;spacingRight=4;overflow=hidden;rotatable=0;points=[[0,0.5],[1,0.5]];portConstraint=eastwest;fontSize=15;fontFamily=Helvetica;fontColor=rgb(0, 0, 0);" parent="2iII4kuZC04SP8r0jxeM-85" vertex="1">
          <mxGeometry y="60" width="190" height="26" as="geometry" />
        </mxCell>
        <mxCell id="2iII4kuZC04SP8r0jxeM-89" value="+ country: string" style="text;strokeColor=none;fillColor=none;align=left;verticalAlign=top;spacingLeft=4;spacingRight=4;overflow=hidden;rotatable=0;points=[[0,0.5],[1,0.5]];portConstraint=eastwest;fontSize=15;fontFamily=Helvetica;fontColor=rgb(0, 0, 0);" parent="2iII4kuZC04SP8r0jxeM-85" vertex="1">
          <mxGeometry y="86" width="190" height="26" as="geometry" />
        </mxCell>
        <mxCell id="2iII4kuZC04SP8r0jxeM-76" value="FilmEntity" style="swimlane;fontStyle=1;align=center;verticalAlign=top;childLayout=stackLayout;horizontal=1;startSize=26;horizontalStack=0;resizeParent=1;resizeParentMax=0;resizeLast=0;collapsible=1;marginBottom=0;strokeColor=rgb(0, 0, 0);fontFamily=Helvetica;fontSize=15;fontColor=rgb(0, 0, 0);fillColor=rgb(255, 255, 255);html=1;swimlaneLine=0;" parent="1" vertex="1">
          <mxGeometry x="1100" y="2500" width="190" height="216" as="geometry" />
        </mxCell>
        <mxCell id="2iII4kuZC04SP8r0jxeM-77" value="" style="line;strokeWidth=1;fillColor=none;align=left;verticalAlign=middle;spacingTop=-1;spacingLeft=3;spacingRight=3;rotatable=0;labelPosition=right;points=[];portConstraint=eastwest;strokeColor=inherit;fontFamily=Helvetica;fontSize=15;fontColor=rgb(0, 0, 0);html=1;" parent="2iII4kuZC04SP8r0jxeM-76" vertex="1">
          <mxGeometry y="26" width="190" height="8" as="geometry" />
        </mxCell>
        <mxCell id="2iII4kuZC04SP8r0jxeM-78" value="+ uuid: string" style="text;strokeColor=none;fillColor=none;align=left;verticalAlign=top;spacingLeft=4;spacingRight=4;overflow=hidden;rotatable=0;points=[[0,0.5],[1,0.5]];portConstraint=eastwest;fontSize=15;fontFamily=Helvetica;fontColor=rgb(0, 0, 0);" parent="2iII4kuZC04SP8r0jxeM-76" vertex="1">
          <mxGeometry y="34" width="190" height="26" as="geometry" />
        </mxCell>
        <mxCell id="2iII4kuZC04SP8r0jxeM-79" value="+ title: string" style="text;strokeColor=none;fillColor=none;align=left;verticalAlign=top;spacingLeft=4;spacingRight=4;overflow=hidden;rotatable=0;points=[[0,0.5],[1,0.5]];portConstraint=eastwest;fontSize=15;fontFamily=Helvetica;fontColor=rgb(0, 0, 0);" parent="2iII4kuZC04SP8r0jxeM-76" vertex="1">
          <mxGeometry y="60" width="190" height="26" as="geometry" />
        </mxCell>
        <mxCell id="2iII4kuZC04SP8r0jxeM-80" value="+ description: string" style="text;strokeColor=none;fillColor=none;align=left;verticalAlign=top;spacingLeft=4;spacingRight=4;overflow=hidden;rotatable=0;points=[[0,0.5],[1,0.5]];portConstraint=eastwest;fontSize=15;fontFamily=Helvetica;fontColor=rgb(0, 0, 0);" parent="2iII4kuZC04SP8r0jxeM-76" vertex="1">
          <mxGeometry y="86" width="190" height="26" as="geometry" />
        </mxCell>
        <mxCell id="2iII4kuZC04SP8r0jxeM-81" value="+ companyId?: number" style="text;strokeColor=none;fillColor=none;align=left;verticalAlign=top;spacingLeft=4;spacingRight=4;overflow=hidden;rotatable=0;points=[[0,0.5],[1,0.5]];portConstraint=eastwest;fontSize=15;fontFamily=Helvetica;fontColor=rgb(0, 0, 0);" parent="2iII4kuZC04SP8r0jxeM-76" vertex="1">
          <mxGeometry y="112" width="190" height="26" as="geometry" />
        </mxCell>
        <mxCell id="2iII4kuZC04SP8r0jxeM-82" value="+ company?: Company" style="text;strokeColor=none;fillColor=none;align=left;verticalAlign=top;spacingLeft=4;spacingRight=4;overflow=hidden;rotatable=0;points=[[0,0.5],[1,0.5]];portConstraint=eastwest;fontSize=15;fontFamily=Helvetica;fontColor=rgb(0, 0, 0);" parent="2iII4kuZC04SP8r0jxeM-76" vertex="1">
          <mxGeometry y="138" width="190" height="26" as="geometry" />
        </mxCell>
        <mxCell id="2iII4kuZC04SP8r0jxeM-83" value="+ actorIds?: number[]" style="text;strokeColor=none;fillColor=none;align=left;verticalAlign=top;spacingLeft=4;spacingRight=4;overflow=hidden;rotatable=0;points=[[0,0.5],[1,0.5]];portConstraint=eastwest;fontSize=15;fontFamily=Helvetica;fontColor=rgb(0, 0, 0);" parent="2iII4kuZC04SP8r0jxeM-76" vertex="1">
          <mxGeometry y="164" width="190" height="26" as="geometry" />
        </mxCell>
        <mxCell id="2iII4kuZC04SP8r0jxeM-84" value="+ actors?: Actor[]" style="text;strokeColor=none;fillColor=none;align=left;verticalAlign=top;spacingLeft=4;spacingRight=4;overflow=hidden;rotatable=0;points=[[0,0.5],[1,0.5]];portConstraint=eastwest;fontSize=15;fontFamily=Helvetica;fontColor=rgb(0, 0, 0);" parent="2iII4kuZC04SP8r0jxeM-76" vertex="1">
          <mxGeometry y="190" width="190" height="26" as="geometry" />
        </mxCell>
        <mxCell id="rU2aiUpr3m-TPM3HvvIU-3" value="RateBody" style="swimlane;fontStyle=1;align=center;verticalAlign=top;childLayout=stackLayout;horizontal=1;startSize=26;horizontalStack=0;resizeParent=1;resizeParentMax=0;resizeLast=0;collapsible=1;marginBottom=0;strokeColor=rgb(0, 0, 0);fontFamily=Helvetica;fontSize=15;fontColor=rgb(0, 0, 0);fillColor=rgb(255, 255, 255);html=1;swimlaneLine=0;" parent="1" vertex="1">
          <mxGeometry x="-315" y="359" width="240" height="112" as="geometry" />
        </mxCell>
        <mxCell id="rU2aiUpr3m-TPM3HvvIU-4" value="" style="line;strokeWidth=1;fillColor=none;align=left;verticalAlign=middle;spacingTop=-1;spacingLeft=3;spacingRight=3;rotatable=0;labelPosition=right;points=[];portConstraint=eastwest;strokeColor=inherit;fontFamily=Helvetica;fontSize=15;fontColor=rgb(0, 0, 0);html=1;" parent="rU2aiUpr3m-TPM3HvvIU-3" vertex="1">
          <mxGeometry y="26" width="240" height="8" as="geometry" />
        </mxCell>
        <mxCell id="rU2aiUpr3m-TPM3HvvIU-7" value="+ content: string" style="text;strokeColor=none;fillColor=none;align=left;verticalAlign=top;spacingLeft=4;spacingRight=4;overflow=hidden;rotatable=0;points=[[0,0.5],[1,0.5]];portConstraint=eastwest;fontSize=15;fontFamily=Helvetica;fontColor=rgb(0, 0, 0);" parent="rU2aiUpr3m-TPM3HvvIU-3" vertex="1">
          <mxGeometry y="34" width="240" height="26" as="geometry" />
        </mxCell>
        <mxCell id="rU2aiUpr3m-TPM3HvvIU-14" value="+ plotRate?: number" style="text;strokeColor=none;fillColor=none;align=left;verticalAlign=top;spacingLeft=4;spacingRight=4;overflow=hidden;rotatable=0;points=[[0,0.5],[1,0.5]];portConstraint=eastwest;fontSize=15;fontFamily=Helvetica;fontColor=rgb(0, 0, 0);" parent="rU2aiUpr3m-TPM3HvvIU-3" vertex="1">
          <mxGeometry y="60" width="240" height="26" as="geometry" />
        </mxCell>
        <mxCell id="rU2aiUpr3m-TPM3HvvIU-8" value="+ actorPlayRate?: number" style="text;strokeColor=none;fillColor=none;align=left;verticalAlign=top;spacingLeft=4;spacingRight=4;overflow=hidden;rotatable=0;points=[[0,0.5],[1,0.5]];portConstraint=eastwest;fontSize=15;fontFamily=Helvetica;fontColor=rgb(0, 0, 0);" parent="rU2aiUpr3m-TPM3HvvIU-3" vertex="1">
          <mxGeometry y="86" width="240" height="26" as="geometry" />
        </mxCell>
        <mxCell id="rU2aiUpr3m-TPM3HvvIU-15" value="Use" style="endArrow=open;endSize=12;dashed=1;html=1;rounded=0;" parent="1" source="4RHJqd0osJH49P0sFGW8-12" target="rU2aiUpr3m-TPM3HvvIU-3" edge="1">
          <mxGeometry width="160" relative="1" as="geometry">
            <mxPoint x="290" y="443.6623376623379" as="sourcePoint" />
            <mxPoint x="435" y="365.32467532467535" as="targetPoint" />
            <Array as="points">
              <mxPoint x="-390" y="890" />
              <mxPoint x="-390" y="400" />
            </Array>
          </mxGeometry>
        </mxCell>
        <mxCell id="rU2aiUpr3m-TPM3HvvIU-29" value="ReportRaterService" style="swimlane;fontStyle=1;align=center;verticalAlign=top;childLayout=stackLayout;horizontal=1;startSize=26;horizontalStack=0;resizeParent=1;resizeParentMax=0;resizeLast=0;collapsible=1;marginBottom=0;strokeColor=rgb(0, 0, 0);fontFamily=Helvetica;fontSize=15;fontColor=rgb(0, 0, 0);fillColor=rgb(255, 255, 255);html=1;swimlaneLine=0;" parent="1" vertex="1">
          <mxGeometry x="-315" y="497" width="240" height="102" as="geometry" />
        </mxCell>
        <mxCell id="rU2aiUpr3m-TPM3HvvIU-30" value="" style="line;strokeWidth=1;fillColor=none;align=left;verticalAlign=middle;spacingTop=-1;spacingLeft=3;spacingRight=3;rotatable=0;labelPosition=right;points=[];portConstraint=eastwest;strokeColor=inherit;fontFamily=Helvetica;fontSize=15;fontColor=rgb(0, 0, 0);html=1;" parent="rU2aiUpr3m-TPM3HvvIU-29" vertex="1">
          <mxGeometry y="26" width="240" height="8" as="geometry" />
        </mxCell>
        <mxCell id="rU2aiUpr3m-TPM3HvvIU-33" value="+ rate(dto: RateBody): RateResult" style="text;strokeColor=none;fillColor=none;align=left;verticalAlign=top;spacingLeft=4;spacingRight=4;overflow=hidden;rotatable=0;points=[[0,0.5],[1,0.5]];portConstraint=eastwest;fontSize=15;fontFamily=Helvetica;fontColor=rgb(0, 0, 0);" parent="rU2aiUpr3m-TPM3HvvIU-29" vertex="1">
          <mxGeometry y="34" width="240" height="34" as="geometry" />
        </mxCell>
        <mxCell id="rU2aiUpr3m-TPM3HvvIU-41" value="+ rate(report: Report): RateResult" style="text;strokeColor=none;fillColor=none;align=left;verticalAlign=top;spacingLeft=4;spacingRight=4;overflow=hidden;rotatable=0;points=[[0,0.5],[1,0.5]];portConstraint=eastwest;fontSize=15;fontFamily=Helvetica;fontColor=rgb(0, 0, 0);" parent="rU2aiUpr3m-TPM3HvvIU-29" vertex="1">
          <mxGeometry y="68" width="240" height="34" as="geometry" />
        </mxCell>
        <mxCell id="rU2aiUpr3m-TPM3HvvIU-39" value="Use" style="endArrow=open;endSize=12;dashed=1;html=1;rounded=0;" parent="1" source="4RHJqd0osJH49P0sFGW8-12" target="1P7DDNBLp40ltK4kkGiz-102" edge="1">
          <mxGeometry width="160" relative="1" as="geometry">
            <mxPoint y="495.9444444444448" as="sourcePoint" />
            <mxPoint x="-70" y="506.05555555555566" as="targetPoint" />
            <Array as="points" />
          </mxGeometry>
        </mxCell>
        <mxCell id="rU2aiUpr3m-TPM3HvvIU-40" value="Use" style="endArrow=open;endSize=12;dashed=1;html=1;rounded=0;" parent="1" source="rU2aiUpr3m-TPM3HvvIU-29" target="rU2aiUpr3m-TPM3HvvIU-3" edge="1">
          <mxGeometry width="160" relative="1" as="geometry">
            <mxPoint x="208.44000000000005" y="400" as="sourcePoint" />
            <mxPoint x="249.32000000000016" y="546" as="targetPoint" />
            <Array as="points" />
          </mxGeometry>
        </mxCell>
        <mxCell id="1P7DDNBLp40ltK4kkGiz-14" value="PutReportDto" style="swimlane;fontStyle=1;align=center;verticalAlign=top;childLayout=stackLayout;horizontal=1;startSize=26;horizontalStack=0;resizeParent=1;resizeParentMax=0;resizeLast=0;collapsible=1;marginBottom=0;strokeColor=rgb(0, 0, 0);fontFamily=Helvetica;fontSize=15;fontColor=rgb(0, 0, 0);fillColor=rgb(255, 255, 255);html=1;swimlaneLine=0;" parent="1" vertex="1">
          <mxGeometry x="-1060" y="18" width="290" height="216" as="geometry" />
        </mxCell>
        <mxCell id="1P7DDNBLp40ltK4kkGiz-15" value="" style="line;strokeWidth=1;fillColor=none;align=left;verticalAlign=middle;spacingTop=-1;spacingLeft=3;spacingRight=3;rotatable=0;labelPosition=right;points=[];portConstraint=eastwest;strokeColor=inherit;fontFamily=Helvetica;fontSize=15;fontColor=rgb(0, 0, 0);html=1;" parent="1P7DDNBLp40ltK4kkGiz-14" vertex="1">
          <mxGeometry y="26" width="290" height="8" as="geometry" />
        </mxCell>
        <mxCell id="1P7DDNBLp40ltK4kkGiz-16" value="+ uuid?: string" style="text;strokeColor=none;fillColor=none;align=left;verticalAlign=top;spacingLeft=4;spacingRight=4;overflow=hidden;rotatable=0;points=[[0,0.5],[1,0.5]];portConstraint=eastwest;fontSize=15;fontFamily=Helvetica;fontColor=rgb(0, 0, 0);" parent="1P7DDNBLp40ltK4kkGiz-14" vertex="1">
          <mxGeometry y="34" width="290" height="26" as="geometry" />
        </mxCell>
        <mxCell id="1P7DDNBLp40ltK4kkGiz-17" value="+ content?: string" style="text;strokeColor=none;fillColor=none;align=left;verticalAlign=top;spacingLeft=4;spacingRight=4;overflow=hidden;rotatable=0;points=[[0,0.5],[1,0.5]];portConstraint=eastwest;fontSize=15;fontFamily=Helvetica;fontColor=rgb(0, 0, 0);" parent="1P7DDNBLp40ltK4kkGiz-14" vertex="1">
          <mxGeometry y="60" width="290" height="26" as="geometry" />
        </mxCell>
        <mxCell id="1P7DDNBLp40ltK4kkGiz-18" value="+ userUuid?: string" style="text;strokeColor=none;fillColor=none;align=left;verticalAlign=top;spacingLeft=4;spacingRight=4;overflow=hidden;rotatable=0;points=[[0,0.5],[1,0.5]];portConstraint=eastwest;fontSize=15;fontFamily=Helvetica;fontColor=rgb(0, 0, 0);" parent="1P7DDNBLp40ltK4kkGiz-14" vertex="1">
          <mxGeometry y="86" width="290" height="26" as="geometry" />
        </mxCell>
        <mxCell id="1P7DDNBLp40ltK4kkGiz-19" value="+ filmUuid?: number" style="text;strokeColor=none;fillColor=none;align=left;verticalAlign=top;spacingLeft=4;spacingRight=4;overflow=hidden;rotatable=0;points=[[0,0.5],[1,0.5]];portConstraint=eastwest;fontSize=15;fontFamily=Helvetica;fontColor=rgb(0, 0, 0);" parent="1P7DDNBLp40ltK4kkGiz-14" vertex="1">
          <mxGeometry y="112" width="290" height="26" as="geometry" />
        </mxCell>
        <mxCell id="1P7DDNBLp40ltK4kkGiz-20" value="+ actorPlayRate?: number" style="text;strokeColor=none;fillColor=none;align=left;verticalAlign=top;spacingLeft=4;spacingRight=4;overflow=hidden;rotatable=0;points=[[0,0.5],[1,0.5]];portConstraint=eastwest;fontSize=15;fontFamily=Helvetica;fontColor=rgb(0, 0, 0);" parent="1P7DDNBLp40ltK4kkGiz-14" vertex="1">
          <mxGeometry y="138" width="290" height="26" as="geometry" />
        </mxCell>
        <mxCell id="1P7DDNBLp40ltK4kkGiz-21" value="+ plotRate?: number" style="text;strokeColor=none;fillColor=none;align=left;verticalAlign=top;spacingLeft=4;spacingRight=4;overflow=hidden;rotatable=0;points=[[0,0.5],[1,0.5]];portConstraint=eastwest;fontSize=15;fontFamily=Helvetica;fontColor=rgb(0, 0, 0);" parent="1P7DDNBLp40ltK4kkGiz-14" vertex="1">
          <mxGeometry y="164" width="290" height="26" as="geometry" />
        </mxCell>
        <mxCell id="1P7DDNBLp40ltK4kkGiz-22" value="+ rate?: number" style="text;strokeColor=none;fillColor=none;align=left;verticalAlign=top;spacingLeft=4;spacingRight=4;overflow=hidden;rotatable=0;points=[[0,0.5],[1,0.5]];portConstraint=eastwest;fontSize=15;fontFamily=Helvetica;fontColor=rgb(0, 0, 0);" parent="1P7DDNBLp40ltK4kkGiz-14" vertex="1">
          <mxGeometry y="190" width="290" height="26" as="geometry" />
        </mxCell>
        <mxCell id="1P7DDNBLp40ltK4kkGiz-32" value="Use" style="endArrow=open;endSize=12;dashed=1;html=1;rounded=0;" parent="1" source="4RHJqd0osJH49P0sFGW8-12" target="1P7DDNBLp40ltK4kkGiz-14" edge="1">
          <mxGeometry width="160" relative="1" as="geometry">
            <mxPoint x="-140" y="432" as="sourcePoint" />
            <mxPoint x="-380" y="490" as="targetPoint" />
            <Array as="points">
              <mxPoint x="-390" y="890" />
              <mxPoint x="-390" y="130" />
            </Array>
          </mxGeometry>
        </mxCell>
        <mxCell id="1P7DDNBLp40ltK4kkGiz-34" value="PasswordHashService" style="swimlane;fontStyle=1;align=center;verticalAlign=top;childLayout=stackLayout;horizontal=1;startSize=26;horizontalStack=0;resizeParent=1;resizeParentMax=0;resizeLast=0;collapsible=1;marginBottom=0;strokeColor=rgb(0, 0, 0);fontFamily=Helvetica;fontSize=15;fontColor=rgb(0, 0, 0);fillColor=rgb(255, 255, 255);html=1;swimlaneLine=0;" parent="1" vertex="1">
          <mxGeometry x="-520" y="1557" width="290" height="140" as="geometry" />
        </mxCell>
        <mxCell id="1P7DDNBLp40ltK4kkGiz-35" value="" style="line;strokeWidth=1;fillColor=none;align=left;verticalAlign=middle;spacingTop=-1;spacingLeft=3;spacingRight=3;rotatable=0;labelPosition=right;points=[];portConstraint=eastwest;strokeColor=inherit;fontFamily=Helvetica;fontSize=15;fontColor=rgb(0, 0, 0);html=1;" parent="1P7DDNBLp40ltK4kkGiz-34" vertex="1">
          <mxGeometry y="26" width="290" height="8" as="geometry" />
        </mxCell>
        <mxCell id="1P7DDNBLp40ltK4kkGiz-36" value="+ encode(&#xa;    alg: string, &#xa;    secret: string,&#xa;    password: string&#xa;): string" style="text;strokeColor=none;fillColor=none;align=left;verticalAlign=top;spacingLeft=4;spacingRight=4;overflow=hidden;rotatable=0;points=[[0,0.5],[1,0.5]];portConstraint=eastwest;fontSize=15;fontFamily=Helvetica;fontColor=rgb(0, 0, 0);" parent="1P7DDNBLp40ltK4kkGiz-34" vertex="1">
          <mxGeometry y="34" width="290" height="106" as="geometry" />
        </mxCell>
        <mxCell id="1P7DDNBLp40ltK4kkGiz-40" value="IPasswordHashService" style="swimlane;fontStyle=3;align=center;verticalAlign=top;childLayout=stackLayout;horizontal=1;startSize=26;horizontalStack=0;resizeParent=1;resizeParentMax=0;resizeLast=0;collapsible=1;marginBottom=0;strokeColor=rgb(0, 0, 0);fontFamily=Helvetica;fontSize=15;fontColor=rgb(0, 0, 0);fillColor=rgb(255, 255, 255);html=1;swimlaneLine=0;" parent="1" vertex="1">
          <mxGeometry x="-515" y="1381" width="290" height="140" as="geometry" />
        </mxCell>
        <mxCell id="1P7DDNBLp40ltK4kkGiz-41" value="" style="line;strokeWidth=1;fillColor=none;align=left;verticalAlign=middle;spacingTop=-1;spacingLeft=3;spacingRight=3;rotatable=0;labelPosition=right;points=[];portConstraint=eastwest;strokeColor=inherit;fontFamily=Helvetica;fontSize=15;fontColor=rgb(0, 0, 0);html=1;" parent="1P7DDNBLp40ltK4kkGiz-40" vertex="1">
          <mxGeometry y="26" width="290" height="8" as="geometry" />
        </mxCell>
        <mxCell id="1P7DDNBLp40ltK4kkGiz-42" value="+ encode(&#xa;    alg: string, &#xa;    secret: string,&#xa;    password: string&#xa;): string" style="text;strokeColor=none;fillColor=none;align=left;verticalAlign=top;spacingLeft=4;spacingRight=4;overflow=hidden;rotatable=0;points=[[0,0.5],[1,0.5]];portConstraint=eastwest;fontSize=15;fontFamily=Helvetica;fontColor=rgb(0, 0, 0);" parent="1P7DDNBLp40ltK4kkGiz-40" vertex="1">
          <mxGeometry y="34" width="290" height="106" as="geometry" />
        </mxCell>
        <mxCell id="1P7DDNBLp40ltK4kkGiz-43" value="" style="endArrow=block;dashed=1;endFill=0;endSize=12;html=1;rounded=0;fontFamily=Helvetica;fontSize=15;fontColor=rgb(0, 0, 0);" parent="1" source="1P7DDNBLp40ltK4kkGiz-34" target="1P7DDNBLp40ltK4kkGiz-40" edge="1">
          <mxGeometry width="160" relative="1" as="geometry">
            <mxPoint x="-30" y="1604" as="sourcePoint" />
            <mxPoint x="-150" y="1630" as="targetPoint" />
          </mxGeometry>
        </mxCell>
        <mxCell id="1P7DDNBLp40ltK4kkGiz-44" value="BaseConfiguration&amp;lt;TConfig&amp;gt;" style="swimlane;fontStyle=3;align=center;verticalAlign=top;childLayout=stackLayout;horizontal=1;startSize=26;horizontalStack=0;resizeParent=1;resizeParentMax=0;resizeLast=0;collapsible=1;marginBottom=0;strokeColor=rgb(0, 0, 0);fontFamily=Helvetica;fontSize=15;fontColor=rgb(0, 0, 0);fillColor=rgb(255, 255, 255);html=1;swimlaneLine=0;" parent="1" vertex="1">
          <mxGeometry x="-680" y="1710" width="290" height="106" as="geometry" />
        </mxCell>
        <mxCell id="1P7DDNBLp40ltK4kkGiz-45" value="" style="line;strokeWidth=1;fillColor=none;align=left;verticalAlign=middle;spacingTop=-1;spacingLeft=3;spacingRight=3;rotatable=0;labelPosition=right;points=[];portConstraint=eastwest;strokeColor=inherit;fontFamily=Helvetica;fontSize=15;fontColor=rgb(0, 0, 0);html=1;" parent="1P7DDNBLp40ltK4kkGiz-44" vertex="1">
          <mxGeometry y="26" width="290" height="8" as="geometry" />
        </mxCell>
        <mxCell id="1P7DDNBLp40ltK4kkGiz-46" value="+ readConfig(configFilePath: string): void" style="text;strokeColor=none;fillColor=none;align=left;verticalAlign=top;spacingLeft=4;spacingRight=4;overflow=hidden;rotatable=0;points=[[0,0.5],[1,0.5]];portConstraint=eastwest;fontSize=15;fontFamily=Helvetica;fontColor=rgb(0, 0, 0);" parent="1P7DDNBLp40ltK4kkGiz-44" vertex="1">
          <mxGeometry y="34" width="290" height="36" as="geometry" />
        </mxCell>
        <mxCell id="1P7DDNBLp40ltK4kkGiz-47" value="+ getConfig(): TConfig" style="text;strokeColor=none;fillColor=none;align=left;verticalAlign=top;spacingLeft=4;spacingRight=4;overflow=hidden;rotatable=0;points=[[0,0.5],[1,0.5]];portConstraint=eastwest;fontSize=15;fontFamily=Helvetica;fontColor=rgb(0, 0, 0);" parent="1P7DDNBLp40ltK4kkGiz-44" vertex="1">
          <mxGeometry y="70" width="290" height="36" as="geometry" />
        </mxCell>
        <mxCell id="1P7DDNBLp40ltK4kkGiz-48" value="IConfigReadStrategy" style="swimlane;fontStyle=3;align=center;verticalAlign=top;childLayout=stackLayout;horizontal=1;startSize=26;horizontalStack=0;resizeParent=1;resizeParentMax=0;resizeLast=0;collapsible=1;marginBottom=0;strokeColor=rgb(0, 0, 0);fontFamily=Helvetica;fontSize=15;fontColor=rgb(0, 0, 0);fillColor=rgb(255, 255, 255);html=1;swimlaneLine=0;" parent="1" vertex="1">
          <mxGeometry x="-1010" y="1720" width="290" height="70" as="geometry" />
        </mxCell>
        <mxCell id="1P7DDNBLp40ltK4kkGiz-49" value="" style="line;strokeWidth=1;fillColor=none;align=left;verticalAlign=middle;spacingTop=-1;spacingLeft=3;spacingRight=3;rotatable=0;labelPosition=right;points=[];portConstraint=eastwest;strokeColor=inherit;fontFamily=Helvetica;fontSize=15;fontColor=rgb(0, 0, 0);html=1;" parent="1P7DDNBLp40ltK4kkGiz-48" vertex="1">
          <mxGeometry y="26" width="290" height="8" as="geometry" />
        </mxCell>
        <mxCell id="1P7DDNBLp40ltK4kkGiz-50" value="+ read(filePath: string): unknown" style="text;strokeColor=none;fillColor=none;align=left;verticalAlign=top;spacingLeft=4;spacingRight=4;overflow=hidden;rotatable=0;points=[[0,0.5],[1,0.5]];portConstraint=eastwest;fontSize=15;fontFamily=Helvetica;fontColor=rgb(0, 0, 0);" parent="1P7DDNBLp40ltK4kkGiz-48" vertex="1">
          <mxGeometry y="34" width="290" height="36" as="geometry" />
        </mxCell>
        <mxCell id="1P7DDNBLp40ltK4kkGiz-52" value="&lt;span style=&quot;font-style: normal;&quot;&gt;YamlReadStrategy&lt;/span&gt;" style="swimlane;fontStyle=3;align=center;verticalAlign=top;childLayout=stackLayout;horizontal=1;startSize=26;horizontalStack=0;resizeParent=1;resizeParentMax=0;resizeLast=0;collapsible=1;marginBottom=0;strokeColor=rgb(0, 0, 0);fontFamily=Helvetica;fontSize=15;fontColor=rgb(0, 0, 0);fillColor=rgb(255, 255, 255);html=1;swimlaneLine=0;" parent="1" vertex="1">
          <mxGeometry x="-1010" y="1620" width="290" height="70" as="geometry" />
        </mxCell>
        <mxCell id="1P7DDNBLp40ltK4kkGiz-53" value="" style="line;strokeWidth=1;fillColor=none;align=left;verticalAlign=middle;spacingTop=-1;spacingLeft=3;spacingRight=3;rotatable=0;labelPosition=right;points=[];portConstraint=eastwest;strokeColor=inherit;fontFamily=Helvetica;fontSize=15;fontColor=rgb(0, 0, 0);html=1;" parent="1P7DDNBLp40ltK4kkGiz-52" vertex="1">
          <mxGeometry y="26" width="290" height="8" as="geometry" />
        </mxCell>
        <mxCell id="1P7DDNBLp40ltK4kkGiz-54" value="+ read(filePath: string): unknown" style="text;strokeColor=none;fillColor=none;align=left;verticalAlign=top;spacingLeft=4;spacingRight=4;overflow=hidden;rotatable=0;points=[[0,0.5],[1,0.5]];portConstraint=eastwest;fontSize=15;fontFamily=Helvetica;fontColor=rgb(0, 0, 0);" parent="1P7DDNBLp40ltK4kkGiz-52" vertex="1">
          <mxGeometry y="34" width="290" height="36" as="geometry" />
        </mxCell>
        <mxCell id="1P7DDNBLp40ltK4kkGiz-55" value="" style="endArrow=block;dashed=1;endFill=0;endSize=12;html=1;rounded=0;fontFamily=Helvetica;fontSize=15;fontColor=rgb(0, 0, 0);" parent="1" source="1P7DDNBLp40ltK4kkGiz-52" target="1P7DDNBLp40ltK4kkGiz-48" edge="1">
          <mxGeometry width="160" relative="1" as="geometry">
            <mxPoint x="-1035" y="1696" as="sourcePoint" />
            <mxPoint x="-1035" y="1736" as="targetPoint" />
          </mxGeometry>
        </mxCell>
        <mxCell id="1P7DDNBLp40ltK4kkGiz-56" value="&lt;span style=&quot;font-style: normal;&quot;&gt;UserConfiguration&lt;/span&gt;" style="swimlane;fontStyle=3;align=center;verticalAlign=top;childLayout=stackLayout;horizontal=1;startSize=26;horizontalStack=0;resizeParent=1;resizeParentMax=0;resizeLast=0;collapsible=1;marginBottom=0;strokeColor=rgb(0, 0, 0);fontFamily=Helvetica;fontSize=15;fontColor=rgb(0, 0, 0);fillColor=rgb(255, 255, 255);html=1;swimlaneLine=0;" parent="1" vertex="1">
          <mxGeometry x="-16" y="1710" width="290" height="106" as="geometry" />
        </mxCell>
        <mxCell id="1P7DDNBLp40ltK4kkGiz-57" value="" style="line;strokeWidth=1;fillColor=none;align=left;verticalAlign=middle;spacingTop=-1;spacingLeft=3;spacingRight=3;rotatable=0;labelPosition=right;points=[];portConstraint=eastwest;strokeColor=inherit;fontFamily=Helvetica;fontSize=15;fontColor=rgb(0, 0, 0);html=1;" parent="1P7DDNBLp40ltK4kkGiz-56" vertex="1">
          <mxGeometry y="26" width="290" height="8" as="geometry" />
        </mxCell>
        <mxCell id="1P7DDNBLp40ltK4kkGiz-58" value="+ readConfig(configFilePath: string): void" style="text;strokeColor=none;fillColor=none;align=left;verticalAlign=top;spacingLeft=4;spacingRight=4;overflow=hidden;rotatable=0;points=[[0,0.5],[1,0.5]];portConstraint=eastwest;fontSize=15;fontFamily=Helvetica;fontColor=rgb(0, 0, 0);" parent="1P7DDNBLp40ltK4kkGiz-56" vertex="1">
          <mxGeometry y="34" width="290" height="36" as="geometry" />
        </mxCell>
        <mxCell id="1P7DDNBLp40ltK4kkGiz-59" value="+ getConfig(): UserConfig" style="text;strokeColor=none;fillColor=none;align=left;verticalAlign=top;spacingLeft=4;spacingRight=4;overflow=hidden;rotatable=0;points=[[0,0.5],[1,0.5]];portConstraint=eastwest;fontSize=15;fontFamily=Helvetica;fontColor=rgb(0, 0, 0);" parent="1P7DDNBLp40ltK4kkGiz-56" vertex="1">
          <mxGeometry y="70" width="290" height="36" as="geometry" />
        </mxCell>
        <mxCell id="1P7DDNBLp40ltK4kkGiz-63" value="Use" style="endArrow=open;endSize=12;dashed=1;html=1;rounded=0;" parent="1" source="rz-6T8RquUPtFqDJdESo-50" target="1P7DDNBLp40ltK4kkGiz-56" edge="1">
          <mxGeometry width="160" relative="1" as="geometry">
            <mxPoint x="210" y="1330" as="sourcePoint" />
            <mxPoint x="405" y="1080" as="targetPoint" />
            <Array as="points" />
          </mxGeometry>
        </mxCell>
        <mxCell id="1P7DDNBLp40ltK4kkGiz-65" value="Use" style="endArrow=open;endSize=12;dashed=1;html=1;rounded=0;" parent="1" source="rz-6T8RquUPtFqDJdESo-50" target="1P7DDNBLp40ltK4kkGiz-40" edge="1">
          <mxGeometry width="160" relative="1" as="geometry">
            <mxPoint x="286" y="1450" as="sourcePoint" />
            <mxPoint x="415" y="1378" as="targetPoint" />
            <Array as="points" />
          </mxGeometry>
        </mxCell>
        <mxCell id="1P7DDNBLp40ltK4kkGiz-66" value="" style="endArrow=diamondThin;startArrow=none;endFill=1;startFill=0;html=1;verticalAlign=bottom;labelBackgroundColor=none;strokeWidth=1;startSize=8;endSize=20;rounded=0;" parent="1" source="1P7DDNBLp40ltK4kkGiz-44" target="1P7DDNBLp40ltK4kkGiz-48" edge="1">
          <mxGeometry width="160" relative="1" as="geometry">
            <mxPoint x="-540" y="1930" as="sourcePoint" />
            <mxPoint x="-420" y="2030" as="targetPoint" />
          </mxGeometry>
        </mxCell>
        <mxCell id="1P7DDNBLp40ltK4kkGiz-67" value="&lt;span style=&quot;font-style: normal;&quot;&gt;UserConfig&lt;/span&gt;" style="swimlane;fontStyle=3;align=center;verticalAlign=top;childLayout=stackLayout;horizontal=1;startSize=26;horizontalStack=0;resizeParent=1;resizeParentMax=0;resizeLast=0;collapsible=1;marginBottom=0;strokeColor=rgb(0, 0, 0);fontFamily=Helvetica;fontSize=15;fontColor=rgb(0, 0, 0);fillColor=rgb(255, 255, 255);html=1;swimlaneLine=0;" parent="1" vertex="1">
          <mxGeometry x="319" y="1620" width="290" height="190" as="geometry" />
        </mxCell>
        <mxCell id="1P7DDNBLp40ltK4kkGiz-68" value="" style="line;strokeWidth=1;fillColor=none;align=left;verticalAlign=middle;spacingTop=-1;spacingLeft=3;spacingRight=3;rotatable=0;labelPosition=right;points=[];portConstraint=eastwest;strokeColor=inherit;fontFamily=Helvetica;fontSize=15;fontColor=rgb(0, 0, 0);html=1;" parent="1P7DDNBLp40ltK4kkGiz-67" vertex="1">
          <mxGeometry y="26" width="290" height="8" as="geometry" />
        </mxCell>
        <mxCell id="1P7DDNBLp40ltK4kkGiz-69" value="+ services: {&#xa;    passwordHashServiceType: string&#xa;}" style="text;strokeColor=none;fillColor=none;align=left;verticalAlign=top;spacingLeft=4;spacingRight=4;overflow=hidden;rotatable=0;points=[[0,0.5],[1,0.5]];portConstraint=eastwest;fontSize=15;fontFamily=Helvetica;fontColor=rgb(0, 0, 0);" parent="1P7DDNBLp40ltK4kkGiz-67" vertex="1">
          <mxGeometry y="34" width="290" height="66" as="geometry" />
        </mxCell>
        <mxCell id="1P7DDNBLp40ltK4kkGiz-70" value="+ hash: {&#xa;    alg: string;&#xa;    secret: string;&#xa;}" style="text;strokeColor=none;fillColor=none;align=left;verticalAlign=top;spacingLeft=4;spacingRight=4;overflow=hidden;rotatable=0;points=[[0,0.5],[1,0.5]];portConstraint=eastwest;fontSize=15;fontFamily=Helvetica;fontColor=rgb(0, 0, 0);" parent="1P7DDNBLp40ltK4kkGiz-67" vertex="1">
          <mxGeometry y="100" width="290" height="90" as="geometry" />
        </mxCell>
        <mxCell id="1P7DDNBLp40ltK4kkGiz-71" value="Use" style="endArrow=open;endSize=12;dashed=1;html=1;rounded=0;" parent="1" source="1P7DDNBLp40ltK4kkGiz-56" target="1P7DDNBLp40ltK4kkGiz-67" edge="1">
          <mxGeometry width="160" relative="1" as="geometry">
            <mxPoint x="244" y="1040" as="sourcePoint" />
            <mxPoint x="427" y="1158" as="targetPoint" />
            <Array as="points" />
          </mxGeometry>
        </mxCell>
        <mxCell id="1P7DDNBLp40ltK4kkGiz-72" value="&lt;span style=&quot;font-style: normal;&quot;&gt;ReportConfig&lt;/span&gt;" style="swimlane;fontStyle=3;align=center;verticalAlign=top;childLayout=stackLayout;horizontal=1;startSize=26;horizontalStack=0;resizeParent=1;resizeParentMax=0;resizeLast=0;collapsible=1;marginBottom=0;strokeColor=rgb(0, 0, 0);fontFamily=Helvetica;fontSize=15;fontColor=rgb(0, 0, 0);fillColor=rgb(255, 255, 255);html=1;swimlaneLine=0;" parent="1" vertex="1">
          <mxGeometry x="-1160" y="680" width="290" height="370" as="geometry" />
        </mxCell>
        <mxCell id="1P7DDNBLp40ltK4kkGiz-73" value="" style="line;strokeWidth=1;fillColor=none;align=left;verticalAlign=middle;spacingTop=-1;spacingLeft=3;spacingRight=3;rotatable=0;labelPosition=right;points=[];portConstraint=eastwest;strokeColor=inherit;fontFamily=Helvetica;fontSize=15;fontColor=rgb(0, 0, 0);html=1;" parent="1P7DDNBLp40ltK4kkGiz-72" vertex="1">
          <mxGeometry y="26" width="290" height="8" as="geometry" />
        </mxCell>
        <mxCell id="1P7DDNBLp40ltK4kkGiz-74" value="+ services: {&#xa;    raterServiceType: string&#xa;    profanityServiceType: string&#xa;}" style="text;strokeColor=none;fillColor=none;align=left;verticalAlign=top;spacingLeft=4;spacingRight=4;overflow=hidden;rotatable=0;points=[[0,0.5],[1,0.5]];portConstraint=eastwest;fontSize=15;fontFamily=Helvetica;fontColor=rgb(0, 0, 0);" parent="1P7DDNBLp40ltK4kkGiz-72" vertex="1">
          <mxGeometry y="34" width="290" height="86" as="geometry" />
        </mxCell>
        <mxCell id="1P7DDNBLp40ltK4kkGiz-76" value="+ defaultValue: number" style="text;strokeColor=none;fillColor=none;align=left;verticalAlign=top;spacingLeft=4;spacingRight=4;overflow=hidden;rotatable=0;points=[[0,0.5],[1,0.5]];portConstraint=eastwest;fontSize=15;fontFamily=Helvetica;fontColor=rgb(0, 0, 0);" parent="1P7DDNBLp40ltK4kkGiz-72" vertex="1">
          <mxGeometry y="120" width="290" height="30" as="geometry" />
        </mxCell>
        <mxCell id="1P7DDNBLp40ltK4kkGiz-77" value="+ maxRating: number" style="text;strokeColor=none;fillColor=none;align=left;verticalAlign=top;spacingLeft=4;spacingRight=4;overflow=hidden;rotatable=0;points=[[0,0.5],[1,0.5]];portConstraint=eastwest;fontSize=15;fontFamily=Helvetica;fontColor=rgb(0, 0, 0);" parent="1P7DDNBLp40ltK4kkGiz-72" vertex="1">
          <mxGeometry y="150" width="290" height="30" as="geometry" />
        </mxCell>
        <mxCell id="1P7DDNBLp40ltK4kkGiz-78" value="+ plotRate: RatingOptionConfig" style="text;strokeColor=none;fillColor=none;align=left;verticalAlign=top;spacingLeft=4;spacingRight=4;overflow=hidden;rotatable=0;points=[[0,0.5],[1,0.5]];portConstraint=eastwest;fontSize=15;fontFamily=Helvetica;fontColor=rgb(0, 0, 0);" parent="1P7DDNBLp40ltK4kkGiz-72" vertex="1">
          <mxGeometry y="180" width="290" height="30" as="geometry" />
        </mxCell>
        <mxCell id="1P7DDNBLp40ltK4kkGiz-79" value="+ actorPlayRate: RatingOptionConfig" style="text;strokeColor=none;fillColor=none;align=left;verticalAlign=top;spacingLeft=4;spacingRight=4;overflow=hidden;rotatable=0;points=[[0,0.5],[1,0.5]];portConstraint=eastwest;fontSize=15;fontFamily=Helvetica;fontColor=rgb(0, 0, 0);" parent="1P7DDNBLp40ltK4kkGiz-72" vertex="1">
          <mxGeometry y="210" width="290" height="30" as="geometry" />
        </mxCell>
        <mxCell id="1P7DDNBLp40ltK4kkGiz-80" value="+ content: RatingOptionConfig" style="text;strokeColor=none;fillColor=none;align=left;verticalAlign=top;spacingLeft=4;spacingRight=4;overflow=hidden;rotatable=0;points=[[0,0.5],[1,0.5]];portConstraint=eastwest;fontSize=15;fontFamily=Helvetica;fontColor=rgb(0, 0, 0);" parent="1P7DDNBLp40ltK4kkGiz-72" vertex="1">
          <mxGeometry y="240" width="290" height="30" as="geometry" />
        </mxCell>
        <mxCell id="1P7DDNBLp40ltK4kkGiz-81" value="+ noProfanity: RatingOptionConfig" style="text;strokeColor=none;fillColor=none;align=left;verticalAlign=top;spacingLeft=4;spacingRight=4;overflow=hidden;rotatable=0;points=[[0,0.5],[1,0.5]];portConstraint=eastwest;fontSize=15;fontFamily=Helvetica;fontColor=rgb(0, 0, 0);" parent="1P7DDNBLp40ltK4kkGiz-72" vertex="1">
          <mxGeometry y="270" width="290" height="30" as="geometry" />
        </mxCell>
        <mxCell id="1P7DDNBLp40ltK4kkGiz-75" value="+ profanity: {&#xa;    list: string{}&#xa;}" style="text;strokeColor=none;fillColor=none;align=left;verticalAlign=top;spacingLeft=4;spacingRight=4;overflow=hidden;rotatable=0;points=[[0,0.5],[1,0.5]];portConstraint=eastwest;fontSize=15;fontFamily=Helvetica;fontColor=rgb(0, 0, 0);" parent="1P7DDNBLp40ltK4kkGiz-72" vertex="1">
          <mxGeometry y="300" width="290" height="70" as="geometry" />
        </mxCell>
        <mxCell id="1P7DDNBLp40ltK4kkGiz-82" value="IProfanityChecker" style="swimlane;fontStyle=3;align=center;verticalAlign=top;childLayout=stackLayout;horizontal=1;startSize=26;horizontalStack=0;resizeParent=1;resizeParentMax=0;resizeLast=0;collapsible=1;marginBottom=0;strokeColor=rgb(0, 0, 0);fontFamily=Helvetica;fontSize=15;fontColor=rgb(0, 0, 0);fillColor=rgb(255, 255, 255);html=1;swimlaneLine=0;" parent="1" vertex="1">
          <mxGeometry x="-365" y="2560" width="290" height="180" as="geometry" />
        </mxCell>
        <mxCell id="1P7DDNBLp40ltK4kkGiz-83" value="" style="line;strokeWidth=1;fillColor=none;align=left;verticalAlign=middle;spacingTop=-1;spacingLeft=3;spacingRight=3;rotatable=0;labelPosition=right;points=[];portConstraint=eastwest;strokeColor=inherit;fontFamily=Helvetica;fontSize=15;fontColor=rgb(0, 0, 0);html=1;" parent="1P7DDNBLp40ltK4kkGiz-82" vertex="1">
          <mxGeometry y="26" width="290" height="8" as="geometry" />
        </mxCell>
        <mxCell id="1P7DDNBLp40ltK4kkGiz-84" value="+ isContainsProfanityWord(content: string, &#xa;profanityWord: string): boolean;" style="text;strokeColor=none;fillColor=none;align=left;verticalAlign=top;spacingLeft=4;spacingRight=4;overflow=hidden;rotatable=0;points=[[0,0.5],[1,0.5]];portConstraint=eastwest;fontSize=15;fontFamily=Helvetica;fontColor=rgb(0, 0, 0);" parent="1P7DDNBLp40ltK4kkGiz-82" vertex="1">
          <mxGeometry y="34" width="290" height="46" as="geometry" />
        </mxCell>
        <mxCell id="TRY5uErVFXuuNKqePKql-1" value="+ isContainsAnyProfanity(content: string, &#xa;profanityWords: string[]): boolean;" style="text;strokeColor=none;fillColor=none;align=left;verticalAlign=top;spacingLeft=4;spacingRight=4;overflow=hidden;rotatable=0;points=[[0,0.5],[1,0.5]];portConstraint=eastwest;fontSize=15;fontFamily=Helvetica;fontColor=rgb(0, 0, 0);" vertex="1" parent="1P7DDNBLp40ltK4kkGiz-82">
          <mxGeometry y="80" width="290" height="50" as="geometry" />
        </mxCell>
        <mxCell id="TRY5uErVFXuuNKqePKql-2" value="+ findAllProfanityWords(content: string, &#xa;profanityWords: string[]): string[];" style="text;strokeColor=none;fillColor=none;align=left;verticalAlign=top;spacingLeft=4;spacingRight=4;overflow=hidden;rotatable=0;points=[[0,0.5],[1,0.5]];portConstraint=eastwest;fontSize=15;fontFamily=Helvetica;fontColor=rgb(0, 0, 0);" vertex="1" parent="1P7DDNBLp40ltK4kkGiz-82">
          <mxGeometry y="130" width="290" height="50" as="geometry" />
        </mxCell>
        <mxCell id="1P7DDNBLp40ltK4kkGiz-88" value="" style="endArrow=block;dashed=1;endFill=0;endSize=12;html=1;rounded=0;fontFamily=Helvetica;fontSize=15;fontColor=rgb(0, 0, 0);" parent="1" source="TRY5uErVFXuuNKqePKql-8" target="1P7DDNBLp40ltK4kkGiz-82" edge="1">
          <mxGeometry width="160" relative="1" as="geometry">
            <mxPoint x="-405" y="2810" as="sourcePoint" />
            <mxPoint x="80" y="2345.5" as="targetPoint" />
          </mxGeometry>
        </mxCell>
        <mxCell id="1P7DDNBLp40ltK4kkGiz-89" value="&lt;span style=&quot;font-style: normal;&quot;&gt;ReportConfiguration&lt;/span&gt;" style="swimlane;fontStyle=3;align=center;verticalAlign=top;childLayout=stackLayout;horizontal=1;startSize=26;horizontalStack=0;resizeParent=1;resizeParentMax=0;resizeLast=0;collapsible=1;marginBottom=0;strokeColor=rgb(0, 0, 0);fontFamily=Helvetica;fontSize=15;fontColor=rgb(0, 0, 0);fillColor=rgb(255, 255, 255);html=1;swimlaneLine=0;" parent="1" vertex="1">
          <mxGeometry x="-675" y="880" width="280" height="106" as="geometry" />
        </mxCell>
        <mxCell id="1P7DDNBLp40ltK4kkGiz-90" value="" style="line;strokeWidth=1;fillColor=none;align=left;verticalAlign=middle;spacingTop=-1;spacingLeft=3;spacingRight=3;rotatable=0;labelPosition=right;points=[];portConstraint=eastwest;strokeColor=inherit;fontFamily=Helvetica;fontSize=15;fontColor=rgb(0, 0, 0);html=1;" parent="1P7DDNBLp40ltK4kkGiz-89" vertex="1">
          <mxGeometry y="26" width="280" height="8" as="geometry" />
        </mxCell>
        <mxCell id="1P7DDNBLp40ltK4kkGiz-91" value="+ readConfig(configFilePath: string): void" style="text;strokeColor=none;fillColor=none;align=left;verticalAlign=top;spacingLeft=4;spacingRight=4;overflow=hidden;rotatable=0;points=[[0,0.5],[1,0.5]];portConstraint=eastwest;fontSize=15;fontFamily=Helvetica;fontColor=rgb(0, 0, 0);" parent="1P7DDNBLp40ltK4kkGiz-89" vertex="1">
          <mxGeometry y="34" width="280" height="36" as="geometry" />
        </mxCell>
        <mxCell id="1P7DDNBLp40ltK4kkGiz-92" value="+ getConfig(): ReportConfig" style="text;strokeColor=none;fillColor=none;align=left;verticalAlign=top;spacingLeft=4;spacingRight=4;overflow=hidden;rotatable=0;points=[[0,0.5],[1,0.5]];portConstraint=eastwest;fontSize=15;fontFamily=Helvetica;fontColor=rgb(0, 0, 0);" parent="1P7DDNBLp40ltK4kkGiz-89" vertex="1">
          <mxGeometry y="70" width="280" height="36" as="geometry" />
        </mxCell>
        <mxCell id="1P7DDNBLp40ltK4kkGiz-93" value="" style="endArrow=block;html=1;rounded=0;align=center;verticalAlign=bottom;endFill=0;labelBackgroundColor=none;endSize=12;strokeWidth=1;" parent="1" source="1P7DDNBLp40ltK4kkGiz-89" target="1P7DDNBLp40ltK4kkGiz-44" edge="1">
          <mxGeometry relative="1" as="geometry">
            <mxPoint x="175" y="1376" as="sourcePoint" />
            <mxPoint x="175" y="1440" as="targetPoint" />
          </mxGeometry>
        </mxCell>
        <mxCell id="1P7DDNBLp40ltK4kkGiz-94" value="Use" style="endArrow=open;endSize=12;dashed=1;html=1;rounded=0;" parent="1" source="1P7DDNBLp40ltK4kkGiz-89" target="1P7DDNBLp40ltK4kkGiz-72" edge="1">
          <mxGeometry width="160" relative="1" as="geometry">
            <mxPoint x="320" y="1326" as="sourcePoint" />
            <mxPoint x="370" y="1327" as="targetPoint" />
            <Array as="points" />
          </mxGeometry>
        </mxCell>
        <mxCell id="1P7DDNBLp40ltK4kkGiz-95" value="RateResult" style="swimlane;fontStyle=1;align=center;verticalAlign=top;childLayout=stackLayout;horizontal=1;startSize=26;horizontalStack=0;resizeParent=1;resizeParentMax=0;resizeLast=0;collapsible=1;marginBottom=0;strokeColor=rgb(0, 0, 0);fontFamily=Helvetica;fontSize=15;fontColor=rgb(0, 0, 0);fillColor=rgb(255, 255, 255);html=1;swimlaneLine=0;" parent="1" vertex="1">
          <mxGeometry x="21" y="502" width="240" height="130" as="geometry" />
        </mxCell>
        <mxCell id="1P7DDNBLp40ltK4kkGiz-96" value="" style="line;strokeWidth=1;fillColor=none;align=left;verticalAlign=middle;spacingTop=-1;spacingLeft=3;spacingRight=3;rotatable=0;labelPosition=right;points=[];portConstraint=eastwest;strokeColor=inherit;fontFamily=Helvetica;fontSize=15;fontColor=rgb(0, 0, 0);html=1;" parent="1P7DDNBLp40ltK4kkGiz-95" vertex="1">
          <mxGeometry y="26" width="240" height="8" as="geometry" />
        </mxCell>
        <mxCell id="1P7DDNBLp40ltK4kkGiz-98" value="+ rating: number" style="text;strokeColor=none;fillColor=none;align=left;verticalAlign=top;spacingLeft=4;spacingRight=4;overflow=hidden;rotatable=0;points=[[0,0.5],[1,0.5]];portConstraint=eastwest;fontSize=15;fontFamily=Helvetica;fontColor=rgb(0, 0, 0);" parent="1P7DDNBLp40ltK4kkGiz-95" vertex="1">
          <mxGeometry y="34" width="240" height="26" as="geometry" />
        </mxCell>
        <mxCell id="1P7DDNBLp40ltK4kkGiz-99" value="+ maxRating: number" style="text;strokeColor=none;fillColor=none;align=left;verticalAlign=top;spacingLeft=4;spacingRight=4;overflow=hidden;rotatable=0;points=[[0,0.5],[1,0.5]];portConstraint=eastwest;fontSize=15;fontFamily=Helvetica;fontColor=rgb(0, 0, 0);" parent="1P7DDNBLp40ltK4kkGiz-95" vertex="1">
          <mxGeometry y="60" width="240" height="26" as="geometry" />
        </mxCell>
        <mxCell id="LBTq0-QQhLtNWPN-D3CP-35" value="+ checkResults: &#xa;RateOptionCheckResult[]" style="text;strokeColor=none;fillColor=none;align=left;verticalAlign=top;spacingLeft=4;spacingRight=4;overflow=hidden;rotatable=0;points=[[0,0.5],[1,0.5]];portConstraint=eastwest;fontSize=15;fontFamily=Helvetica;fontColor=rgb(0, 0, 0);" parent="1P7DDNBLp40ltK4kkGiz-95" vertex="1">
          <mxGeometry y="86" width="240" height="44" as="geometry" />
        </mxCell>
        <mxCell id="1P7DDNBLp40ltK4kkGiz-100" value="Use" style="endArrow=open;endSize=12;dashed=1;html=1;rounded=0;" parent="1" source="1P7DDNBLp40ltK4kkGiz-102" target="1P7DDNBLp40ltK4kkGiz-95" edge="1">
          <mxGeometry width="160" relative="1" as="geometry">
            <mxPoint x="-50" y="599" as="sourcePoint" />
            <mxPoint x="10" y="600" as="targetPoint" />
            <Array as="points" />
          </mxGeometry>
        </mxCell>
        <mxCell id="1P7DDNBLp40ltK4kkGiz-102" value="&lt;i&gt;IReportRaterService&lt;/i&gt;" style="swimlane;fontStyle=1;align=center;verticalAlign=top;childLayout=stackLayout;horizontal=1;startSize=26;horizontalStack=0;resizeParent=1;resizeParentMax=0;resizeLast=0;collapsible=1;marginBottom=0;strokeColor=rgb(0, 0, 0);fontFamily=Helvetica;fontSize=15;fontColor=rgb(0, 0, 0);fillColor=rgb(255, 255, 255);html=1;swimlaneLine=0;" parent="1" vertex="1">
          <mxGeometry x="-30" y="680" width="240" height="102" as="geometry" />
        </mxCell>
        <mxCell id="1P7DDNBLp40ltK4kkGiz-103" value="" style="line;strokeWidth=1;fillColor=none;align=left;verticalAlign=middle;spacingTop=-1;spacingLeft=3;spacingRight=3;rotatable=0;labelPosition=right;points=[];portConstraint=eastwest;strokeColor=inherit;fontFamily=Helvetica;fontSize=15;fontColor=rgb(0, 0, 0);html=1;" parent="1P7DDNBLp40ltK4kkGiz-102" vertex="1">
          <mxGeometry y="26" width="240" height="8" as="geometry" />
        </mxCell>
        <mxCell id="1P7DDNBLp40ltK4kkGiz-104" value="+ rate(dto: RateBody): RateResult" style="text;strokeColor=none;fillColor=none;align=left;verticalAlign=top;spacingLeft=4;spacingRight=4;overflow=hidden;rotatable=0;points=[[0,0.5],[1,0.5]];portConstraint=eastwest;fontSize=15;fontFamily=Helvetica;fontColor=rgb(0, 0, 0);" parent="1P7DDNBLp40ltK4kkGiz-102" vertex="1">
          <mxGeometry y="34" width="240" height="34" as="geometry" />
        </mxCell>
        <mxCell id="1P7DDNBLp40ltK4kkGiz-105" value="+ rate(report: Report): RateResult" style="text;strokeColor=none;fillColor=none;align=left;verticalAlign=top;spacingLeft=4;spacingRight=4;overflow=hidden;rotatable=0;points=[[0,0.5],[1,0.5]];portConstraint=eastwest;fontSize=15;fontFamily=Helvetica;fontColor=rgb(0, 0, 0);" parent="1P7DDNBLp40ltK4kkGiz-102" vertex="1">
          <mxGeometry y="68" width="240" height="34" as="geometry" />
        </mxCell>
        <mxCell id="1P7DDNBLp40ltK4kkGiz-106" value="" style="endArrow=block;dashed=1;endFill=0;endSize=12;html=1;rounded=0;fontFamily=Helvetica;fontSize=15;fontColor=rgb(0, 0, 0);" parent="1" source="rU2aiUpr3m-TPM3HvvIU-29" target="1P7DDNBLp40ltK4kkGiz-102" edge="1">
          <mxGeometry width="160" relative="1" as="geometry">
            <mxPoint x="-175" y="1260" as="sourcePoint" />
            <mxPoint x="-175" y="1200" as="targetPoint" />
          </mxGeometry>
        </mxCell>
        <mxCell id="onueA_AL45BA8ZIqSH5X-1" value="Use" style="endArrow=open;endSize=12;dashed=1;html=1;rounded=0;" parent="1" source="rU2aiUpr3m-TPM3HvvIU-29" target="1P7DDNBLp40ltK4kkGiz-89" edge="1">
          <mxGeometry width="160" relative="1" as="geometry">
            <mxPoint x="-258" y="980" as="sourcePoint" />
            <mxPoint x="-459" y="896" as="targetPoint" />
            <Array as="points">
              <mxPoint x="-535" y="590" />
            </Array>
          </mxGeometry>
        </mxCell>
        <mxCell id="onueA_AL45BA8ZIqSH5X-2" value="Use" style="endArrow=open;endSize=12;dashed=1;html=1;rounded=0;" parent="1" source="4RHJqd0osJH49P0sFGW8-12" target="rz-6T8RquUPtFqDJdESo-50" edge="1">
          <mxGeometry width="160" relative="1" as="geometry">
            <mxPoint x="30" y="1133" as="sourcePoint" />
            <mxPoint x="-30" y="1132" as="targetPoint" />
            <Array as="points" />
          </mxGeometry>
        </mxCell>
        <mxCell id="onueA_AL45BA8ZIqSH5X-4" value="Use" style="endArrow=open;endSize=12;dashed=1;html=1;rounded=0;" parent="1" source="rz-6T8RquUPtFqDJdESo-50" target="1P7DDNBLp40ltK4kkGiz-67" edge="1">
          <mxGeometry width="160" relative="1" as="geometry">
            <mxPoint x="320" y="1326" as="sourcePoint" />
            <mxPoint x="353.89610389610425" y="1590" as="targetPoint" />
            <Array as="points" />
          </mxGeometry>
        </mxCell>
        <mxCell id="onueA_AL45BA8ZIqSH5X-8" value="ReportFactory" style="swimlane;fontStyle=1;align=center;verticalAlign=top;childLayout=stackLayout;horizontal=1;startSize=26;horizontalStack=0;resizeParent=1;resizeParentMax=0;resizeLast=0;collapsible=1;marginBottom=0;strokeColor=rgb(0, 0, 0);fontFamily=Helvetica;fontSize=15;fontColor=rgb(0, 0, 0);fillColor=rgb(255, 255, 255);html=1;swimlaneLine=0;" parent="1" vertex="1">
          <mxGeometry x="40" y="282" width="230" height="180" as="geometry" />
        </mxCell>
        <mxCell id="onueA_AL45BA8ZIqSH5X-9" value="" style="line;strokeWidth=1;fillColor=none;align=left;verticalAlign=middle;spacingTop=-1;spacingLeft=3;spacingRight=3;rotatable=0;labelPosition=right;points=[];portConstraint=eastwest;strokeColor=inherit;fontFamily=Helvetica;fontSize=15;fontColor=rgb(0, 0, 0);html=1;" parent="onueA_AL45BA8ZIqSH5X-8" vertex="1">
          <mxGeometry y="26" width="230" height="8" as="geometry" />
        </mxCell>
        <mxCell id="onueA_AL45BA8ZIqSH5X-17" value="+ create(&#xa;    content: string,&#xa;    props?: ReportOptionalProps&#xa;): Report " style="text;strokeColor=none;fillColor=none;align=left;verticalAlign=top;spacingLeft=4;spacingRight=4;overflow=hidden;rotatable=0;points=[[0,0.5],[1,0.5]];portConstraint=eastwest;fontSize=15;fontFamily=Helvetica;fontColor=rgb(0, 0, 0);" parent="onueA_AL45BA8ZIqSH5X-8" vertex="1">
          <mxGeometry y="34" width="230" height="86" as="geometry" />
        </mxCell>
        <mxCell id="onueA_AL45BA8ZIqSH5X-18" value="+ createFromDto(&#xa;    dto: CreateReportDto&#xa;): Report" style="text;strokeColor=none;fillColor=none;align=left;verticalAlign=top;spacingLeft=4;spacingRight=4;overflow=hidden;rotatable=0;points=[[0,0.5],[1,0.5]];portConstraint=eastwest;fontSize=15;fontFamily=Helvetica;fontColor=rgb(0, 0, 0);" parent="onueA_AL45BA8ZIqSH5X-8" vertex="1">
          <mxGeometry y="120" width="230" height="60" as="geometry" />
        </mxCell>
        <mxCell id="onueA_AL45BA8ZIqSH5X-19" value="ReportOptionalProps" style="swimlane;fontStyle=1;align=center;verticalAlign=top;childLayout=stackLayout;horizontal=1;startSize=26;horizontalStack=0;resizeParent=1;resizeParentMax=0;resizeLast=0;collapsible=1;marginBottom=0;strokeColor=rgb(0, 0, 0);fontFamily=Helvetica;fontSize=15;fontColor=rgb(0, 0, 0);fillColor=rgb(255, 255, 255);html=1;swimlaneLine=0;" parent="1" vertex="1">
          <mxGeometry x="380" y="264" width="190" height="216" as="geometry" />
        </mxCell>
        <mxCell id="onueA_AL45BA8ZIqSH5X-20" value="" style="line;strokeWidth=1;fillColor=none;align=left;verticalAlign=middle;spacingTop=-1;spacingLeft=3;spacingRight=3;rotatable=0;labelPosition=right;points=[];portConstraint=eastwest;strokeColor=inherit;fontFamily=Helvetica;fontSize=15;fontColor=rgb(0, 0, 0);html=1;" parent="onueA_AL45BA8ZIqSH5X-19" vertex="1">
          <mxGeometry y="26" width="190" height="8" as="geometry" />
        </mxCell>
        <mxCell id="onueA_AL45BA8ZIqSH5X-23" value="+ plotRate?: number" style="text;strokeColor=none;fillColor=none;align=left;verticalAlign=top;spacingLeft=4;spacingRight=4;overflow=hidden;rotatable=0;points=[[0,0.5],[1,0.5]];portConstraint=eastwest;fontSize=15;fontFamily=Helvetica;fontColor=rgb(0, 0, 0);" parent="onueA_AL45BA8ZIqSH5X-19" vertex="1">
          <mxGeometry y="34" width="190" height="26" as="geometry" />
        </mxCell>
        <mxCell id="onueA_AL45BA8ZIqSH5X-24" value="+ actorPlayRate?: number" style="text;strokeColor=none;fillColor=none;align=left;verticalAlign=top;spacingLeft=4;spacingRight=4;overflow=hidden;rotatable=0;points=[[0,0.5],[1,0.5]];portConstraint=eastwest;fontSize=15;fontFamily=Helvetica;fontColor=rgb(0, 0, 0);" parent="onueA_AL45BA8ZIqSH5X-19" vertex="1">
          <mxGeometry y="60" width="190" height="26" as="geometry" />
        </mxCell>
        <mxCell id="onueA_AL45BA8ZIqSH5X-25" value="+ rate?: number" style="text;strokeColor=none;fillColor=none;align=left;verticalAlign=top;spacingLeft=4;spacingRight=4;overflow=hidden;rotatable=0;points=[[0,0.5],[1,0.5]];portConstraint=eastwest;fontSize=15;fontFamily=Helvetica;fontColor=rgb(0, 0, 0);" parent="onueA_AL45BA8ZIqSH5X-19" vertex="1">
          <mxGeometry y="86" width="190" height="26" as="geometry" />
        </mxCell>
        <mxCell id="onueA_AL45BA8ZIqSH5X-26" value="+ filmUuid?: string" style="text;strokeColor=none;fillColor=none;align=left;verticalAlign=top;spacingLeft=4;spacingRight=4;overflow=hidden;rotatable=0;points=[[0,0.5],[1,0.5]];portConstraint=eastwest;fontSize=15;fontFamily=Helvetica;fontColor=rgb(0, 0, 0);" parent="onueA_AL45BA8ZIqSH5X-19" vertex="1">
          <mxGeometry y="112" width="190" height="26" as="geometry" />
        </mxCell>
        <mxCell id="onueA_AL45BA8ZIqSH5X-27" value="+ film?: Film" style="text;strokeColor=none;fillColor=none;align=left;verticalAlign=top;spacingLeft=4;spacingRight=4;overflow=hidden;rotatable=0;points=[[0,0.5],[1,0.5]];portConstraint=eastwest;fontSize=15;fontFamily=Helvetica;fontColor=rgb(0, 0, 0);" parent="onueA_AL45BA8ZIqSH5X-19" vertex="1">
          <mxGeometry y="138" width="190" height="26" as="geometry" />
        </mxCell>
        <mxCell id="onueA_AL45BA8ZIqSH5X-28" value="+ userUuid?: string" style="text;strokeColor=none;fillColor=none;align=left;verticalAlign=top;spacingLeft=4;spacingRight=4;overflow=hidden;rotatable=0;points=[[0,0.5],[1,0.5]];portConstraint=eastwest;fontSize=15;fontFamily=Helvetica;fontColor=rgb(0, 0, 0);" parent="onueA_AL45BA8ZIqSH5X-19" vertex="1">
          <mxGeometry y="164" width="190" height="26" as="geometry" />
        </mxCell>
        <mxCell id="onueA_AL45BA8ZIqSH5X-29" value="+ user?: User" style="text;strokeColor=none;fillColor=none;align=left;verticalAlign=top;spacingLeft=4;spacingRight=4;overflow=hidden;rotatable=0;points=[[0,0.5],[1,0.5]];portConstraint=eastwest;fontSize=15;fontFamily=Helvetica;fontColor=rgb(0, 0, 0);" parent="onueA_AL45BA8ZIqSH5X-19" vertex="1">
          <mxGeometry y="190" width="190" height="26" as="geometry" />
        </mxCell>
        <mxCell id="onueA_AL45BA8ZIqSH5X-30" value="Use" style="endArrow=open;endSize=12;dashed=1;html=1;rounded=0;" parent="1" source="onueA_AL45BA8ZIqSH5X-8" target="onueA_AL45BA8ZIqSH5X-19" edge="1">
          <mxGeometry width="160" relative="1" as="geometry">
            <mxPoint x="206" y="830" as="sourcePoint" />
            <mxPoint x="390" y="709" as="targetPoint" />
            <Array as="points" />
          </mxGeometry>
        </mxCell>
        <mxCell id="onueA_AL45BA8ZIqSH5X-32" value="Use" style="endArrow=open;endSize=12;dashed=1;html=1;rounded=0;" parent="1" source="onueA_AL45BA8ZIqSH5X-8" target="2iII4kuZC04SP8r0jxeM-19" edge="1">
          <mxGeometry width="160" relative="1" as="geometry">
            <mxPoint x="240" y="398" as="sourcePoint" />
            <mxPoint x="450" y="351" as="targetPoint" />
            <Array as="points" />
          </mxGeometry>
        </mxCell>
        <mxCell id="onueA_AL45BA8ZIqSH5X-33" value="&lt;span style=&quot;font-style: normal;&quot;&gt;FilmConfiguration&lt;/span&gt;" style="swimlane;fontStyle=3;align=center;verticalAlign=top;childLayout=stackLayout;horizontal=1;startSize=26;horizontalStack=0;resizeParent=1;resizeParentMax=0;resizeLast=0;collapsible=1;marginBottom=0;strokeColor=rgb(0, 0, 0);fontFamily=Helvetica;fontSize=15;fontColor=rgb(0, 0, 0);fillColor=rgb(255, 255, 255);html=1;swimlaneLine=0;" parent="1" vertex="1">
          <mxGeometry x="-459" y="2303" width="280" height="106" as="geometry" />
        </mxCell>
        <mxCell id="onueA_AL45BA8ZIqSH5X-34" value="" style="line;strokeWidth=1;fillColor=none;align=left;verticalAlign=middle;spacingTop=-1;spacingLeft=3;spacingRight=3;rotatable=0;labelPosition=right;points=[];portConstraint=eastwest;strokeColor=inherit;fontFamily=Helvetica;fontSize=15;fontColor=rgb(0, 0, 0);html=1;" parent="onueA_AL45BA8ZIqSH5X-33" vertex="1">
          <mxGeometry y="26" width="280" height="8" as="geometry" />
        </mxCell>
        <mxCell id="onueA_AL45BA8ZIqSH5X-35" value="+ readConfig(configFilePath: string): void" style="text;strokeColor=none;fillColor=none;align=left;verticalAlign=top;spacingLeft=4;spacingRight=4;overflow=hidden;rotatable=0;points=[[0,0.5],[1,0.5]];portConstraint=eastwest;fontSize=15;fontFamily=Helvetica;fontColor=rgb(0, 0, 0);" parent="onueA_AL45BA8ZIqSH5X-33" vertex="1">
          <mxGeometry y="34" width="280" height="36" as="geometry" />
        </mxCell>
        <mxCell id="onueA_AL45BA8ZIqSH5X-36" value="+ getConfig(): FilmConfig" style="text;strokeColor=none;fillColor=none;align=left;verticalAlign=top;spacingLeft=4;spacingRight=4;overflow=hidden;rotatable=0;points=[[0,0.5],[1,0.5]];portConstraint=eastwest;fontSize=15;fontFamily=Helvetica;fontColor=rgb(0, 0, 0);" parent="onueA_AL45BA8ZIqSH5X-33" vertex="1">
          <mxGeometry y="70" width="280" height="36" as="geometry" />
        </mxCell>
        <mxCell id="onueA_AL45BA8ZIqSH5X-37" value="&lt;span style=&quot;font-style: normal;&quot;&gt;FilmConfig&lt;/span&gt;" style="swimlane;fontStyle=3;align=center;verticalAlign=top;childLayout=stackLayout;horizontal=1;startSize=26;horizontalStack=0;resizeParent=1;resizeParentMax=0;resizeLast=0;collapsible=1;marginBottom=0;strokeColor=rgb(0, 0, 0);fontFamily=Helvetica;fontSize=15;fontColor=rgb(0, 0, 0);fillColor=rgb(255, 255, 255);html=1;swimlaneLine=0;" parent="1" vertex="1">
          <mxGeometry x="-645" y="2446" width="290" height="86" as="geometry" />
        </mxCell>
        <mxCell id="onueA_AL45BA8ZIqSH5X-38" value="" style="line;strokeWidth=1;fillColor=none;align=left;verticalAlign=middle;spacingTop=-1;spacingLeft=3;spacingRight=3;rotatable=0;labelPosition=right;points=[];portConstraint=eastwest;strokeColor=inherit;fontFamily=Helvetica;fontSize=15;fontColor=rgb(0, 0, 0);html=1;" parent="onueA_AL45BA8ZIqSH5X-37" vertex="1">
          <mxGeometry y="26" width="290" height="8" as="geometry" />
        </mxCell>
        <mxCell id="onueA_AL45BA8ZIqSH5X-39" value="+ defaultSkip: number" style="text;strokeColor=none;fillColor=none;align=left;verticalAlign=top;spacingLeft=4;spacingRight=4;overflow=hidden;rotatable=0;points=[[0,0.5],[1,0.5]];portConstraint=eastwest;fontSize=15;fontFamily=Helvetica;fontColor=rgb(0, 0, 0);" parent="onueA_AL45BA8ZIqSH5X-37" vertex="1">
          <mxGeometry y="34" width="290" height="26" as="geometry" />
        </mxCell>
        <mxCell id="onueA_AL45BA8ZIqSH5X-41" value="+ defaultTake: number" style="text;strokeColor=none;fillColor=none;align=left;verticalAlign=top;spacingLeft=4;spacingRight=4;overflow=hidden;rotatable=0;points=[[0,0.5],[1,0.5]];portConstraint=eastwest;fontSize=15;fontFamily=Helvetica;fontColor=rgb(0, 0, 0);" parent="onueA_AL45BA8ZIqSH5X-37" vertex="1">
          <mxGeometry y="60" width="290" height="26" as="geometry" />
        </mxCell>
        <mxCell id="onueA_AL45BA8ZIqSH5X-42" value="Use" style="endArrow=open;endSize=12;dashed=1;html=1;rounded=0;" parent="1" source="onueA_AL45BA8ZIqSH5X-33" target="onueA_AL45BA8ZIqSH5X-37" edge="1">
          <mxGeometry width="160" relative="1" as="geometry">
            <mxPoint x="768" y="2589" as="sourcePoint" />
            <mxPoint x="802" y="2623" as="targetPoint" />
            <Array as="points" />
          </mxGeometry>
        </mxCell>
        <mxCell id="onueA_AL45BA8ZIqSH5X-43" value="" style="endArrow=block;html=1;rounded=0;align=center;verticalAlign=bottom;endFill=0;labelBackgroundColor=none;endSize=12;strokeWidth=1;" parent="1" source="onueA_AL45BA8ZIqSH5X-33" target="1P7DDNBLp40ltK4kkGiz-44" edge="1">
          <mxGeometry relative="1" as="geometry">
            <mxPoint x="-525" y="996" as="sourcePoint" />
            <mxPoint x="-525" y="1510" as="targetPoint" />
            <Array as="points">
              <mxPoint x="-535" y="2350" />
              <mxPoint x="-535" y="1860" />
            </Array>
          </mxGeometry>
        </mxCell>
        <mxCell id="onueA_AL45BA8ZIqSH5X-44" value="Use" style="endArrow=open;endSize=12;dashed=1;html=1;rounded=0;" parent="1" source="4RHJqd0osJH49P0sFGW8-9" target="onueA_AL45BA8ZIqSH5X-33" edge="1">
          <mxGeometry width="160" relative="1" as="geometry">
            <mxPoint x="-519" y="2181" as="sourcePoint" />
            <mxPoint x="-517" y="2125" as="targetPoint" />
            <Array as="points" />
          </mxGeometry>
        </mxCell>
        <mxCell id="onueA_AL45BA8ZIqSH5X-46" value="" style="endArrow=block;html=1;rounded=0;align=center;verticalAlign=bottom;endFill=0;labelBackgroundColor=none;endSize=12;strokeWidth=1;" parent="1" source="1P7DDNBLp40ltK4kkGiz-56" target="1P7DDNBLp40ltK4kkGiz-44" edge="1">
          <mxGeometry relative="1" as="geometry">
            <mxPoint x="-110" y="1690" as="sourcePoint" />
            <mxPoint x="-420" y="1530" as="targetPoint" />
            <Array as="points" />
          </mxGeometry>
        </mxCell>
        <mxCell id="LBTq0-QQhLtNWPN-D3CP-1" value="&lt;i&gt;RateOption&lt;/i&gt;" style="swimlane;fontStyle=1;align=center;verticalAlign=top;childLayout=stackLayout;horizontal=1;startSize=26;horizontalStack=0;resizeParent=1;resizeParentMax=0;resizeLast=0;collapsible=1;marginBottom=0;strokeColor=rgb(0, 0, 0);fontFamily=Helvetica;fontSize=15;fontColor=rgb(0, 0, 0);fillColor=rgb(255, 255, 255);html=1;swimlaneLine=0;" parent="1" vertex="1">
          <mxGeometry x="-20" y="100" width="230" height="94" as="geometry" />
        </mxCell>
        <mxCell id="LBTq0-QQhLtNWPN-D3CP-2" value="" style="line;strokeWidth=1;fillColor=none;align=left;verticalAlign=middle;spacingTop=-1;spacingLeft=3;spacingRight=3;rotatable=0;labelPosition=right;points=[];portConstraint=eastwest;strokeColor=inherit;fontFamily=Helvetica;fontSize=15;fontColor=rgb(0, 0, 0);html=1;" parent="LBTq0-QQhLtNWPN-D3CP-1" vertex="1">
          <mxGeometry y="26" width="230" height="8" as="geometry" />
        </mxCell>
        <mxCell id="LBTq0-QQhLtNWPN-D3CP-4" value="+ check(&#xa;    body: RateBody&#xa;): RateOptionCheckResult" style="text;strokeColor=none;fillColor=none;align=left;verticalAlign=top;spacingLeft=4;spacingRight=4;overflow=hidden;rotatable=0;points=[[0,0.5],[1,0.5]];portConstraint=eastwest;fontSize=15;fontFamily=Helvetica;fontColor=rgb(0, 0, 0);" parent="LBTq0-QQhLtNWPN-D3CP-1" vertex="1">
          <mxGeometry y="34" width="230" height="60" as="geometry" />
        </mxCell>
        <mxCell id="LBTq0-QQhLtNWPN-D3CP-9" value="PlotRateOption" style="swimlane;fontStyle=1;align=center;verticalAlign=top;childLayout=stackLayout;horizontal=1;startSize=26;horizontalStack=0;resizeParent=1;resizeParentMax=0;resizeLast=0;collapsible=1;marginBottom=0;strokeColor=rgb(0, 0, 0);fontFamily=Helvetica;fontSize=15;fontColor=rgb(0, 0, 0);fillColor=rgb(255, 255, 255);html=1;swimlaneLine=0;" parent="1" vertex="1">
          <mxGeometry x="254" y="-10" width="230" height="94" as="geometry" />
        </mxCell>
        <mxCell id="LBTq0-QQhLtNWPN-D3CP-10" value="" style="line;strokeWidth=1;fillColor=none;align=left;verticalAlign=middle;spacingTop=-1;spacingLeft=3;spacingRight=3;rotatable=0;labelPosition=right;points=[];portConstraint=eastwest;strokeColor=inherit;fontFamily=Helvetica;fontSize=15;fontColor=rgb(0, 0, 0);html=1;" parent="LBTq0-QQhLtNWPN-D3CP-9" vertex="1">
          <mxGeometry y="26" width="230" height="8" as="geometry" />
        </mxCell>
        <mxCell id="LBTq0-QQhLtNWPN-D3CP-11" value="+ check(&#xa;    body: RateBody&#xa;): RateOptionCheckResult" style="text;strokeColor=none;fillColor=none;align=left;verticalAlign=top;spacingLeft=4;spacingRight=4;overflow=hidden;rotatable=0;points=[[0,0.5],[1,0.5]];portConstraint=eastwest;fontSize=15;fontFamily=Helvetica;fontColor=rgb(0, 0, 0);" parent="LBTq0-QQhLtNWPN-D3CP-9" vertex="1">
          <mxGeometry y="34" width="230" height="60" as="geometry" />
        </mxCell>
        <mxCell id="LBTq0-QQhLtNWPN-D3CP-12" value="ActorPlayRateOption" style="swimlane;fontStyle=1;align=center;verticalAlign=top;childLayout=stackLayout;horizontal=1;startSize=26;horizontalStack=0;resizeParent=1;resizeParentMax=0;resizeLast=0;collapsible=1;marginBottom=0;strokeColor=rgb(0, 0, 0);fontFamily=Helvetica;fontSize=15;fontColor=rgb(0, 0, 0);fillColor=rgb(255, 255, 255);html=1;swimlaneLine=0;" parent="1" vertex="1">
          <mxGeometry x="254" y="-260" width="230" height="94" as="geometry" />
        </mxCell>
        <mxCell id="LBTq0-QQhLtNWPN-D3CP-13" value="" style="line;strokeWidth=1;fillColor=none;align=left;verticalAlign=middle;spacingTop=-1;spacingLeft=3;spacingRight=3;rotatable=0;labelPosition=right;points=[];portConstraint=eastwest;strokeColor=inherit;fontFamily=Helvetica;fontSize=15;fontColor=rgb(0, 0, 0);html=1;" parent="LBTq0-QQhLtNWPN-D3CP-12" vertex="1">
          <mxGeometry y="26" width="230" height="8" as="geometry" />
        </mxCell>
        <mxCell id="LBTq0-QQhLtNWPN-D3CP-14" value="+ check(&#xa;    body: RateBody&#xa;): RateOptionCheckResult" style="text;strokeColor=none;fillColor=none;align=left;verticalAlign=top;spacingLeft=4;spacingRight=4;overflow=hidden;rotatable=0;points=[[0,0.5],[1,0.5]];portConstraint=eastwest;fontSize=15;fontFamily=Helvetica;fontColor=rgb(0, 0, 0);" parent="LBTq0-QQhLtNWPN-D3CP-12" vertex="1">
          <mxGeometry y="34" width="230" height="60" as="geometry" />
        </mxCell>
        <mxCell id="LBTq0-QQhLtNWPN-D3CP-15" value="NoProfanityOption" style="swimlane;fontStyle=1;align=center;verticalAlign=top;childLayout=stackLayout;horizontal=1;startSize=26;horizontalStack=0;resizeParent=1;resizeParentMax=0;resizeLast=0;collapsible=1;marginBottom=0;strokeColor=rgb(0, 0, 0);fontFamily=Helvetica;fontSize=15;fontColor=rgb(0, 0, 0);fillColor=rgb(255, 255, 255);html=1;swimlaneLine=0;" parent="1" vertex="1">
          <mxGeometry x="-210" y="-70" width="230" height="94" as="geometry" />
        </mxCell>
        <mxCell id="LBTq0-QQhLtNWPN-D3CP-16" value="" style="line;strokeWidth=1;fillColor=none;align=left;verticalAlign=middle;spacingTop=-1;spacingLeft=3;spacingRight=3;rotatable=0;labelPosition=right;points=[];portConstraint=eastwest;strokeColor=inherit;fontFamily=Helvetica;fontSize=15;fontColor=rgb(0, 0, 0);html=1;" parent="LBTq0-QQhLtNWPN-D3CP-15" vertex="1">
          <mxGeometry y="26" width="230" height="8" as="geometry" />
        </mxCell>
        <mxCell id="LBTq0-QQhLtNWPN-D3CP-17" value="+ check(&#xa;    body: RateBody&#xa;): RateOptionCheckResult" style="text;strokeColor=none;fillColor=none;align=left;verticalAlign=top;spacingLeft=4;spacingRight=4;overflow=hidden;rotatable=0;points=[[0,0.5],[1,0.5]];portConstraint=eastwest;fontSize=15;fontFamily=Helvetica;fontColor=rgb(0, 0, 0);" parent="LBTq0-QQhLtNWPN-D3CP-15" vertex="1">
          <mxGeometry y="34" width="230" height="60" as="geometry" />
        </mxCell>
        <mxCell id="LBTq0-QQhLtNWPN-D3CP-18" value="ContentLengthOption" style="swimlane;fontStyle=1;align=center;verticalAlign=top;childLayout=stackLayout;horizontal=1;startSize=26;horizontalStack=0;resizeParent=1;resizeParentMax=0;resizeLast=0;collapsible=1;marginBottom=0;strokeColor=rgb(0, 0, 0);fontFamily=Helvetica;fontSize=15;fontColor=rgb(0, 0, 0);fillColor=rgb(255, 255, 255);html=1;swimlaneLine=0;" parent="1" vertex="1">
          <mxGeometry x="254" y="-140" width="230" height="94" as="geometry" />
        </mxCell>
        <mxCell id="LBTq0-QQhLtNWPN-D3CP-19" value="" style="line;strokeWidth=1;fillColor=none;align=left;verticalAlign=middle;spacingTop=-1;spacingLeft=3;spacingRight=3;rotatable=0;labelPosition=right;points=[];portConstraint=eastwest;strokeColor=inherit;fontFamily=Helvetica;fontSize=15;fontColor=rgb(0, 0, 0);html=1;" parent="LBTq0-QQhLtNWPN-D3CP-18" vertex="1">
          <mxGeometry y="26" width="230" height="8" as="geometry" />
        </mxCell>
        <mxCell id="LBTq0-QQhLtNWPN-D3CP-20" value="+ check(&#xa;    body: RateBody&#xa;): RateOptionCheckResult" style="text;strokeColor=none;fillColor=none;align=left;verticalAlign=top;spacingLeft=4;spacingRight=4;overflow=hidden;rotatable=0;points=[[0,0.5],[1,0.5]];portConstraint=eastwest;fontSize=15;fontFamily=Helvetica;fontColor=rgb(0, 0, 0);" parent="LBTq0-QQhLtNWPN-D3CP-18" vertex="1">
          <mxGeometry y="34" width="230" height="60" as="geometry" />
        </mxCell>
        <mxCell id="LBTq0-QQhLtNWPN-D3CP-22" value="" style="endArrow=block;html=1;rounded=0;align=center;verticalAlign=bottom;endFill=0;labelBackgroundColor=none;endSize=12;strokeWidth=1;" parent="1" source="LBTq0-QQhLtNWPN-D3CP-12" target="LBTq0-QQhLtNWPN-D3CP-1" edge="1">
          <mxGeometry relative="1" as="geometry">
            <mxPoint x="44" y="253" as="sourcePoint" />
            <mxPoint x="-330" y="253" as="targetPoint" />
            <Array as="points">
              <mxPoint x="95" y="-210" />
            </Array>
          </mxGeometry>
        </mxCell>
        <mxCell id="LBTq0-QQhLtNWPN-D3CP-23" value="" style="endArrow=block;html=1;rounded=0;align=center;verticalAlign=bottom;endFill=0;labelBackgroundColor=none;endSize=12;strokeWidth=1;" parent="1" source="LBTq0-QQhLtNWPN-D3CP-9" target="LBTq0-QQhLtNWPN-D3CP-1" edge="1">
          <mxGeometry relative="1" as="geometry">
            <mxPoint x="-35" y="74" as="sourcePoint" />
            <mxPoint x="25" y="110" as="targetPoint" />
            <Array as="points">
              <mxPoint x="95" y="40" />
            </Array>
          </mxGeometry>
        </mxCell>
        <mxCell id="LBTq0-QQhLtNWPN-D3CP-24" value="" style="endArrow=block;html=1;rounded=0;align=center;verticalAlign=bottom;endFill=0;labelBackgroundColor=none;endSize=12;strokeWidth=1;" parent="1" source="LBTq0-QQhLtNWPN-D3CP-15" target="LBTq0-QQhLtNWPN-D3CP-1" edge="1">
          <mxGeometry relative="1" as="geometry">
            <mxPoint x="222" y="28" as="sourcePoint" />
            <mxPoint x="148" y="110" as="targetPoint" />
            <Array as="points">
              <mxPoint x="95" y="-20" />
            </Array>
          </mxGeometry>
        </mxCell>
        <mxCell id="LBTq0-QQhLtNWPN-D3CP-25" value="" style="endArrow=block;html=1;rounded=0;align=center;verticalAlign=bottom;endFill=0;labelBackgroundColor=none;endSize=12;strokeWidth=1;" parent="1" source="LBTq0-QQhLtNWPN-D3CP-18" target="LBTq0-QQhLtNWPN-D3CP-1" edge="1">
          <mxGeometry relative="1" as="geometry">
            <mxPoint x="216" y="-116" as="sourcePoint" />
            <mxPoint x="124" y="110" as="targetPoint" />
            <Array as="points">
              <mxPoint x="95" y="-93" />
            </Array>
          </mxGeometry>
        </mxCell>
        <mxCell id="LBTq0-QQhLtNWPN-D3CP-26" value="RateOptionCheckResult" style="swimlane;fontStyle=1;align=center;verticalAlign=top;childLayout=stackLayout;horizontal=1;startSize=26;horizontalStack=0;resizeParent=1;resizeParentMax=0;resizeLast=0;collapsible=1;marginBottom=0;strokeColor=rgb(0, 0, 0);fontFamily=Helvetica;fontSize=15;fontColor=rgb(0, 0, 0);fillColor=rgb(255, 255, 255);html=1;swimlaneLine=0;" parent="1" vertex="1">
          <mxGeometry x="-320" y="94" width="230" height="90" as="geometry" />
        </mxCell>
        <mxCell id="LBTq0-QQhLtNWPN-D3CP-27" value="" style="line;strokeWidth=1;fillColor=none;align=left;verticalAlign=middle;spacingTop=-1;spacingLeft=3;spacingRight=3;rotatable=0;labelPosition=right;points=[];portConstraint=eastwest;strokeColor=inherit;fontFamily=Helvetica;fontSize=15;fontColor=rgb(0, 0, 0);html=1;" parent="LBTq0-QQhLtNWPN-D3CP-26" vertex="1">
          <mxGeometry y="26" width="230" height="8" as="geometry" />
        </mxCell>
        <mxCell id="LBTq0-QQhLtNWPN-D3CP-29" value="+ code: string" style="text;strokeColor=none;fillColor=none;align=left;verticalAlign=top;spacingLeft=4;spacingRight=4;overflow=hidden;rotatable=0;points=[[0,0.5],[1,0.5]];portConstraint=eastwest;fontSize=15;fontFamily=Helvetica;fontColor=rgb(0, 0, 0);" parent="LBTq0-QQhLtNWPN-D3CP-26" vertex="1">
          <mxGeometry y="34" width="230" height="26" as="geometry" />
        </mxCell>
        <mxCell id="LBTq0-QQhLtNWPN-D3CP-28" value="+ givingScores: number" style="text;strokeColor=none;fillColor=none;align=left;verticalAlign=top;spacingLeft=4;spacingRight=4;overflow=hidden;rotatable=0;points=[[0,0.5],[1,0.5]];portConstraint=eastwest;fontSize=15;fontFamily=Helvetica;fontColor=rgb(0, 0, 0);" parent="LBTq0-QQhLtNWPN-D3CP-26" vertex="1">
          <mxGeometry y="60" width="230" height="30" as="geometry" />
        </mxCell>
        <mxCell id="LBTq0-QQhLtNWPN-D3CP-33" value="Use" style="endArrow=open;endSize=12;dashed=1;html=1;rounded=0;" parent="1" source="LBTq0-QQhLtNWPN-D3CP-1" target="LBTq0-QQhLtNWPN-D3CP-26" edge="1">
          <mxGeometry width="160" relative="1" as="geometry">
            <mxPoint x="240" y="410" as="sourcePoint" />
            <mxPoint x="390" y="393" as="targetPoint" />
            <Array as="points" />
          </mxGeometry>
        </mxCell>
        <mxCell id="LBTq0-QQhLtNWPN-D3CP-34" value="Use" style="endArrow=open;endSize=12;dashed=1;html=1;rounded=0;" parent="1" source="LBTq0-QQhLtNWPN-D3CP-1" target="rU2aiUpr3m-TPM3HvvIU-3" edge="1">
          <mxGeometry width="160" relative="1" as="geometry">
            <mxPoint x="250" y="420" as="sourcePoint" />
            <mxPoint x="400" y="403" as="targetPoint" />
            <Array as="points" />
          </mxGeometry>
        </mxCell>
        <mxCell id="LBTq0-QQhLtNWPN-D3CP-36" value="Use" style="endArrow=open;endSize=12;dashed=1;html=1;rounded=0;" parent="1" source="1P7DDNBLp40ltK4kkGiz-95" target="LBTq0-QQhLtNWPN-D3CP-26" edge="1">
          <mxGeometry width="160" relative="1" as="geometry">
            <mxPoint x="54" y="204" as="sourcePoint" />
            <mxPoint x="-124" y="369" as="targetPoint" />
            <Array as="points">
              <mxPoint x="-10" y="560" />
              <mxPoint x="-70" y="220" />
            </Array>
          </mxGeometry>
        </mxCell>
        <mxCell id="LBTq0-QQhLtNWPN-D3CP-37" value="Use" style="endArrow=open;endSize=12;dashed=1;html=1;rounded=0;" parent="1" source="onueA_AL45BA8ZIqSH5X-8" target="4RHJqd0osJH49P0sFGW8-48" edge="1">
          <mxGeometry width="160" relative="1" as="geometry">
            <mxPoint x="54" y="204" as="sourcePoint" />
            <mxPoint x="-124" y="369" as="targetPoint" />
            <Array as="points">
              <mxPoint x="10" y="335" />
            </Array>
          </mxGeometry>
        </mxCell>
        <mxCell id="LBTq0-QQhLtNWPN-D3CP-38" value="Use" style="endArrow=open;endSize=12;dashed=1;html=1;rounded=0;" parent="1" source="4RHJqd0osJH49P0sFGW8-9" target="1P7DDNBLp40ltK4kkGiz-82" edge="1">
          <mxGeometry width="160" relative="1" as="geometry">
            <mxPoint x="129" y="1616" as="sourcePoint" />
            <mxPoint x="129" y="1726" as="targetPoint" />
            <Array as="points" />
          </mxGeometry>
        </mxCell>
        <mxCell id="LBTq0-QQhLtNWPN-D3CP-40" value="Use" style="endArrow=open;endSize=12;dashed=1;html=1;rounded=0;exitX=0.389;exitY=-0.019;exitDx=0;exitDy=0;exitPerimeter=0;" parent="1" source="1P7DDNBLp40ltK4kkGiz-82" target="onueA_AL45BA8ZIqSH5X-33" edge="1">
          <mxGeometry width="160" relative="1" as="geometry">
            <mxPoint x="-14" y="2559" as="sourcePoint" />
            <mxPoint x="-125" y="2636" as="targetPoint" />
            <Array as="points" />
          </mxGeometry>
        </mxCell>
        <mxCell id="TRY5uErVFXuuNKqePKql-8" value="&lt;span style=&quot;font-style: normal;&quot;&gt;ProfanityChecker&lt;/span&gt;" style="swimlane;fontStyle=3;align=center;verticalAlign=top;childLayout=stackLayout;horizontal=1;startSize=26;horizontalStack=0;resizeParent=1;resizeParentMax=0;resizeLast=0;collapsible=1;marginBottom=0;strokeColor=rgb(0, 0, 0);fontFamily=Helvetica;fontSize=15;fontColor=rgb(0, 0, 0);fillColor=rgb(255, 255, 255);html=1;swimlaneLine=0;" vertex="1" parent="1">
          <mxGeometry x="-705" y="2560" width="290" height="180" as="geometry" />
        </mxCell>
        <mxCell id="TRY5uErVFXuuNKqePKql-9" value="" style="line;strokeWidth=1;fillColor=none;align=left;verticalAlign=middle;spacingTop=-1;spacingLeft=3;spacingRight=3;rotatable=0;labelPosition=right;points=[];portConstraint=eastwest;strokeColor=inherit;fontFamily=Helvetica;fontSize=15;fontColor=rgb(0, 0, 0);html=1;" vertex="1" parent="TRY5uErVFXuuNKqePKql-8">
          <mxGeometry y="26" width="290" height="8" as="geometry" />
        </mxCell>
        <mxCell id="TRY5uErVFXuuNKqePKql-10" value="+ isContainsProfanityWord(content: string, &#xa;profanityWord: string): boolean;" style="text;strokeColor=none;fillColor=none;align=left;verticalAlign=top;spacingLeft=4;spacingRight=4;overflow=hidden;rotatable=0;points=[[0,0.5],[1,0.5]];portConstraint=eastwest;fontSize=15;fontFamily=Helvetica;fontColor=rgb(0, 0, 0);" vertex="1" parent="TRY5uErVFXuuNKqePKql-8">
          <mxGeometry y="34" width="290" height="46" as="geometry" />
        </mxCell>
        <mxCell id="TRY5uErVFXuuNKqePKql-11" value="+ isContainsAnyProfanity(content: string, &#xa;profanityWords: string[]): boolean;" style="text;strokeColor=none;fillColor=none;align=left;verticalAlign=top;spacingLeft=4;spacingRight=4;overflow=hidden;rotatable=0;points=[[0,0.5],[1,0.5]];portConstraint=eastwest;fontSize=15;fontFamily=Helvetica;fontColor=rgb(0, 0, 0);" vertex="1" parent="TRY5uErVFXuuNKqePKql-8">
          <mxGeometry y="80" width="290" height="50" as="geometry" />
        </mxCell>
        <mxCell id="TRY5uErVFXuuNKqePKql-12" value="+ findAllProfanityWords(content: string, &#xa;profanityWords: string[]): string[];" style="text;strokeColor=none;fillColor=none;align=left;verticalAlign=top;spacingLeft=4;spacingRight=4;overflow=hidden;rotatable=0;points=[[0,0.5],[1,0.5]];portConstraint=eastwest;fontSize=15;fontFamily=Helvetica;fontColor=rgb(0, 0, 0);" vertex="1" parent="TRY5uErVFXuuNKqePKql-8">
          <mxGeometry y="130" width="290" height="50" as="geometry" />
        </mxCell>
        <mxCell id="TRY5uErVFXuuNKqePKql-13" value="IProfanityChecker" style="swimlane;fontStyle=3;align=center;verticalAlign=top;childLayout=stackLayout;horizontal=1;startSize=26;horizontalStack=0;resizeParent=1;resizeParentMax=0;resizeLast=0;collapsible=1;marginBottom=0;strokeColor=rgb(0, 0, 0);fontFamily=Helvetica;fontSize=15;fontColor=rgb(0, 0, 0);fillColor=rgb(255, 255, 255);html=1;swimlaneLine=0;" vertex="1" parent="1">
          <mxGeometry x="-550" y="-235" width="290" height="180" as="geometry" />
        </mxCell>
        <mxCell id="TRY5uErVFXuuNKqePKql-14" value="" style="line;strokeWidth=1;fillColor=none;align=left;verticalAlign=middle;spacingTop=-1;spacingLeft=3;spacingRight=3;rotatable=0;labelPosition=right;points=[];portConstraint=eastwest;strokeColor=inherit;fontFamily=Helvetica;fontSize=15;fontColor=rgb(0, 0, 0);html=1;" vertex="1" parent="TRY5uErVFXuuNKqePKql-13">
          <mxGeometry y="26" width="290" height="8" as="geometry" />
        </mxCell>
        <mxCell id="TRY5uErVFXuuNKqePKql-15" value="+ isContainsProfanityWord(content: string, &#xa;profanityWord: string): boolean;" style="text;strokeColor=none;fillColor=none;align=left;verticalAlign=top;spacingLeft=4;spacingRight=4;overflow=hidden;rotatable=0;points=[[0,0.5],[1,0.5]];portConstraint=eastwest;fontSize=15;fontFamily=Helvetica;fontColor=rgb(0, 0, 0);" vertex="1" parent="TRY5uErVFXuuNKqePKql-13">
          <mxGeometry y="34" width="290" height="46" as="geometry" />
        </mxCell>
        <mxCell id="TRY5uErVFXuuNKqePKql-16" value="+ isContainsAnyProfanity(content: string, &#xa;profanityWords: string[]): boolean;" style="text;strokeColor=none;fillColor=none;align=left;verticalAlign=top;spacingLeft=4;spacingRight=4;overflow=hidden;rotatable=0;points=[[0,0.5],[1,0.5]];portConstraint=eastwest;fontSize=15;fontFamily=Helvetica;fontColor=rgb(0, 0, 0);" vertex="1" parent="TRY5uErVFXuuNKqePKql-13">
          <mxGeometry y="80" width="290" height="50" as="geometry" />
        </mxCell>
        <mxCell id="TRY5uErVFXuuNKqePKql-17" value="+ findAllProfanityWords(content: string, &#xa;profanityWords: string[]): string[];" style="text;strokeColor=none;fillColor=none;align=left;verticalAlign=top;spacingLeft=4;spacingRight=4;overflow=hidden;rotatable=0;points=[[0,0.5],[1,0.5]];portConstraint=eastwest;fontSize=15;fontFamily=Helvetica;fontColor=rgb(0, 0, 0);" vertex="1" parent="TRY5uErVFXuuNKqePKql-13">
          <mxGeometry y="130" width="290" height="50" as="geometry" />
        </mxCell>
        <mxCell id="TRY5uErVFXuuNKqePKql-18" value="Use" style="endArrow=open;endSize=12;dashed=1;html=1;rounded=0;" edge="1" parent="1" source="LBTq0-QQhLtNWPN-D3CP-15" target="TRY5uErVFXuuNKqePKql-13">
          <mxGeometry width="160" relative="1" as="geometry">
            <mxPoint x="-10" y="157" as="sourcePoint" />
            <mxPoint x="-80" y="157" as="targetPoint" />
            <Array as="points" />
          </mxGeometry>
        </mxCell>
        <mxCell id="TRY5uErVFXuuNKqePKql-19" value="&lt;i&gt;ILogService&lt;/i&gt;" style="swimlane;fontStyle=1;align=center;verticalAlign=top;childLayout=stackLayout;horizontal=1;startSize=26;horizontalStack=0;resizeParent=1;resizeParentMax=0;resizeLast=0;collapsible=1;marginBottom=0;strokeColor=rgb(0, 0, 0);fontFamily=Helvetica;fontSize=15;fontColor=rgb(0, 0, 0);fillColor=rgb(255, 255, 255);html=1;swimlaneLine=0;" vertex="1" parent="1">
          <mxGeometry x="-380" y="938" width="290" height="218" as="geometry" />
        </mxCell>
        <mxCell id="TRY5uErVFXuuNKqePKql-20" value="" style="line;strokeWidth=1;fillColor=none;align=left;verticalAlign=middle;spacingTop=-1;spacingLeft=3;spacingRight=3;rotatable=0;labelPosition=right;points=[];portConstraint=eastwest;strokeColor=inherit;fontFamily=Helvetica;fontSize=15;fontColor=rgb(0, 0, 0);html=1;" vertex="1" parent="TRY5uErVFXuuNKqePKql-19">
          <mxGeometry y="26" width="290" height="8" as="geometry" />
        </mxCell>
        <mxCell id="TRY5uErVFXuuNKqePKql-21" value="+ warning(objOrErr: object, &#xa;content?: string | string[]): Promise&lt;void&gt;" style="text;strokeColor=none;fillColor=none;align=left;verticalAlign=top;spacingLeft=4;spacingRight=4;overflow=hidden;rotatable=0;points=[[0,0.5],[1,0.5]];portConstraint=eastwest;fontSize=15;fontFamily=Helvetica;fontColor=rgb(0, 0, 0);" vertex="1" parent="TRY5uErVFXuuNKqePKql-19">
          <mxGeometry y="34" width="290" height="46" as="geometry" />
        </mxCell>
        <mxCell id="TRY5uErVFXuuNKqePKql-23" value="+ debug(objOrErr: object, &#xa;content?: string | string[]): Promise&lt;void&gt;" style="text;strokeColor=none;fillColor=none;align=left;verticalAlign=top;spacingLeft=4;spacingRight=4;overflow=hidden;rotatable=0;points=[[0,0.5],[1,0.5]];portConstraint=eastwest;fontSize=15;fontFamily=Helvetica;fontColor=rgb(0, 0, 0);" vertex="1" parent="TRY5uErVFXuuNKqePKql-19">
          <mxGeometry y="80" width="290" height="46" as="geometry" />
        </mxCell>
        <mxCell id="TRY5uErVFXuuNKqePKql-24" value="+ info(objOrErr: object, &#xa;content?: string | string[]): Promise&lt;void&gt;" style="text;strokeColor=none;fillColor=none;align=left;verticalAlign=top;spacingLeft=4;spacingRight=4;overflow=hidden;rotatable=0;points=[[0,0.5],[1,0.5]];portConstraint=eastwest;fontSize=15;fontFamily=Helvetica;fontColor=rgb(0, 0, 0);" vertex="1" parent="TRY5uErVFXuuNKqePKql-19">
          <mxGeometry y="126" width="290" height="46" as="geometry" />
        </mxCell>
        <mxCell id="TRY5uErVFXuuNKqePKql-25" value="+ danger(objOrErr: object, &#xa;content?: string | string[]): Promise&lt;void&gt;" style="text;strokeColor=none;fillColor=none;align=left;verticalAlign=top;spacingLeft=4;spacingRight=4;overflow=hidden;rotatable=0;points=[[0,0.5],[1,0.5]];portConstraint=eastwest;fontSize=15;fontFamily=Helvetica;fontColor=rgb(0, 0, 0);" vertex="1" parent="TRY5uErVFXuuNKqePKql-19">
          <mxGeometry y="172" width="290" height="46" as="geometry" />
        </mxCell>
        <mxCell id="TRY5uErVFXuuNKqePKql-26" value="PinoLogService" style="swimlane;fontStyle=1;align=center;verticalAlign=top;childLayout=stackLayout;horizontal=1;startSize=26;horizontalStack=0;resizeParent=1;resizeParentMax=0;resizeLast=0;collapsible=1;marginBottom=0;strokeColor=rgb(0, 0, 0);fontFamily=Helvetica;fontSize=15;fontColor=rgb(0, 0, 0);fillColor=rgb(255, 255, 255);html=1;swimlaneLine=0;" vertex="1" parent="1">
          <mxGeometry x="-840" y="1003" width="290" height="218" as="geometry" />
        </mxCell>
        <mxCell id="TRY5uErVFXuuNKqePKql-27" value="" style="line;strokeWidth=1;fillColor=none;align=left;verticalAlign=middle;spacingTop=-1;spacingLeft=3;spacingRight=3;rotatable=0;labelPosition=right;points=[];portConstraint=eastwest;strokeColor=inherit;fontFamily=Helvetica;fontSize=15;fontColor=rgb(0, 0, 0);html=1;" vertex="1" parent="TRY5uErVFXuuNKqePKql-26">
          <mxGeometry y="26" width="290" height="8" as="geometry" />
        </mxCell>
        <mxCell id="TRY5uErVFXuuNKqePKql-28" value="+ warning(objOrErr: object, &#xa;content?: string | string[]): Promise&lt;void&gt;" style="text;strokeColor=none;fillColor=none;align=left;verticalAlign=top;spacingLeft=4;spacingRight=4;overflow=hidden;rotatable=0;points=[[0,0.5],[1,0.5]];portConstraint=eastwest;fontSize=15;fontFamily=Helvetica;fontColor=rgb(0, 0, 0);" vertex="1" parent="TRY5uErVFXuuNKqePKql-26">
          <mxGeometry y="34" width="290" height="46" as="geometry" />
        </mxCell>
        <mxCell id="TRY5uErVFXuuNKqePKql-29" value="+ debug(objOrErr: object, &#xa;content?: string | string[]): Promise&lt;void&gt;" style="text;strokeColor=none;fillColor=none;align=left;verticalAlign=top;spacingLeft=4;spacingRight=4;overflow=hidden;rotatable=0;points=[[0,0.5],[1,0.5]];portConstraint=eastwest;fontSize=15;fontFamily=Helvetica;fontColor=rgb(0, 0, 0);" vertex="1" parent="TRY5uErVFXuuNKqePKql-26">
          <mxGeometry y="80" width="290" height="46" as="geometry" />
        </mxCell>
        <mxCell id="TRY5uErVFXuuNKqePKql-30" value="+ info(objOrErr: object, &#xa;content?: string | string[]): Promise&lt;void&gt;" style="text;strokeColor=none;fillColor=none;align=left;verticalAlign=top;spacingLeft=4;spacingRight=4;overflow=hidden;rotatable=0;points=[[0,0.5],[1,0.5]];portConstraint=eastwest;fontSize=15;fontFamily=Helvetica;fontColor=rgb(0, 0, 0);" vertex="1" parent="TRY5uErVFXuuNKqePKql-26">
          <mxGeometry y="126" width="290" height="46" as="geometry" />
        </mxCell>
        <mxCell id="TRY5uErVFXuuNKqePKql-31" value="+ danger(objOrErr: object, &#xa;content?: string | string[]): Promise&lt;void&gt;" style="text;strokeColor=none;fillColor=none;align=left;verticalAlign=top;spacingLeft=4;spacingRight=4;overflow=hidden;rotatable=0;points=[[0,0.5],[1,0.5]];portConstraint=eastwest;fontSize=15;fontFamily=Helvetica;fontColor=rgb(0, 0, 0);" vertex="1" parent="TRY5uErVFXuuNKqePKql-26">
          <mxGeometry y="172" width="290" height="46" as="geometry" />
        </mxCell>
        <mxCell id="TRY5uErVFXuuNKqePKql-33" value="Use" style="endArrow=open;endSize=12;dashed=1;html=1;rounded=0;" edge="1" parent="1" source="4RHJqd0osJH49P0sFGW8-12" target="TRY5uErVFXuuNKqePKql-19">
          <mxGeometry width="160" relative="1" as="geometry">
            <mxPoint x="-6" y="1291" as="sourcePoint" />
            <mxPoint x="-45" y="1288" as="targetPoint" />
            <Array as="points" />
          </mxGeometry>
        </mxCell>
        <mxCell id="TRY5uErVFXuuNKqePKql-34" value="" style="endArrow=block;dashed=1;endFill=0;endSize=12;html=1;rounded=0;fontFamily=Helvetica;fontSize=15;fontColor=rgb(0, 0, 0);" edge="1" parent="1" source="TRY5uErVFXuuNKqePKql-26" target="TRY5uErVFXuuNKqePKql-19">
          <mxGeometry width="160" relative="1" as="geometry">
            <mxPoint x="-470" y="1210" as="sourcePoint" />
            <mxPoint x="-420" y="1210" as="targetPoint" />
          </mxGeometry>
        </mxCell>
        <mxCell id="TRY5uErVFXuuNKqePKql-35" value="Use" style="endArrow=open;endSize=12;dashed=1;html=1;rounded=0;" edge="1" parent="1" source="rz-6T8RquUPtFqDJdESo-43" target="1P7DDNBLp40ltK4kkGiz-56">
          <mxGeometry width="160" relative="1" as="geometry">
            <mxPoint x="240" y="1600" as="sourcePoint" />
            <mxPoint x="170" y="1720" as="targetPoint" />
            <Array as="points" />
          </mxGeometry>
        </mxCell>
        <mxCell id="TRY5uErVFXuuNKqePKql-36" value="Use" style="endArrow=open;endSize=12;dashed=1;html=1;rounded=0;" edge="1" parent="1" source="rz-6T8RquUPtFqDJdESo-43" target="1P7DDNBLp40ltK4kkGiz-40">
          <mxGeometry width="160" relative="1" as="geometry">
            <mxPoint x="14" y="1630" as="sourcePoint" />
            <mxPoint x="93" y="1720" as="targetPoint" />
            <Array as="points" />
          </mxGeometry>
        </mxCell>
        <mxCell id="TRY5uErVFXuuNKqePKql-37" value="Use" style="endArrow=open;endSize=12;dashed=1;html=1;rounded=0;" edge="1" parent="1" source="rz-6T8RquUPtFqDJdESo-43" target="rz-6T8RquUPtFqDJdESo-36">
          <mxGeometry width="160" relative="1" as="geometry">
            <mxPoint x="-147" y="1540" as="sourcePoint" />
            <mxPoint x="-215" y="1515" as="targetPoint" />
            <Array as="points">
              <mxPoint x="90" y="1390" />
            </Array>
          </mxGeometry>
        </mxCell>
        <mxCell id="TRY5uErVFXuuNKqePKql-38" value="Use" style="endArrow=open;endSize=12;dashed=1;html=1;rounded=0;" edge="1" parent="1" source="4RHJqd0osJH49P0sFGW8-9" target="rz-6T8RquUPtFqDJdESo-50">
          <mxGeometry width="160" relative="1" as="geometry">
            <mxPoint x="381" y="2271" as="sourcePoint" />
            <mxPoint x="254" y="2222" as="targetPoint" />
            <Array as="points">
              <mxPoint x="360" y="2200" />
              <mxPoint x="550" y="2200" />
              <mxPoint x="550" y="1940" />
              <mxPoint x="310" y="1940" />
            </Array>
          </mxGeometry>
        </mxCell>
      </root>
    </mxGraphModel>
  </diagram>
</mxfile>
